<svg width="14" height="12" viewBox="0 0 14 12" fill="none" xmlns="http://www.w3.org/2000/svg">
    <path d="M0 3.416L6.77986 7.11028C6.91788 7.18546 7.08222 7.18546 7.22024 7.11028L14 3.41667V9.83333C14 10.9887 13.1368 11.9328 12.0492 11.9966L11.9318 12H2.06827C0.965435 12 0.0642143 11.0957 0.00337243 9.95628L0 9.83333V3.416ZM2.06827 0H11.9318C13.0347 0 13.9359 0.904303 13.9967 2.04372L14 2.16667V2.28933L7.00005 6.10311L0 2.28933V2.16667C0 1.01131 0.863291 0.0671692 1.95091 0.00342973L2.06827 0H11.9318H2.06827Z"
          fill="#62897D"/>
</svg>
