<svg width="17" height="17" viewBox="0 0 17 17" fill="none" xmlns="http://www.w3.org/2000/svg">
<g clip-path="url(#clip0)">
<path d="M16.1445 8.85962C16.1445 4.44087 12.5633 0.859619 8.14453 0.859619C3.72578 0.859619 0.144531 4.44087 0.144531 8.85962C0.144531 13.2784 3.72578 16.8596 8.14453 16.8596C8.19141 16.8596 8.23828 16.8596 8.28516 16.8565V10.6315H6.56641V8.62837H8.28516V7.15337C8.28516 5.44399 9.32891 4.51274 10.8539 4.51274C11.5852 4.51274 12.2133 4.56587 12.3945 4.59087V6.37837H11.3445C10.5164 6.37837 10.3539 6.77212 10.3539 7.35024V8.62524H12.3383L12.0789 10.6284H10.3539V16.5502C13.6977 15.5909 16.1445 12.5127 16.1445 8.85962Z" fill="#62897D"/>
</g>
<defs>
<clipPath id="clip0">
<rect width="16" height="16" fill="white" transform="translate(0.144531 0.859619)"/>
</clipPath>
</defs>
</svg>
