<svg width="17" height="17" viewBox="0 0 17 17" fill="none" xmlns="http://www.w3.org/2000/svg">
<g clip-path="url(#clip0)">
<path d="M10.3906 8.85962C10.3906 9.70532 9.70508 10.3909 8.85938 10.3909C8.01367 10.3909 7.32812 9.70532 7.32812 8.85962C7.32812 8.01392 8.01367 7.32837 8.85938 7.32837C9.70508 7.32837 10.3906 8.01392 10.3906 8.85962Z" fill="#62897D"/>
<path d="M12.4404 6.15033C12.3668 5.95087 12.2494 5.77032 12.0968 5.62213C11.9486 5.46954 11.7682 5.35211 11.5686 5.2785C11.4067 5.21564 11.1636 5.14081 10.7157 5.12042C10.2312 5.09833 10.0859 5.09357 8.85937 5.09357C7.63269 5.09357 7.48743 5.09821 7.00305 5.1203C6.55518 5.14081 6.31189 5.21564 6.15015 5.2785C5.95056 5.35211 5.77002 5.46954 5.62195 5.62213C5.46936 5.77032 5.35193 5.95074 5.2782 6.15033C5.21533 6.31219 5.1405 6.55548 5.12012 7.00336C5.09802 7.48773 5.09326 7.633 5.09326 8.85968C5.09326 10.0862 5.09802 10.2315 5.12012 10.716C5.1405 11.1639 5.21533 11.407 5.2782 11.5689C5.35193 11.7685 5.46924 11.9489 5.62183 12.0971C5.77002 12.2497 5.95044 12.3671 6.15002 12.4407C6.31189 12.5037 6.55518 12.5786 7.00305 12.5989C7.48743 12.621 7.63257 12.6257 8.85925 12.6257C10.0861 12.6257 10.2313 12.621 10.7156 12.5989C11.1635 12.5786 11.4067 12.5037 11.5686 12.4407C11.9692 12.2862 12.2859 11.9695 12.4404 11.5689C12.5033 11.407 12.5781 11.1639 12.5986 10.716C12.6207 10.2315 12.6254 10.0862 12.6254 8.85968C12.6254 7.633 12.6207 7.48773 12.5986 7.00336C12.5782 6.55548 12.5034 6.31219 12.4404 6.15033ZM8.85937 11.2184C7.55652 11.2184 6.50037 10.1624 6.50037 8.85956C6.50037 7.5567 7.55652 6.50067 8.85937 6.50067C10.1621 6.50067 11.2183 7.5567 11.2183 8.85956C11.2183 10.1624 10.1621 11.2184 8.85937 11.2184ZM11.3115 6.95868C11.0071 6.95868 10.7603 6.71185 10.7603 6.40741C10.7603 6.10297 11.0071 5.85614 11.3115 5.85614C11.616 5.85614 11.8628 6.10297 11.8628 6.40741C11.8627 6.71185 11.616 6.95868 11.3115 6.95868Z" fill="#62897D"/>
<path d="M8.85938 0.859619C4.44177 0.859619 0.859375 4.44202 0.859375 8.85962C0.859375 13.2772 4.44177 16.8596 8.85938 16.8596C13.277 16.8596 16.8594 13.2772 16.8594 8.85962C16.8594 4.44202 13.277 0.859619 8.85938 0.859619ZM13.4254 10.7535C13.4032 11.2426 13.3254 11.5764 13.2119 11.8687C12.9733 12.4857 12.4855 12.9735 11.8684 13.2122C11.5763 13.3257 11.2423 13.4033 10.7534 13.4257C10.2635 13.448 10.1071 13.4534 8.8595 13.4534C7.61182 13.4534 7.45544 13.448 6.96545 13.4257C6.47656 13.4033 6.14258 13.3257 5.85046 13.2122C5.54382 13.0968 5.26624 12.916 5.03674 12.6823C4.8031 12.4529 4.62231 12.1752 4.50696 11.8687C4.39343 11.5765 4.31567 11.2426 4.29346 10.7537C4.27087 10.2637 4.26562 10.1072 4.26562 8.85962C4.26562 7.61206 4.27087 7.45557 4.29333 6.9657C4.31555 6.47668 4.39319 6.14282 4.50671 5.85059C4.62207 5.54407 4.80298 5.26636 5.03674 5.03699C5.26611 4.80322 5.54382 4.62244 5.85034 4.50708C6.14258 4.39355 6.47644 4.31592 6.96545 4.29358C7.45532 4.27124 7.61182 4.26587 8.85938 4.26587C10.1069 4.26587 10.2634 4.27124 10.7533 4.2937C11.2423 4.31592 11.5762 4.39355 11.8684 4.50696C12.1749 4.62231 12.4526 4.80322 12.6821 5.03699C12.9158 5.26648 13.0967 5.54407 13.2119 5.85059C13.3256 6.14282 13.4032 6.47668 13.4255 6.9657C13.4479 7.45557 13.4531 7.61206 13.4531 8.85962C13.4531 10.1072 13.4479 10.2637 13.4254 10.7535Z" fill="#62897D"/>
</g>
<defs>
<clipPath id="clip0">
<rect width="16" height="16" fill="white" transform="translate(0.859375 0.859619)"/>
</clipPath>
</defs>
</svg>
