<svg width="17" height="17" viewBox="0 0 17 17" fill="none" xmlns="http://www.w3.org/2000/svg">
    <g clip-path="url(#clip0)">
        <path d="M8.71484 0.859619C4.29724 0.859619 0.714844 4.44202 0.714844 8.85962C0.714844 13.2772 4.29724 16.8596 8.71484 16.8596C13.1324 16.8596 16.7148 13.2772 16.7148 8.85962C16.7148 4.44202 13.1324 0.859619 8.71484 0.859619ZM6.39014 12.9534H4.44177V7.09167H6.39014V12.9534ZM5.41602 6.29126H5.40332C4.74951 6.29126 4.32666 5.84119 4.32666 5.27869C4.32666 4.70349 4.76245 4.26587 5.42896 4.26587C6.09546 4.26587 6.50562 4.70349 6.51831 5.27869C6.51831 5.84119 6.09546 6.29126 5.41602 6.29126ZM13.4155 12.9534H11.4674V9.8175C11.4674 9.02942 11.1853 8.49194 10.4803 8.49194C9.94214 8.49194 9.62158 8.85449 9.48071 9.20447C9.4292 9.32971 9.41663 9.50476 9.41663 9.67993V12.9534H7.46838C7.46838 12.9534 7.4939 7.6416 7.46838 7.09167H9.41663V7.92163C9.67554 7.52222 10.1388 6.9541 11.1725 6.9541C12.4543 6.9541 13.4155 7.79187 13.4155 9.59229V12.9534Z"
              fill="#62897D"/>
    </g>
    <defs>
        <clipPath id="clip0">
            <rect width="16" height="16" fill="white" transform="translate(0.714844 0.859619)"/>
        </clipPath>
    </defs>
</svg>
