<svg width="41" height="24" viewBox="0 0 41 24" fill="none" xmlns="http://www.w3.org/2000/svg">
    <g clip-path="url(#clip0)">
        <path fill-rule="evenodd" clip-rule="evenodd"
              d="M13.9002 17.6153C13.8481 17.563 13.7863 17.5224 13.7147 17.4935C13.6432 17.4646 13.5648 17.45 13.4797 17.45C13.4346 17.45 13.3879 17.4539 13.3393 17.4617C13.2907 17.4693 13.2433 17.4832 13.1966 17.5027C13.1501 17.5224 13.1057 17.5495 13.0637 17.5843C13.0218 17.6189 12.9851 17.6627 12.9541 17.7154C12.904 17.6326 12.8361 17.5677 12.7506 17.5206C12.665 17.4737 12.5671 17.45 12.457 17.45C12.42 17.45 12.3817 17.4534 12.3421 17.4601C12.3025 17.4668 12.2632 17.4784 12.2242 17.4949C12.1852 17.5115 12.1479 17.534 12.1123 17.5624C12.0767 17.5909 12.0445 17.6268 12.0155 17.6703V17.4888H11.7031V18.975H12.0184V18.1512C12.0184 18.0881 12.0284 18.0321 12.0484 17.9828C12.0684 17.9336 12.0953 17.8926 12.1288 17.8596C12.1624 17.8263 12.2016 17.8013 12.2467 17.7843C12.2918 17.7673 12.3398 17.7587 12.3908 17.7587C12.4969 17.7587 12.5793 17.7922 12.6378 17.8596C12.6963 17.9268 12.7256 18.023 12.7256 18.1481V18.975H13.0409V18.1512C13.0409 18.0881 13.0509 18.0321 13.071 17.9828C13.091 17.9336 13.1177 17.8926 13.1513 17.8596C13.1848 17.8263 13.2241 17.8013 13.2691 17.7843C13.3142 17.7673 13.3622 17.7587 13.4133 17.7587C13.5193 17.7587 13.6017 17.7922 13.6603 17.8596C13.7189 17.9268 13.7481 18.023 13.7481 18.1481V18.975H14.0635V18.041C14.0635 17.9541 14.0491 17.8745 14.0207 17.8021C13.9922 17.7297 13.9518 17.6674 13.8998 17.6151L13.9002 17.6153ZM28.7055 18.8747V18.8993H28.7338C28.7396 18.8993 28.7442 18.8984 28.7472 18.8966C28.7504 18.8948 28.7519 18.8917 28.7519 18.8872C28.7519 18.8828 28.7504 18.8796 28.7472 18.8777C28.7441 18.8756 28.7396 18.8747 28.7338 18.8747H28.7055ZM28.7346 18.8419C28.753 18.8419 28.767 18.846 28.7765 18.8542C28.7861 18.8624 28.7909 18.8732 28.7909 18.8871C28.7909 18.8978 28.7875 18.9068 28.7806 18.9139C28.7738 18.9209 28.7637 18.9257 28.7507 18.9277L28.7926 18.9761H28.7473L28.71 18.9292H28.7056V18.9761H28.6679V18.8417H28.7347L28.7346 18.8419ZM28.7258 19.0188C28.7408 19.0188 28.7551 19.0159 28.7683 19.0101C28.7815 19.0043 28.7932 18.9965 28.8029 18.9867C28.8127 18.9768 28.8204 18.9651 28.8262 18.9519C28.8318 18.9386 28.8345 18.9244 28.8345 18.9089C28.8345 18.8938 28.8318 18.8796 28.8262 18.8662C28.8205 18.8528 28.8128 18.8413 28.8029 18.8315C28.7933 18.8217 28.7816 18.8139 28.7683 18.8082C28.7551 18.8026 28.7408 18.7997 28.7258 18.7997C28.7102 18.7997 28.6958 18.8026 28.6825 18.8082C28.6691 18.814 28.6574 18.8217 28.6475 18.8315C28.6377 18.8413 28.6298 18.8528 28.6242 18.8662C28.6187 18.8796 28.6158 18.8938 28.6158 18.9089C28.6158 18.9242 28.6185 18.9386 28.6242 18.9519C28.6298 18.9651 28.6376 18.9768 28.6475 18.9867C28.6574 18.9965 28.6691 19.0043 28.6825 19.0101C28.6958 19.0159 28.7102 19.0188 28.7258 19.0188ZM28.7258 18.7576C28.7473 18.7576 28.7676 18.7616 28.7865 18.7696C28.8055 18.7775 28.822 18.7884 28.836 18.8021C28.8501 18.8158 28.8612 18.8317 28.8693 18.8501C28.8775 18.8685 28.8814 18.8881 28.8814 18.909C28.8814 18.9298 28.8775 18.9494 28.8693 18.9678C28.8612 18.9861 28.8502 19.0024 28.836 19.0161C28.822 19.0301 28.8055 19.041 28.7865 19.0489C28.7676 19.057 28.7473 19.061 28.7258 19.061C28.7037 19.061 28.6831 19.057 28.664 19.0489C28.6448 19.041 28.6283 19.0301 28.6142 19.0161C28.6002 19.0024 28.5891 18.9862 28.5812 18.9678C28.5732 18.9494 28.5691 18.9297 28.5691 18.909C28.5691 18.8881 28.5731 18.8686 28.5812 18.8501C28.5891 18.8317 28.6002 18.8157 28.6142 18.8021C28.6283 18.7884 28.6448 18.7775 28.664 18.7696C28.6831 18.7616 28.7037 18.7576 28.7258 18.7576ZM22.4721 17.8884C22.5134 17.8466 22.5626 17.8139 22.6195 17.7906C22.6764 17.7673 22.7379 17.7556 22.8041 17.7556C22.8771 17.7556 22.9446 17.7672 23.0072 17.7906C23.0677 17.813 23.1202 17.8445 23.1647 17.8844L23.3208 17.6248C23.2623 17.578 23.1963 17.5396 23.123 17.5099C23.0252 17.4701 22.919 17.4502 22.8041 17.4502C22.6893 17.4502 22.5831 17.4701 22.4853 17.5099C22.3874 17.5497 22.3033 17.6045 22.2324 17.6744C22.1616 17.7441 22.106 17.8267 22.0657 17.9218C22.0253 18.017 22.005 18.1203 22.005 18.232C22.005 18.3438 22.0252 18.4472 22.0657 18.5424C22.106 18.6376 22.1616 18.7199 22.2324 18.7899C22.3031 18.8597 22.3874 18.9145 22.4853 18.9544C22.5831 18.9942 22.6893 19.0141 22.8041 19.0141C22.919 19.0141 23.0252 18.9942 23.123 18.9544C23.1963 18.9245 23.2623 18.8862 23.3208 18.8393L23.1647 18.5797C23.1202 18.6196 23.0677 18.651 23.0072 18.6735C22.9446 18.6968 22.877 18.7085 22.8041 18.7085C22.738 18.7085 22.6764 18.6969 22.6195 18.6735C22.5626 18.6502 22.5134 18.6177 22.4721 18.5758C22.4307 18.534 22.3982 18.4838 22.3744 18.4254C22.3507 18.3668 22.3388 18.3026 22.3388 18.2321C22.3388 18.1618 22.3507 18.0974 22.3744 18.039C22.3982 17.9804 22.4309 17.9304 22.4722 17.8885L22.4721 17.8884ZM27.706 18.4213C27.6843 18.4794 27.6536 18.5295 27.6143 18.5718C27.575 18.6143 27.528 18.6476 27.4732 18.6718C27.4185 18.6962 27.3573 18.7084 27.2903 18.7084C27.2198 18.7084 27.157 18.6957 27.1018 18.6704C27.0464 18.6451 26.9996 18.6109 26.9613 18.568C26.923 18.5251 26.8936 18.4746 26.8729 18.4168C26.8521 18.3588 26.8419 18.2974 26.8419 18.2321C26.8419 18.167 26.8523 18.1055 26.8729 18.0475C26.8936 17.9896 26.923 17.9392 26.9613 17.8963C26.9996 17.8533 27.0464 17.8192 27.1018 17.7939C27.157 17.7684 27.22 17.7558 27.2903 17.7558C27.3573 17.7558 27.4185 17.7679 27.4732 17.7923C27.5281 17.8165 27.5751 17.8499 27.6143 17.8924C27.6536 17.9348 27.6841 17.9849 27.706 18.0429C27.7277 18.1008 27.7384 18.1637 27.7384 18.2321C27.7384 18.3005 27.7276 18.3636 27.706 18.4215V18.4213ZM27.7184 16.8848V17.6689C27.6665 17.6028 27.6025 17.5497 27.5259 17.51C27.4493 17.4701 27.3578 17.4502 27.2513 17.4502C27.1468 17.4502 27.0496 17.4695 26.9596 17.5083C26.8696 17.5471 26.791 17.6012 26.7237 17.6704C26.6564 17.7396 26.6037 17.8221 26.5655 17.9178C26.527 18.0135 26.5079 18.1182 26.5079 18.232C26.5079 18.3458 26.527 18.4505 26.5655 18.5462C26.6037 18.6419 26.6564 18.7244 26.7237 18.7938C26.7909 18.863 26.8695 18.917 26.9596 18.9558C27.0496 18.9947 27.1468 19.014 27.2513 19.014C27.3577 19.014 27.4493 18.9943 27.5259 18.955C27.6024 18.9158 27.6665 18.863 27.7184 18.7969V18.9753H28.0426V16.8848H27.7184ZM26.2038 17.4502C26.1126 17.4502 26.0305 17.4667 25.957 17.4997C25.8836 17.5329 25.8221 17.6125 25.7725 17.6839V17.489H25.478V18.9753H25.7757V18.1576C25.7757 18.0945 25.7844 18.0381 25.8021 17.9885C25.8197 17.9388 25.8439 17.897 25.8749 17.8629C25.9059 17.8287 25.9433 17.8028 25.9867 17.7852C26.0303 17.7676 26.0778 17.7588 26.1294 17.7588C26.1688 17.7588 26.2112 17.7635 26.2566 17.7729C26.2799 17.7776 26.3015 17.7834 26.3217 17.7903L26.4176 17.4801C26.3916 17.4717 26.3653 17.4648 26.3381 17.4602C26.2982 17.4534 26.2535 17.4502 26.2039 17.4502H26.2038ZM21.6959 17.4502C21.605 17.4502 21.5228 17.4667 21.4493 17.4997C21.3759 17.5329 21.3144 17.6125 21.2647 17.6839V17.489H20.9703V18.9753H21.2678V18.1576C21.2678 18.0945 21.2766 18.0381 21.2942 17.9885C21.3118 17.9388 21.3361 17.897 21.3672 17.8629C21.3983 17.8287 21.4354 17.8028 21.479 17.7852C21.5223 17.7676 21.5699 17.7588 21.6216 17.7588C21.6611 17.7588 21.7034 17.7635 21.749 17.7729C21.7722 17.7776 21.7939 17.7834 21.8141 17.7903L21.91 17.4801C21.8839 17.4717 21.8575 17.4648 21.8304 17.4602C21.7906 17.4534 21.7459 17.4502 21.6962 17.4502H21.6959ZM18.7684 18.6789C18.7162 18.6986 18.6647 18.7084 18.614 18.7084C18.5809 18.7084 18.5501 18.7032 18.5217 18.6928C18.4932 18.6826 18.4685 18.6663 18.4471 18.644C18.4259 18.6218 18.4091 18.5931 18.3967 18.5579C18.3842 18.5228 18.378 18.4802 18.378 18.4306V17.7836H18.8989V17.4889H18.378V17.0389H18.0523V17.4889H17.756V17.7836H18.0523V18.4368C18.0523 18.6344 18.099 18.7799 18.1925 18.8736C18.2862 18.9672 18.4173 19.014 18.5859 19.014C18.6801 19.014 18.7645 18.9995 18.8396 18.9705C18.8891 18.9514 18.9351 18.9294 18.9781 18.9053L18.8673 18.6338C18.8359 18.6506 18.803 18.6657 18.7683 18.6788L18.7684 18.6789ZM24.7098 18.4213C24.6881 18.4794 24.6576 18.5295 24.6183 18.5718C24.579 18.6143 24.5319 18.6476 24.4771 18.6718C24.4223 18.6962 24.3613 18.7084 24.294 18.7084C24.2237 18.7084 24.1609 18.6957 24.1055 18.6704C24.0501 18.6451 24.0033 18.6109 23.9651 18.568C23.9268 18.5251 23.8973 18.4746 23.8767 18.4168C23.856 18.3588 23.8457 18.2974 23.8457 18.2321C23.8457 18.167 23.8561 18.1055 23.8767 18.0475C23.8975 17.9896 23.9269 17.9392 23.9651 17.8963C24.0033 17.8533 24.0501 17.8192 24.1055 17.7939C24.1609 17.7684 24.2237 17.7558 24.294 17.7558C24.3613 17.7558 24.4224 17.7679 24.4771 17.7923C24.5319 17.8165 24.579 17.8499 24.6183 17.8924C24.6576 17.9348 24.6881 17.9849 24.7098 18.0429C24.7315 18.1008 24.7424 18.1637 24.7424 18.2321C24.7424 18.3005 24.7315 18.3636 24.7098 18.4215V18.4213ZM24.7221 17.6689C24.6704 17.6028 24.6063 17.5497 24.5298 17.51C24.4533 17.4701 24.3616 17.4502 24.2552 17.4502C24.1507 17.4502 24.0534 17.4695 23.9634 17.5083C23.8735 17.5471 23.7948 17.6012 23.7277 17.6704C23.6604 17.7396 23.6075 17.8221 23.5693 17.9178C23.531 18.0135 23.5119 18.1182 23.5119 18.232C23.5119 18.3458 23.531 18.4505 23.5693 18.5462C23.6075 18.6419 23.6604 18.7244 23.7277 18.7938C23.7948 18.863 23.8735 18.917 23.9634 18.9558C24.0534 18.9947 24.1507 19.014 24.2552 19.014C24.3616 19.014 24.4533 18.9943 24.5298 18.955C24.6063 18.9158 24.6704 18.863 24.7221 18.7969V18.9753H25.0464V17.489H24.7221V17.6689ZM19.5071 18.1049C19.5154 18.0512 19.5299 18.0017 19.5506 17.9568C19.5713 17.9118 19.598 17.8731 19.6304 17.8404C19.6631 17.8079 19.7018 17.7828 19.7468 17.7652C19.7919 17.7476 19.8433 17.7388 19.9012 17.7388C20.0045 17.7388 20.089 17.7708 20.1541 17.835C20.2193 17.8992 20.2606 17.9891 20.2782 18.1049H19.5071ZM20.414 17.6666C20.3523 17.5979 20.2784 17.5446 20.1922 17.5068C20.1057 17.4691 20.0109 17.4502 19.9076 17.4502C19.7978 17.4502 19.6977 17.469 19.6072 17.5068C19.5166 17.5446 19.4388 17.5978 19.3737 17.6666C19.3084 17.7354 19.2579 17.8179 19.2216 17.9141C19.1854 18.0103 19.1673 18.1163 19.1673 18.2321C19.1673 18.3501 19.186 18.457 19.2232 18.5533C19.2604 18.6495 19.3125 18.7316 19.3798 18.7999C19.4471 18.8682 19.5273 18.921 19.6204 18.9581C19.7134 18.9954 19.8159 19.0141 19.9276 19.0141C20.0404 19.0141 20.1477 18.9985 20.2496 18.9675C20.3515 18.9365 20.4479 18.8821 20.539 18.8046L20.3778 18.5734C20.3157 18.623 20.2471 18.6616 20.172 18.689C20.097 18.7164 20.0223 18.7301 19.9479 18.7301C19.895 18.7301 19.8444 18.723 19.7958 18.7084C19.7472 18.6939 19.7032 18.6715 19.6638 18.641C19.6245 18.6104 19.5909 18.5714 19.5629 18.5237C19.535 18.4762 19.5159 18.4188 19.5055 18.3515H20.604C20.6061 18.3329 20.6077 18.3133 20.6087 18.2925C20.6097 18.2719 20.6103 18.2512 20.6103 18.2304C20.6103 18.1147 20.5929 18.0089 20.5583 17.9131C20.5238 17.8175 20.4757 17.7353 20.4141 17.6664L20.414 17.6666ZM17.3779 18.2298C17.2867 18.159 17.1601 18.1118 16.9978 18.088L16.8441 18.0646C16.8099 18.0594 16.7778 18.0535 16.7479 18.0468C16.718 18.04 16.6921 18.031 16.6703 18.0196C16.6488 18.0083 16.6313 17.9937 16.6184 17.9762C16.6055 17.9586 16.5991 17.9369 16.5991 17.911C16.5991 17.8581 16.6237 17.8155 16.6728 17.7829C16.7218 17.7503 16.7909 17.7342 16.8798 17.7342C16.9264 17.7342 16.9722 17.7382 17.0172 17.7466C17.0622 17.7549 17.1047 17.7652 17.1451 17.7775C17.1854 17.7899 17.2222 17.8036 17.2554 17.8187C17.2884 17.8337 17.3164 17.848 17.3392 17.8613L17.4787 17.6085C17.4012 17.5588 17.3107 17.5204 17.2073 17.4929C17.1039 17.4655 16.9937 17.4517 16.8767 17.4517C16.7815 17.4517 16.6963 17.4629 16.6207 17.4851C16.5453 17.5073 16.4809 17.5389 16.4276 17.5797C16.3743 17.6207 16.3334 17.6705 16.3049 17.7295C16.2763 17.7886 16.2624 17.8546 16.2624 17.9281C16.2624 18.0481 16.3049 18.1451 16.3902 18.2191C16.4756 18.293 16.6011 18.3414 16.7665 18.3641L16.9217 18.3843C17.0107 18.3966 17.0758 18.4166 17.1173 18.444C17.1586 18.4714 17.1793 18.5062 17.1793 18.5488C17.1793 18.6045 17.1508 18.6488 17.0939 18.6814C17.037 18.7139 16.9528 18.7302 16.841 18.7302C16.78 18.7302 16.7255 18.7261 16.6773 18.7178C16.6293 18.7095 16.5852 18.6985 16.5455 18.6845C16.5056 18.6705 16.4699 18.6546 16.4383 18.6365C16.4068 18.6184 16.3775 18.599 16.3508 18.5784L16.2003 18.8219C16.254 18.8621 16.3105 18.8948 16.3693 18.9197C16.4284 18.9444 16.4862 18.9638 16.5431 18.9777C16.6 18.9918 16.6538 19.0009 16.7045 19.0055C16.7551 19.0102 16.7996 19.0126 16.8379 19.0126C16.9443 19.0126 17.0399 19.0008 17.1242 18.9769C17.2086 18.9531 17.2794 18.9198 17.3368 18.8767C17.3943 18.8338 17.4381 18.7827 17.4687 18.7232C17.4993 18.6637 17.5144 18.5984 17.5144 18.527C17.5144 18.3998 17.4691 18.3007 17.378 18.2298H17.3779ZM15.5506 18.4215C15.5289 18.4795 15.4984 18.5296 15.4591 18.572C15.4197 18.6144 15.3727 18.6477 15.318 18.6719C15.2631 18.6963 15.2021 18.7085 15.1349 18.7085C15.0646 18.7085 15.0016 18.6958 14.9464 18.6705C14.891 18.6452 14.8442 18.611 14.806 18.5681C14.7677 18.5252 14.7382 18.4748 14.7176 18.4169C14.6969 18.3589 14.6866 18.2975 14.6866 18.2322C14.6866 18.1671 14.697 18.1056 14.7176 18.0476C14.7384 17.9897 14.7678 17.9393 14.806 17.8964C14.8442 17.8534 14.8912 17.8193 14.9464 17.794C15.0017 17.7685 15.0646 17.7559 15.1349 17.7559C15.2021 17.7559 15.2631 17.7681 15.318 17.7924C15.3727 17.8167 15.4197 17.8501 15.4591 17.8925C15.4984 17.935 15.5289 17.985 15.5506 18.043C15.5723 18.1009 15.5831 18.1639 15.5831 18.2322C15.5831 18.3006 15.5723 18.3637 15.5506 18.4216V18.4215ZM15.563 17.669C15.5113 17.603 15.4471 17.5498 15.3705 17.5101C15.294 17.4702 15.2024 17.4503 15.0959 17.4503C14.9915 17.4503 14.8943 17.4696 14.8042 17.5084C14.7142 17.5472 14.6356 17.6013 14.5684 17.6705C14.5011 17.7397 14.4484 17.8222 14.4101 17.918C14.3719 18.0136 14.3527 18.1183 14.3527 18.2321C14.3527 18.346 14.3719 18.4506 14.4101 18.5463C14.4484 18.642 14.5011 18.7245 14.5684 18.7939C14.6356 18.8631 14.7142 18.9171 14.8042 18.956C14.8943 18.9948 14.9915 19.0141 15.0959 19.0141C15.2024 19.0141 15.2941 18.9944 15.3705 18.9551C15.4471 18.9159 15.5113 18.8631 15.563 18.797V18.9754H15.8873V17.4891H15.563V17.669Z"
              fill="#141515"/>
        <path fill-rule="evenodd" clip-rule="evenodd"
              d="M17.7353 10.5409C17.7353 8.76017 18.5672 7.1749 19.8626 6.14872C18.9074 5.39209 17.7008 4.93912 16.3876 4.93912C13.2935 4.93912 10.7852 7.44721 10.7852 10.5408C10.7852 13.6345 13.2934 16.1425 16.3876 16.1425C17.7008 16.1425 18.9074 15.6897 19.8626 14.933C18.5672 13.907 17.7353 12.3216 17.7353 10.5408V10.5409Z"
              fill="#DE2C1D"/>
        <path fill-rule="evenodd" clip-rule="evenodd"
              d="M17.7354 10.5407C17.7354 12.3213 18.5672 13.9063 19.8625 14.9322C21.1577 13.9063 21.9895 12.3212 21.9895 10.5407C21.9895 8.76023 21.1576 7.17521 19.8625 6.1492C18.5672 7.17509 17.7354 8.76023 17.7354 10.5407Z"
              fill="#ED6100"/>
        <path fill-rule="evenodd" clip-rule="evenodd"
              d="M23.3367 4.93912C22.0239 4.93912 20.8176 5.39209 19.8628 6.14872C21.1578 7.17478 21.9894 8.76017 21.9894 10.5409C21.9894 12.3218 21.1576 13.9071 19.8628 14.9331C20.8176 15.6898 22.0239 16.1426 23.3367 16.1426C26.4298 16.1426 28.9373 13.6347 28.9373 10.5409C28.9373 7.44721 26.4298 4.93924 23.3367 4.93924V4.93912ZM29.331 13.7742V13.5364L29.2538 13.7416H29.1687L29.0915 13.5368V13.7742H29.0112V13.4313H29.1262L29.2115 13.6508L29.2959 13.4313H29.4111V13.7742H29.3307H29.331ZM28.7552 13.7742V13.5053H28.6463V13.4313H28.9442V13.5053H28.8354V13.7742H28.7551H28.7552Z"
              fill="#F79F06"/>
        <path d="M3.78356 0H36.4176C37.4585 0 38.4044 0.425472 39.0896 1.11071C39.775 1.79608 40.2004 2.74193 40.2004 3.7827V20.2173C40.2004 21.2579 39.7749 22.2038 39.0896 22.8892C38.4042 23.5744 37.4584 24 36.4177 24H3.78368C2.74303 24 1.79706 23.5745 1.11169 22.8892C0.426449 22.2039 0.000976562 21.2582 0.000976562 20.2173V3.7827C0.000976562 2.74181 0.426449 1.79596 1.11169 1.11071C1.79694 0.425472 2.74291 0 3.7838 0H3.78356ZM36.4176 1.30379H3.78356C3.10254 1.30379 2.4829 1.58298 2.03331 2.03257C1.58372 2.48216 1.30453 3.1018 1.30453 3.78282V20.2174C1.30453 20.8983 1.58372 21.518 2.03331 21.9675C2.48302 22.4173 3.10266 22.6964 3.78356 22.6964H36.4176C37.0984 22.6964 37.718 22.4173 38.1678 21.9675C38.6173 21.5178 38.8967 20.8982 38.8967 20.2175V3.78294C38.8967 3.10216 38.6175 2.48241 38.1679 2.03269C37.7183 1.5831 37.0985 1.30391 36.4176 1.30391V1.30379Z"
              fill="#808080"/>
    </g>
    <defs>
        <clipPath id="clip0">
            <rect width="40.1996" height="24" fill="white"/>
        </clipPath>
    </defs>
</svg>
