<svg width="41" height="24" viewBox="0 0 41 24" fill="none" xmlns="http://www.w3.org/2000/svg">
    <g clip-path="url(#clip0)">
        <path fill-rule="evenodd" clip-rule="evenodd"
              d="M24.2768 6.61327C23.6893 5.94419 22.627 5.65692 21.269 5.65692H17.327C17.0493 5.65692 16.8115 5.85748 16.7695 6.13281L15.1268 16.5432C15.0944 16.7486 15.253 16.9349 15.4615 16.9349H17.897L18.5092 13.0573L18.4895 13.1786C18.5314 12.9035 18.7669 12.7027 19.0444 12.7027L20.2009 12.7032C22.4733 12.7032 24.2515 11.7819 24.7725 9.11101C24.7874 9.03165 24.8018 8.95483 24.812 8.88018C24.9657 7.89404 24.812 7.22025 24.2768 6.61364V6.6134V6.61327Z"
              fill="#003087"/>
        <path fill-rule="evenodd" clip-rule="evenodd"
              d="M25.5036 9.48029C24.9114 12.1093 23.083 13.4967 20.2013 13.4967L19.2428 13.4965L18.5761 17.7284L17.7728 17.7289L17.7309 18.0013C17.7038 18.182 17.8426 18.3431 18.0234 18.3431H20.0754C20.3179 18.3431 20.5242 18.1671 20.5638 17.9269L20.5835 17.8231L20.9705 15.3724L20.9951 15.2385C21.0321 14.9983 21.2401 14.8222 21.4835 14.8222L21.7878 14.8221C23.7744 14.8221 25.3307 14.0143 25.7868 11.6802C25.9582 10.793 25.8931 10.0401 25.5045 9.48029H25.5038H25.5036Z"
              fill="#009CDE"/>
        <path d="M4.183 0H36.8173C37.8582 0 38.804 0.425472 39.4893 1.11071C40.1746 1.79608 40.6001 2.74193 40.6001 3.7827V20.2173C40.6001 21.2579 40.1745 22.2038 39.4893 22.8892C38.8039 23.5744 37.858 24 36.8174 24H4.18312C3.14247 24 2.19648 23.5745 1.51111 22.8892C0.825866 22.2039 0.400391 21.2582 0.400391 20.2173V3.7827C0.400391 2.74181 0.825866 1.79596 1.51111 1.11071C2.19636 0.425472 3.14234 0 4.18324 0H4.183ZM36.8173 1.30379H4.183C3.50197 1.30379 2.88233 1.58298 2.43274 2.03257C1.98314 2.48216 1.70395 3.1018 1.70395 3.78282V20.2174C1.70395 20.8983 1.98314 21.518 2.43274 21.9675C2.88245 22.4173 3.50209 22.6964 4.183 22.6964H36.8173C37.4981 22.6964 38.1177 22.4173 38.5674 21.9675C39.017 21.5178 39.2963 20.8982 39.2963 20.2175V3.78294C39.2963 3.10216 39.0171 2.48241 38.5675 2.03269C38.1179 1.5831 37.4982 1.30391 36.8173 1.30391V1.30379Z"
              fill="#808080"/>
    </g>
    <defs>
        <clipPath id="clip0">
            <rect width="40.1996" height="24" fill="white" transform="translate(0.399414)"/>
        </clipPath>
    </defs>
</svg>
