<svg width="12" height="16" viewBox="0 0 12 16" fill="none" xmlns="http://www.w3.org/2000/svg">
<path d="M1.86751 0.467432L3.1595 0.0782877C4.04164 -0.187412 4.98415 0.241984 5.36192 1.08169L6.26763 3.09487C6.58963 3.8106 6.41994 4.65175 5.84559 5.18693L4.46687 6.47162C4.28166 6.64663 4.42156 7.32978 5.09714 8.49903C5.77272 9.66828 6.29484 10.1309 6.53577 10.0592L8.3422 9.50729C9.093 9.27792 9.90664 9.55144 10.366 10.1876L11.6532 11.9702C12.1909 12.7148 12.0942 13.7421 11.427 14.3735L10.4318 15.3153C9.77768 15.9342 8.84104 16.154 7.97964 15.8905C5.89463 15.2527 3.96353 13.3596 2.16035 10.2388C0.353975 7.11239 -0.328979 4.47603 0.146848 2.32184C0.342066 1.43798 1.00024 0.728653 1.86751 0.467432Z" fill="#62897D"/>
</svg>
