<svg width="16" height="17" viewBox="0 0 16 17" fill="none" xmlns="http://www.w3.org/2000/svg">
    <g clip-path="url(#clip0)">
        <path d="M8.88879 8.28965L7.7887 8.04551C7.37024 7.95017 6.88855 7.8242 6.88855 7.42966C6.88855 7.03428 7.22644 6.75803 7.83643 6.75803C9.0658 6.75803 8.95349 7.60288 9.56384 7.60288C9.88501 7.60288 10.1661 7.41404 10.1661 7.08933C10.1661 6.33164 8.95349 5.76304 7.9248 5.76304C6.80811 5.76304 5.6189 6.23728 5.6189 7.50034C5.6189 8.10862 5.83618 8.75571 7.0332 9.05589L8.51953 9.42698C8.96936 9.53782 9.08191 9.79087 9.08191 10.0191C9.08191 10.3988 8.70483 10.7696 8.02173 10.7696C6.68738 10.7696 6.87256 9.74278 6.15747 9.74278C5.83618 9.74278 5.60303 9.96409 5.60303 10.2799C5.60303 10.8956 6.35059 11.7173 8.02173 11.7173C9.61169 11.7173 10.3995 10.9509 10.3995 9.92454C10.3995 9.26182 10.094 8.5582 8.88879 8.28965Z"
              fill="#62897D"/>
        <path d="M8 0.859619C3.5824 0.859619 0 4.44202 0 8.85962C0 13.2772 3.5824 16.8596 8 16.8596C12.4176 16.8596 16 13.2772 16 8.85962C16 4.44202 12.4176 0.859619 8 0.859619ZM12.1652 13.0129C11.6392 13.5392 10.9402 13.8284 10.1965 13.8284C9.71484 13.8284 9.24316 13.7031 8.82654 13.4674C8.55615 13.5154 8.27917 13.5406 8.00281 13.5406C7.3678 13.5406 6.75159 13.4161 6.17188 13.1704C5.61133 12.9341 5.10852 12.5946 4.67627 12.1626C4.24451 11.7307 3.9054 11.2279 3.6687 10.6676C3.4231 10.0875 3.29883 9.47168 3.29883 8.83655C3.29883 8.56458 3.32324 8.29224 3.36963 8.02576C3.14099 7.6145 3.01929 7.14917 3.01929 6.67566C3.01929 5.93188 3.30908 5.23254 3.83484 4.70667C4.36084 4.18054 5.06018 3.89087 5.80396 3.89087C6.25952 3.89087 6.70972 4.00452 7.10986 4.21729C7.1106 4.21716 7.11145 4.21716 7.11206 4.21692C7.40381 4.16101 7.70349 4.13281 8.00281 4.13281C8.6377 4.13281 9.25378 4.2572 9.8335 4.50244C10.3934 4.73938 10.8969 5.07849 11.3285 5.51038C11.7607 5.94238 12.0997 6.44543 12.3367 7.00562C12.5823 7.58557 12.7065 8.20154 12.7065 8.83655C12.7065 9.1228 12.6796 9.4093 12.6282 9.68921C12.8584 10.1021 12.9808 10.569 12.9808 11.0441C12.9807 11.7878 12.6913 12.4873 12.1652 13.0129Z"
              fill="#62897D"/>
    </g>
    <defs>
        <clipPath id="clip0">
            <rect width="16" height="16" fill="white" transform="translate(0 0.859619)"/>
        </clipPath>
    </defs>
</svg>
