<svg width="41" height="24" viewBox="0 0 41 24" fill="none" xmlns="http://www.w3.org/2000/svg">
    <g clip-path="url(#clip0)">
        <path d="M3.98424 0H36.6184C37.6593 0 38.6051 0.425472 39.2904 1.11071C39.9757 1.79608 40.4012 2.74193 40.4012 3.7827V20.2173C40.4012 21.2579 39.9756 22.2038 39.2904 22.8892C38.605 23.5744 37.6592 24 36.6185 24H3.98436C2.94371 24 1.99774 23.5745 1.31237 22.8892C0.627133 22.2039 0.20166 21.2582 0.20166 20.2173V3.7827C0.20166 2.74181 0.627133 1.79596 1.31237 1.11071C1.99762 0.425472 2.94359 0 3.98448 0H3.98424ZM36.6184 1.30379H3.98424C3.30322 1.30379 2.68358 1.58298 2.23399 2.03257C1.7844 2.48216 1.50521 3.1018 1.50521 3.78282V20.2174C1.50521 20.8983 1.7844 21.518 2.23399 21.9675C2.6837 22.4173 3.30334 22.6964 3.98424 22.6964H36.6184C37.2992 22.6964 37.9188 22.4173 38.3685 21.9675C38.8181 21.5178 39.0974 20.8982 39.0974 20.2175V3.78294C39.0974 3.10216 38.8182 2.48241 38.3686 2.03269C37.919 1.5831 37.2993 1.30391 36.6184 1.30391V1.30379Z"
              fill="#808080"/>
        <path fill-rule="evenodd" clip-rule="evenodd"
              d="M16.677 15.6513L17.9184 8.3669H19.9038L18.6617 15.6513H16.677ZM25.8629 8.54647C25.4695 8.39861 24.8531 8.24051 24.0833 8.24051C22.1215 8.24027 20.7393 9.22845 20.7278 10.6444C20.7167 11.6907 21.7144 12.2749 22.4675 12.6234C23.2403 12.9802 23.5002 13.2081 23.4965 13.527C23.4915 14.015 22.8792 14.2382 22.3086 14.2382C21.5139 14.2382 21.0917 14.1279 20.4396 13.8559L20.1837 13.7399L19.905 15.3707C20.3689 15.5741 21.2263 15.7503 22.1167 15.7595C24.2038 15.7594 25.5587 14.7829 25.5741 13.2708C25.5816 12.442 25.0527 11.8116 23.9072 11.2917C23.2132 10.9545 22.7881 10.7299 22.7926 10.3886C22.7926 10.0858 23.1524 9.7621 23.9297 9.7621C24.5791 9.75185 25.0492 9.89356 25.4157 10.0412L25.5937 10.1251L25.8627 8.54659L25.8629 8.54647ZM30.9543 8.37377H29.42C28.9448 8.37377 28.589 8.50378 28.3802 8.97809L25.4316 15.6535H27.5165C27.5165 15.6535 27.8574 14.7561 27.9346 14.559C28.1625 14.559 30.1879 14.5622 30.4774 14.5622C30.5369 14.8171 30.719 15.6536 30.719 15.6536L32.5615 15.6535L30.9544 8.37377H30.9543ZM28.5059 13.069C28.6702 12.6494 29.2969 11.033 29.2969 11.033C29.2853 11.0523 29.4598 10.6112 29.5602 10.3377L29.6945 10.9656C29.6945 10.9656 30.0745 12.7046 30.154 13.0692L28.5058 13.069H28.5059ZM15.0117 8.3722L13.0679 13.3397L12.8607 12.3303C12.4989 11.1665 11.3713 9.90586 10.1108 9.27464L11.8883 15.645L13.9891 15.6425L17.1149 8.3722H15.0117Z"
              fill="#191E70"/>
        <path fill-rule="evenodd" clip-rule="evenodd"
              d="M11.2646 8.36786H8.06292L8.0376 8.51945C10.5284 9.1222 12.1765 10.5795 12.8607 12.3303L12.1645 8.98291C12.0444 8.52162 11.6957 8.38402 11.2646 8.36786Z"
              fill="#F7B600"/>
        <g clip-path="url(#clip1)">
            <path d="M4.0067 -0.00335693H36.6408C37.6817 -0.00335693 38.6276 0.422116 39.3128 1.10736C39.9982 1.79272 40.4237 2.73858 40.4237 3.77935V20.214C40.4237 21.2546 39.9981 22.2005 39.3128 22.8858C38.6275 23.5711 37.6816 23.9967 36.641 23.9967H4.00682C2.96618 23.9967 2.0202 23.5712 1.33484 22.8858C0.649594 22.2006 0.224121 21.2548 0.224121 20.214V3.77935C0.224121 2.73846 0.649594 1.7926 1.33484 1.10736C2.02008 0.422116 2.96605 -0.00335693 4.00694 -0.00335693H4.0067ZM36.6408 1.30044H4.0067C3.32568 1.30044 2.70604 1.57962 2.25645 2.02922C1.80686 2.47881 1.52767 3.09844 1.52767 3.77947V20.2141C1.52767 20.895 1.80686 21.5146 2.25645 21.9642C2.70616 22.4139 3.3258 22.6931 4.0067 22.6931H36.6408C37.3216 22.6931 37.9413 22.4139 38.391 21.9642C38.8406 21.5145 39.1199 20.8949 39.1199 20.2142V3.77959C39.1199 3.09881 38.8407 2.47905 38.3911 2.02934C37.9415 1.57974 37.3217 1.30056 36.6408 1.30056V1.30044Z"
                  fill="#808080"/>
            <path fill-rule="evenodd" clip-rule="evenodd"
                  d="M16.6994 15.648L17.9409 8.36354H19.9263L18.6841 15.648H16.6994ZM25.8853 8.54311C25.4919 8.39526 24.8755 8.23715 24.1057 8.23715C22.144 8.23691 20.7618 9.2251 20.7502 10.6411C20.7391 11.6874 21.7368 12.2715 22.49 12.6201C23.2628 12.9768 23.5226 13.2047 23.5189 13.5236C23.514 14.0117 22.9017 14.2349 22.331 14.2349C21.5364 14.2349 21.1142 14.1246 20.4621 13.8526L20.2062 13.7366L19.9275 15.3673C20.3913 15.5708 21.2488 15.747 22.1391 15.7561C24.2262 15.756 25.5811 14.7795 25.5966 13.2675C25.6041 12.4387 25.0751 11.8082 23.9297 11.2883C23.2356 10.9511 22.8105 10.7266 22.8151 10.3853C22.8151 10.0824 23.1748 9.75875 23.9521 9.75875C24.6015 9.7485 25.0716 9.8902 25.4381 10.0378L25.6161 10.1218L25.8852 8.54323L25.8853 8.54311ZM30.9767 8.37041H29.4425C28.9672 8.37041 28.6114 8.50042 28.4027 8.97474L25.454 15.6501H27.5389C27.5389 15.6501 27.8799 14.7528 27.9571 14.5557C28.185 14.5557 30.2103 14.5588 30.4999 14.5588C30.5593 14.8138 30.7414 15.6502 30.7414 15.6502L32.5839 15.6501L30.9768 8.37041H30.9767ZM28.5283 13.0657C28.6926 12.646 29.3193 11.0296 29.3193 11.0296C29.3078 11.0489 29.4823 10.6079 29.5826 10.3344L29.717 10.9622C29.717 10.9622 30.097 12.7012 30.1764 13.0658L28.5282 13.0657H28.5283ZM15.0342 8.36885L13.0904 13.3363L12.8832 12.3269C12.5214 11.1631 11.3938 9.9025 10.1333 9.27129L11.9108 15.6417L14.0115 15.6392L17.1373 8.36885H15.0342Z"
                  fill="#191E70"/>
            <path fill-rule="evenodd" clip-rule="evenodd"
                  d="M11.287 8.3645H8.08538L8.06006 8.51609C10.5509 9.11885 12.199 10.5762 12.8832 12.3269L12.1869 8.97956C12.0668 8.51827 11.7182 8.38066 11.287 8.3645Z"
                  fill="#F7B600"/>
            <g clip-path="url(#clip2)">
                <path d="M4.0194 0.0100403H36.6535C37.6944 0.0100403 38.6403 0.43548 39.3255 1.12067C40.0109 1.80598 40.4364 2.75176 40.4364 3.79245V20.2258C40.4364 21.2663 40.0108 22.2121 39.3255 22.8974C38.6402 23.5826 37.6943 24.0082 36.6537 24.0082H4.01952C2.97887 24.0082 2.03289 23.5827 1.34753 22.8974C0.662289 22.2122 0.236816 21.2666 0.236816 20.2258V3.79245C0.236816 2.75164 0.662289 1.80586 1.34753 1.12067C2.03277 0.43548 2.97875 0.0100403 4.01964 0.0100403H4.0194ZM36.6535 1.31373H4.0194C3.33837 1.31373 2.71874 1.5929 2.26915 2.04245C1.81955 2.49201 1.54037 3.1116 1.54037 3.79257V20.2259C1.54037 20.9067 1.81955 21.5263 2.26915 21.9759C2.71886 22.4256 3.3385 22.7047 4.0194 22.7047H36.6535C37.3343 22.7047 37.9539 22.4256 38.4037 21.9759C38.8533 21.5262 39.1326 20.9066 39.1326 20.226V3.79269C39.1326 3.11196 38.8534 2.49225 38.4038 2.04257C37.9542 1.59302 37.3344 1.31385 36.6535 1.31385V1.31373Z"
                      fill="#808080"/>
                <path fill-rule="evenodd" clip-rule="evenodd"
                      d="M16.7121 15.6601L17.9536 8.37629H19.939L18.6968 15.6601H16.7121ZM25.898 8.55584C25.5046 8.408 24.8882 8.24991 24.1184 8.24991C22.1567 8.24967 20.7745 9.23778 20.7629 10.6536C20.7518 11.6998 21.7495 12.284 22.5027 12.6325C23.2755 12.9892 23.5353 13.2171 23.5316 13.5359C23.5267 14.024 22.9144 14.2472 22.3437 14.2472C21.5491 14.2472 21.1269 14.1368 20.4748 13.8649L20.2189 13.7489L19.9402 15.3795C20.404 15.5829 21.2615 15.7591 22.1518 15.7683C24.2389 15.7682 25.5938 14.7918 25.6093 13.2798C25.6168 12.4511 25.0878 11.8207 23.9424 11.3008C23.2483 10.9637 22.8232 10.7391 22.8278 10.3978C22.8278 10.095 23.1875 9.77138 23.9648 9.77138C24.6142 9.76113 25.0843 9.90283 25.4508 10.0504L25.6288 10.1344L25.8979 8.55596L25.898 8.55584ZM30.9894 8.38316H29.4552C28.9799 8.38316 28.6241 8.51316 28.4154 8.98743L25.4667 15.6623H27.5516C27.5516 15.6623 27.8926 14.765 27.9698 14.5679C28.1977 14.5679 30.223 14.5711 30.5126 14.5711C30.572 14.826 30.7541 15.6624 30.7541 15.6624L32.5966 15.6623L30.9895 8.38316H30.9894ZM28.541 13.0781C28.7053 12.6584 29.332 11.0422 29.332 11.0422C29.3205 11.0614 29.495 10.6205 29.5953 10.347L29.7297 10.9747C29.7297 10.9747 30.1097 12.7136 30.1891 13.0782L28.5409 13.0781H28.541ZM15.0469 8.38159L13.1031 13.3487L12.8959 12.3393C12.5341 11.1756 11.4065 9.91513 10.146 9.28396L11.9235 15.6539L14.0242 15.6513L17.15 8.38159H15.0469Z"
                      fill="#191E70"/>
                <path fill-rule="evenodd" clip-rule="evenodd"
                      d="M11.2997 8.37726H8.09808L8.07275 8.52884C10.5636 9.13154 12.2117 10.5887 12.8959 12.3393L12.1996 8.99226C12.0795 8.53101 11.7309 8.39342 11.2997 8.37726Z"
                      fill="#F7B600"/>
                <g clip-path="url(#clip3)">
                    <path fill-rule="evenodd" clip-rule="evenodd"
                          d="M20.3384 11.9884C20.3381 11.9881 20.3376 11.9879 20.3369 11.9879H20.335C20.3349 11.9879 20.3348 11.988 20.3348 11.9881L20.334 11.9932C20.334 11.9933 20.334 11.9933 20.3341 11.9933H20.3353L20.3356 11.9915L20.3356 11.9915C20.3356 11.9914 20.3357 11.9913 20.3359 11.9913L20.3364 11.9913C20.3375 11.9913 20.3384 11.9909 20.3386 11.9896C20.3386 11.9895 20.3386 11.9895 20.3387 11.9895C20.3387 11.989 20.3387 11.9887 20.3384 11.9884V11.9884V11.9884Z"
                          fill="#003087"/>
                    <path fill-rule="evenodd" clip-rule="evenodd"
                          d="M20.3382 11.9899C20.3379 11.9911 20.3371 11.9918 20.3357 11.9918L20.3352 11.9918L20.3349 11.9938L20.3345 11.9938L20.3345 11.994C20.3345 11.9941 20.3345 11.9941 20.3346 11.9941H20.3356C20.3357 11.9941 20.3358 11.9941 20.3358 11.9939L20.3358 11.9939L20.336 11.9927L20.336 11.9926C20.3361 11.9925 20.3362 11.9924 20.3363 11.9924L20.3364 11.9924C20.3374 11.9924 20.3381 11.9921 20.3384 11.9909C20.3384 11.9905 20.3384 11.9901 20.3382 11.9899H20.3382H20.3382Z"
                          fill="#009CDE"/>
                    <path d="M20.3295 11.9852H20.3452C20.3457 11.9852 20.3461 11.9854 20.3465 11.9857C20.3468 11.986 20.347 11.9865 20.347 11.987V11.9949C20.347 11.9954 20.3468 11.9959 20.3465 11.9962C20.3461 11.9965 20.3457 11.9967 20.3452 11.9967H20.3295C20.329 11.9967 20.3285 11.9965 20.3282 11.9962C20.3278 11.9959 20.3276 11.9954 20.3276 11.9949V11.987C20.3276 11.9865 20.3278 11.986 20.3282 11.9857C20.3285 11.9854 20.329 11.9852 20.3295 11.9852H20.3295ZM20.3452 11.9858H20.3295C20.3291 11.9858 20.3288 11.9859 20.3286 11.9861C20.3284 11.9864 20.3283 11.9867 20.3283 11.987V11.9949C20.3283 11.9952 20.3284 11.9955 20.3286 11.9957C20.3288 11.996 20.3291 11.9961 20.3295 11.9961H20.3452C20.3455 11.9961 20.3458 11.996 20.346 11.9957C20.3462 11.9955 20.3464 11.9952 20.3464 11.9949V11.987C20.3464 11.9867 20.3462 11.9864 20.346 11.9861C20.3458 11.9859 20.3455 11.9858 20.3452 11.9858V11.9858Z"
                          fill="#808080"/>
                </g>
            </g>
        </g>
    </g>
    <defs>
        <clipPath id="clip0">
            <rect width="40.1997" height="24" fill="white" transform="translate(0.199707)"/>
        </clipPath>
        <clipPath id="clip1">
            <rect width="40.1997" height="24" fill="white" transform="translate(0.222168 -0.00335693)"/>
        </clipPath>
        <clipPath id="clip2">
            <rect width="40.1996" height="23.9981" fill="white" transform="translate(0.234863 0.0100403)"/>
        </clipPath>
        <clipPath id="clip3">
            <rect width="0.0193653" height="0.0115576" fill="white" transform="translate(20.3267 11.9852)"/>
        </clipPath>
    </defs>
</svg>
