<svg width="14" height="14" viewBox="0 0 14 14" fill="none" xmlns="http://www.w3.org/2000/svg">
    <path d="M7.00175 0H6.99825C3.13863 0 0 3.1395 0 7C0 8.53125 0.4935 9.9505 1.33263 11.1029L0.46025 13.7034L3.15088 12.8433C4.25775 13.5765 5.57812 14 7.00175 14C10.8614 14 14 10.8596 14 7C14 3.14038 10.8614 0 7.00175 0ZM11.0749 9.88488C10.906 10.3617 10.2358 10.7572 9.70113 10.8727C9.33537 10.9506 8.85763 11.0128 7.24937 10.346C5.19225 9.49375 3.8675 7.40337 3.76425 7.26775C3.66537 7.13212 2.933 6.16088 2.933 5.15637C2.933 4.15188 3.44313 3.66275 3.64875 3.45275C3.81763 3.28038 4.09675 3.20162 4.3645 3.20162C4.45113 3.20162 4.529 3.206 4.599 3.2095C4.80463 3.21825 4.90788 3.2305 5.0435 3.55513C5.21238 3.962 5.62362 4.9665 5.67262 5.06975C5.7225 5.173 5.77238 5.313 5.70238 5.44863C5.63675 5.58863 5.579 5.65075 5.47575 5.76975C5.3725 5.88875 5.2745 5.97975 5.17125 6.1075C5.07675 6.21863 4.97 6.33763 5.089 6.54325C5.208 6.7445 5.61925 7.41562 6.22475 7.95462C7.00612 8.65025 7.63962 8.8725 7.86625 8.967C8.03512 9.037 8.23637 9.02038 8.35975 8.88913C8.51637 8.72025 8.70975 8.44025 8.90662 8.16463C9.04663 7.96688 9.22338 7.94237 9.40888 8.01237C9.59788 8.078 10.598 8.57237 10.8036 8.67475C11.0092 8.778 11.1449 8.827 11.1947 8.91363C11.2437 9.00025 11.2437 9.40712 11.0749 9.88488Z"
          fill="#62897D"/>
</svg>
