<svg width="57" height="57" viewBox="0 0 57 57" fill="none" xmlns="http://www.w3.org/2000/svg">
    <circle cx="28.5" cy="28.5" r="27.7" stroke="#222F2B" stroke-width="1.6"/>
    <path d="M41.4688 21.4375H40.8125V16.625C40.8125 16.509 40.7664 16.3977 40.6844 16.3156C40.6023 16.2336 40.491 16.1875 40.375 16.1875H17.625C17.509 16.1875 17.3977 16.2336 17.3156 16.3156C17.2336 16.3977 17.1875 16.509 17.1875 16.625V17.9375H16.5312C16.2413 17.9378 15.9632 18.0531 15.7582 18.2582C15.5531 18.4632 15.4378 18.7413 15.4375 19.0313V38.7188C15.4378 39.0088 15.5531 39.2868 15.7582 39.4918C15.9632 39.6969 16.2413 39.8122 16.5312 39.8125H41.4688C41.7587 39.8122 42.0368 39.6969 42.2418 39.4918C42.4469 39.2868 42.5622 39.0088 42.5625 38.7188V22.5313C42.5622 22.2413 42.4469 21.9632 42.2418 21.7582C42.0368 21.5531 41.7587 21.4378 41.4688 21.4375ZM18.0625 17.0625H39.9375V21.4375H26.6452L25.0166 18.1792C24.9801 18.1066 24.9242 18.0455 24.8551 18.0028C24.7859 17.9601 24.7063 17.9375 24.625 17.9375H18.0625V17.0625ZM41.6875 38.7188C41.6875 38.7768 41.6645 38.8324 41.6234 38.8734C41.5824 38.9145 41.5268 38.9375 41.4688 38.9375H16.5312C16.4732 38.9375 16.4176 38.9145 16.3766 38.8734C16.3355 38.8324 16.3125 38.7768 16.3125 38.7188V19.0313C16.3125 18.9732 16.3355 18.9176 16.3766 18.8766C16.4176 18.8355 16.4732 18.8125 16.5312 18.8125H24.3548L25.9834 22.0708C26.0199 22.1434 26.0758 22.2045 26.1449 22.2472C26.2141 22.2899 26.2937 22.3125 26.375 22.3125H41.4688C41.5268 22.3125 41.5824 22.3355 41.6234 22.3766C41.6645 22.4176 41.6875 22.4732 41.6875 22.5313V38.7188Z"
          fill="#222F2B"/>
    <path d="M29 24.0625C27.7021 24.0625 26.4333 24.4474 25.3541 25.1685C24.2749 25.8896 23.4337 26.9145 22.937 28.1136C22.4403 29.3128 22.3104 30.6323 22.5636 31.9053C22.8168 33.1783 23.4418 34.3476 24.3596 35.2654C25.2774 36.1832 26.4467 36.8082 27.7197 37.0614C28.9927 37.3146 30.3122 37.1847 31.5114 36.688C32.7105 36.1913 33.7354 35.3501 34.4565 34.2709C35.1776 33.1917 35.5625 31.9229 35.5625 30.625C35.5605 28.8851 34.8685 27.2171 33.6382 25.9868C32.4079 24.7565 30.7399 24.0645 29 24.0625ZM29 36.3125C27.8751 36.3125 26.7755 35.9789 25.8402 35.354C24.9049 34.729 24.1759 33.8408 23.7454 32.8015C23.315 31.7623 23.2023 30.6187 23.4218 29.5154C23.6412 28.4122 24.1829 27.3987 24.9783 26.6033C25.7737 25.8079 26.7872 25.2662 27.8904 25.0468C28.9937 24.8273 30.1373 24.94 31.1765 25.3704C32.2158 25.8009 33.104 26.5299 33.729 27.4652C34.3539 28.4005 34.6875 29.5001 34.6875 30.625C34.6858 32.1329 34.086 33.5785 33.0198 34.6448C31.9535 35.711 30.5079 36.3108 29 36.3125Z"
          fill="#222F2B"/>
    <path d="M32.1912 28.5655L28.0931 32.6636L26.2115 31.1583C26.1666 31.1224 26.1152 31.0956 26.06 31.0796C26.0048 31.0636 25.947 31.0586 25.8899 31.065C25.8327 31.0713 25.7774 31.0888 25.7271 31.1165C25.6767 31.1442 25.6324 31.1816 25.5964 31.2265C25.5605 31.2713 25.5338 31.3228 25.5178 31.378C25.5018 31.4332 25.4968 31.491 25.5032 31.5481C25.5095 31.6052 25.527 31.6605 25.5547 31.7109C25.5824 31.7612 25.6198 31.8056 25.6646 31.8415L27.8521 33.5915C27.9362 33.6588 28.0421 33.6927 28.1497 33.6867C28.2572 33.6808 28.3587 33.6354 28.4348 33.5593L32.8098 29.1843C32.8919 29.1022 32.938 28.9909 32.938 28.8749C32.938 28.7589 32.8919 28.6476 32.8098 28.5655C32.7278 28.4835 32.6165 28.4374 32.5005 28.4374C32.3844 28.4374 32.2732 28.4835 32.1911 28.5655H32.1912Z"
          fill="#222F2B"/>
</svg>
