<svg width="57" height="57" viewBox="0 0 57 57" fill="none" xmlns="http://www.w3.org/2000/svg">
    <path d="M39.9828 31.5156C39.6847 31.5156 39.4094 31.5883 39.1652 31.6978C38.794 31.2231 38.2179 30.9159 37.5684 30.9152C37.2327 30.9152 36.924 31.0043 36.6587 31.1377L36.631 31.1531L35.8016 31.645C35.4298 31.2004 34.8729 30.9155 34.2482 30.9152C33.9125 30.9152 33.6038 31.0043 33.3385 31.1377L33.3053 31.1564L30.13 33.1013C29.4129 32.8894 28.6167 32.657 27.8474 32.4388C27.0358 32.2085 26.2553 31.9945 25.6297 31.8366C25.3164 31.7576 25.0424 31.6927 24.8184 31.6465C24.7062 31.6232 24.6065 31.6049 24.5181 31.5913C24.4285 31.578 24.3536 31.5687 24.2692 31.5684C24.2039 31.5687 24.1475 31.5744 24.0832 31.5822C23.8494 31.6131 23.5167 31.6843 23.1244 31.7763C22.3227 31.9646 21.2997 32.2387 20.7344 32.3926V31.4358C20.7344 30.7718 20.1911 30.2285 19.5271 30.2285H16.2073C15.5433 30.2286 15 30.7719 15 31.4359V40.792C15 41.456 15.5433 41.9993 16.2073 41.9993H19.5271C20.1911 41.9993 20.7344 41.456 20.7344 40.792V40.0656C21.4509 40.2216 23.0412 40.565 24.7177 40.9094C25.8516 41.1421 27.0235 41.3751 27.9914 41.5507C28.4755 41.6385 28.9086 41.7119 29.2633 41.7638C29.6209 41.8154 29.8874 41.8474 30.0905 41.8486C30.2486 41.8481 30.3984 41.8181 30.5601 41.7735C30.861 41.6886 31.2035 41.5447 31.5956 41.3542C32.96 40.6891 34.9197 39.4429 36.7683 38.2097C38.6136 36.978 40.3396 35.7618 41.1853 35.1792C41.7146 34.8144 42.0122 34.1978 42.0122 33.5453C42.0113 32.4246 41.1037 31.5161 39.9828 31.5156ZM19.8289 40.7919C19.8289 40.9554 19.6907 41.0937 19.5271 41.0937H16.2073C16.0437 41.0937 15.9055 40.9554 15.9055 40.7919V31.4359C15.9055 31.2723 16.0437 31.1341 16.2073 31.1341H19.5271C19.6907 31.1341 19.8289 31.2723 19.8289 31.4359V40.7919ZM40.6719 34.4334C39.6318 35.1499 37.3046 36.7932 35.0519 38.2564C33.9265 38.9874 32.8197 39.6728 31.9122 40.1696C31.4589 40.418 31.0545 40.6187 30.7312 40.753C30.5698 40.82 30.4285 40.8704 30.3165 40.9015C30.2051 40.9331 30.1212 40.9437 30.0907 40.9431C29.992 40.944 29.7307 40.918 29.3948 40.8679C28.2057 40.6938 25.9798 40.2492 24.0633 39.8493C23.1041 39.6492 22.2207 39.4603 21.577 39.3214C21.2031 39.2408 20.9145 39.1777 20.7346 39.1388V33.3315C20.8231 33.307 20.9389 33.2754 21.0781 33.2376C21.5553 33.1082 22.2835 32.9141 22.9366 32.7533C23.2629 32.6726 23.5711 32.6009 23.8158 32.5498C23.9377 32.5245 24.0443 32.5043 24.1261 32.4913C24.2063 32.478 24.2688 32.4732 24.2694 32.4741C24.271 32.4737 24.3183 32.4768 24.3829 32.4868C24.6328 32.5242 25.1449 32.644 25.7688 32.8073C27.6487 33.2984 30.6131 34.186 31.8107 34.5496C32.2251 34.6746 32.6002 34.8629 32.8465 35.0914C32.9703 35.2055 33.0632 35.3274 33.1257 35.4593C33.1882 35.5918 33.2235 35.7352 33.2241 35.9105C33.2238 36.2657 33.0813 36.5832 32.8487 36.8165C32.6175 37.0468 32.3036 37.1878 31.9532 37.1911L30.7849 37.0767L26.7977 36.5648C26.5495 36.5331 26.3226 36.7081 26.2906 36.9562C26.2586 37.2043 26.4343 37.4309 26.682 37.4629L30.6821 37.9763L31.9202 38.0976H31.9425C33.15 38.0973 34.1288 37.1185 34.1294 35.9106C34.13 35.6067 34.0627 35.3209 33.9435 35.0707C33.764 34.6938 33.4751 34.4019 33.1485 34.1797C32.8207 33.957 32.4508 33.7983 32.0741 33.6836C31.8641 33.6199 31.5994 33.5396 31.297 33.4488L33.754 31.9436C33.9133 31.8652 34.0763 31.8208 34.249 31.8205C34.5417 31.8202 34.8061 31.9337 35.0059 32.1172L33.7921 32.837C33.5772 32.9645 33.5063 33.2424 33.634 33.4573C33.7616 33.6722 34.0393 33.7434 34.2545 33.6158L37.0722 31.9446C37.2324 31.8652 37.3963 31.8206 37.5696 31.8206C37.882 31.8203 38.1629 31.9504 38.3666 32.1568L35.0857 34.1026C34.8705 34.23 34.7999 34.508 34.9276 34.7231C35.0553 34.938 35.3329 35.0089 35.5481 34.8812L39.0959 32.777C39.1303 32.7713 39.165 32.7628 39.1988 32.7483C39.2715 32.7175 39.3307 32.6686 39.3762 32.6107L39.487 32.5449C39.6472 32.4655 39.8111 32.4208 39.9843 32.4208C40.2955 32.4211 40.5737 32.5461 40.7787 32.7502C40.9827 32.9551 41.1076 33.2336 41.108 33.5451C41.1065 33.9245 40.9326 34.2559 40.6719 34.4334Z"
          fill="#222F2B"/>
    <path d="M34.8002 14.0004C32.9837 13.9907 31.2569 14.7885 30.0868 16.1779C28.924 14.779 27.1924 13.9789 25.3734 14.0004C21.9635 14.0004 19.1992 16.7647 19.1992 20.1746C19.1992 26.0181 29.3977 31.7237 29.8112 31.9443C29.978 32.0557 30.1956 32.0557 30.3624 31.9443C30.7759 31.7237 40.9744 26.1008 40.9744 20.1746C40.9744 16.7647 38.2101 14.0004 34.8002 14.0004ZM30.0868 30.8417C28.4881 29.9046 20.3018 24.9156 20.3018 20.1746C20.3018 17.3736 22.5724 15.1029 25.3735 15.1029C27.0887 15.0804 28.694 15.9456 29.6182 17.3907C29.8059 17.6494 30.1679 17.7071 30.4267 17.5194C30.4761 17.4835 30.5196 17.4401 30.5554 17.3907C32.0883 15.0464 35.2314 14.3886 37.5757 15.9215C39.0109 16.8599 39.8747 18.4599 39.8718 20.1746C39.8719 24.9707 31.6855 29.9321 30.0868 30.8417Z"
          fill="#222F2B"/>
    <circle cx="28.5" cy="28.5" r="27.7" stroke="#222F2B" stroke-width="1.6"/>
</svg>
