<svg width="20" height="21" viewBox="0 0 20 21" fill="none" xmlns="http://www.w3.org/2000/svg">
<path d="M19.5 5C19.5 5.51284 19.114 5.93551 18.6166 5.99327L18.5 6H17.6553L16.4239 18.5192C16.2854 19.9269 15.1016 21 13.6871 21H6.31293C4.8984 21 3.7146 19.9269 3.57614 18.5192L2.34474 6H1.5C0.947715 6 0.5 5.55228 0.5 5C0.5 4.44772 0.947715 4 1.5 4H6.5C6.5 2.067 8.067 0.5 10 0.5C11.933 0.5 13.5 2.067 13.5 4H18.5C19.0523 4 19.5 4.44772 19.5 5ZM12.25 8.25C11.8703 8.25 11.5565 8.53215 11.5068 8.89823L11.5 9V16L11.5068 16.1018C11.5565 16.4678 11.8703 16.75 12.25 16.75C12.6297 16.75 12.9435 16.4678 12.9932 16.1018L13 16V9L12.9932 8.89823C12.9435 8.53215 12.6297 8.25 12.25 8.25ZM7.75 8.25C7.3703 8.25 7.05651 8.53215 7.00685 8.89823L7 9V16L7.00685 16.1018C7.05651 16.4678 7.3703 16.75 7.75 16.75C8.1297 16.75 8.44349 16.4678 8.49315 16.1018L8.5 16V9L8.49315 8.89823C8.44349 8.53215 8.1297 8.25 7.75 8.25ZM10 2.5C9.17157 2.5 8.5 3.17157 8.5 4H11.5C11.5 3.17157 10.8284 2.5 10 2.5Z" fill="#222F2B"/>
</svg>
