<svg width="14" height="14" viewBox="0 0 14 14" fill="none" xmlns="http://www.w3.org/2000/svg">
<rect x="0.15" y="0.15" width="2.5" height="2.5" stroke="#777777" stroke-width="0.3"/>
<rect x="0.15" y="3.8834" width="2.5" height="2.5" stroke="#777777" stroke-width="0.3"/>
<rect x="0.15" y="7.61667" width="2.5" height="2.5" stroke="#777777" stroke-width="0.3"/>
<rect x="0.15" y="11.35" width="2.5" height="2.5" stroke="#777777" stroke-width="0.3"/>
<rect x="3.8834" y="3.8834" width="2.5" height="2.5" stroke="#777777" stroke-width="0.3"/>
<rect x="3.8834" y="0.15" width="2.5" height="2.5" stroke="#777777" stroke-width="0.3"/>
<rect x="3.8834" y="7.61667" width="2.5" height="2.5" stroke="#777777" stroke-width="0.3"/>
<rect x="7.6168" y="3.8834" width="2.5" height="2.5" stroke="#777777" stroke-width="0.3"/>
<rect x="3.8834" y="11.35" width="2.5" height="2.5" stroke="#777777" stroke-width="0.3"/>
<rect x="7.6168" y="7.61667" width="2.5" height="2.5" stroke="#777777" stroke-width="0.3"/>
<rect x="11.3502" y="3.8834" width="2.5" height="2.5" stroke="#777777" stroke-width="0.3"/>
<rect x="11.3502" y="7.61667" width="2.5" height="2.5" stroke="#777777" stroke-width="0.3"/>
<rect x="7.6168" y="0.15" width="2.5" height="2.5" stroke="#777777" stroke-width="0.3"/>
<rect x="7.6168" y="11.35" width="2.5" height="2.5" stroke="#777777" stroke-width="0.3"/>
<rect x="11.3502" y="0.15" width="2.5" height="2.5" stroke="#777777" stroke-width="0.3"/>
<rect x="11.3502" y="11.35" width="2.5" height="2.5" stroke="#777777" stroke-width="0.3"/>
</svg>
