<svg width="24" height="24" viewBox="0 0 24 24" fill="none" xmlns="http://www.w3.org/2000/svg">
<path d="M3 8.55467L11.564 13.4804C11.7384 13.5806 11.946 13.5806 12.1203 13.4804L20.6842 8.55556V17.1111C20.6842 18.6516 19.5939 19.9104 18.22 19.9954L18.0718 20H5.61255C4.2195 20 3.08111 18.7943 3.00426 17.275L3 17.1111V8.55467ZM5.61255 4H18.0718C19.4648 4 20.6032 5.20574 20.6801 6.72496L20.6842 6.88889V7.05244L11.8422 12.1375L3 7.05244V6.88889C3 5.34842 4.09047 4.08956 5.4643 4.00457L5.61255 4H18.0718H5.61255Z" fill="#999999"/>
</svg>
