<svg width="18" height="18" viewBox="0 0 18 18" fill="none" xmlns="http://www.w3.org/2000/svg">
    <path d="M9.00012 0C5.40557 0 2.4812 2.92437 2.4812 6.51888C2.4812 10.9798 8.31499 17.5287 8.56337 17.8053C8.79667 18.0651 9.20399 18.0647 9.43687 17.8053C9.68525 17.5287 15.519 10.9798 15.519 6.51888C15.519 2.92437 12.5946 0 9.00012 0ZM9.00012 9.79871C7.19161 9.79871 5.72032 8.32739 5.72032 6.51888C5.72032 4.71037 7.19165 3.23909 9.00012 3.23909C10.8086 3.23909 12.2799 4.71041 12.2799 6.51892C12.2799 8.32743 10.8086 9.79871 9.00012 9.79871Z"
          fill="#999999"/>
</svg>
