<svg width="24" height="24" viewBox="0 0 24 24" fill="none" xmlns="http://www.w3.org/2000/svg">
    <path fill-rule="evenodd" clip-rule="evenodd"
          d="M16.4566 19.9519C15.7426 19.9519 15.1616 20.5319 15.1616 21.2459C15.1616 21.9599 15.7426 22.5409 16.4566 22.5409C17.1706 22.5409 17.7506 21.9599 17.7506 21.2459C17.7506 20.5319 17.1706 19.9519 16.4566 19.9519ZM5.17631 19.9519C4.46131 19.9519 3.88031 20.5319 3.88031 21.2459C3.88031 21.9599 4.46131 22.5409 5.17631 22.5409C5.89031 22.5409 6.47031 21.9599 6.47031 21.2459C6.47031 20.5319 5.89031 19.9519 5.17631 19.9519ZM20.7324 3.00949L18.6524 3.36949C18.3174 3.42849 18.0624 3.70649 18.0334 4.04649L17.7984 6.84749L16.9246 6.84786C16.782 6.84793 16.6409 6.84799 16.5013 6.84805L14.897 6.84882C14.7691 6.84888 14.6427 6.84894 14.5176 6.84901L12.7462 6.84998C12.6349 6.85005 12.525 6.85011 12.4164 6.85018L11.175 6.85097C11.0767 6.85103 10.9796 6.8511 10.8837 6.85117L9.79194 6.85197C9.70573 6.85204 9.6207 6.85211 9.53683 6.85217L8.58488 6.85299C8.51001 6.85306 8.43623 6.85313 8.36353 6.8532L7.73785 6.85382C7.67147 6.85389 7.60611 6.85396 7.54177 6.85403L6.8172 6.85487C6.7607 6.85494 6.70514 6.85501 6.65052 6.85508L6.03874 6.85594C5.99132 6.85601 5.94476 6.85608 5.89905 6.85615L5.51024 6.8568C5.4695 6.85687 5.42956 6.85695 5.3904 6.85702L4.95729 6.8579C4.92418 6.85797 4.89178 6.85804 4.86009 6.85812L4.59354 6.85878C4.56594 6.85886 4.53901 6.85893 4.51271 6.85901L4.22695 6.85991C4.20554 6.85998 4.1847 6.86006 4.16442 6.86014L3.99663 6.86082C3.97958 6.8609 3.96303 6.86097 3.94699 6.86105L3.77726 6.86197C3.76493 6.86205 3.75304 6.86213 3.74156 6.86221L3.64905 6.86291C3.63993 6.86299 3.63117 6.86307 3.62276 6.86315L3.55617 6.86386C3.54973 6.86393 3.5436 6.86401 3.53775 6.86409L3.49244 6.86481C3.48817 6.86489 3.48414 6.86497 3.48034 6.86505L3.45166 6.86578C3.44905 6.86586 3.44661 6.86594 3.44433 6.86602L3.42356 6.867L3.42002 6.86725C3.41027 6.86815 3.40741 6.86849 3.40741 6.86849C2.85041 6.94949 2.36041 7.24049 2.02641 7.68849C1.69241 8.13549 1.55241 8.68649 1.63241 9.23849L2.58141 15.7965C2.76041 17.0445 3.84441 17.9855 5.10441 17.9855H16.0254C17.3424 17.9855 18.4574 16.9575 18.5644 15.6425L19.4804 4.74849L20.9874 4.48849C21.3964 4.41649 21.6694 4.02949 21.5994 3.62049C21.5274 3.21149 21.1324 2.94549 20.7324 3.00949ZM17.1252 8.34783L17.6724 8.34749L17.0694 15.5195C17.0254 16.0715 16.5744 16.4855 16.0234 16.4855H5.10641C4.58541 16.4855 4.14041 16.0975 4.06641 15.5825L3.11641 9.02349C3.09441 8.86749 3.13341 8.71149 3.22841 8.58549C3.32241 8.45849 3.46041 8.37649 3.61641 8.35449C3.62362 8.35476 3.64089 8.35502 3.66773 8.35525L3.7765 8.35587C3.79925 8.35596 3.82427 8.35605 3.8515 8.35613L4.41801 8.35699C4.46581 8.35702 4.5155 8.35705 4.56704 8.35708L5.89902 8.35702C5.97333 8.357 6.04906 8.35697 6.12614 8.35693L7.64624 8.35601C7.73733 8.35594 7.8294 8.35587 7.92239 8.3558L8.78253 8.35511C8.8805 8.35503 8.97921 8.35495 9.0786 8.35486L9.98967 8.35406C10.0926 8.35397 10.1959 8.35388 10.2998 8.35378L10.9273 8.3532C11.0326 8.35311 11.1383 8.35301 11.2441 8.35291L12.2018 8.35201C12.3086 8.35191 12.4154 8.35181 12.5223 8.35172L13.1629 8.35112C13.2696 8.35102 13.3761 8.35092 13.4824 8.35083L14.1176 8.35025C14.2229 8.35015 14.3279 8.35006 14.4326 8.34997L15.3631 8.34917C15.4651 8.34908 15.5664 8.349 15.6672 8.34892L16.8431 8.34802C16.938 8.34796 17.0321 8.34789 17.1252 8.34783Z"
          fill="white"/>
</svg>
