<svg width="21" height="20" viewBox="0 0 21 20" fill="none" xmlns="http://www.w3.org/2000/svg">
<path fill-rule="evenodd" clip-rule="evenodd" d="M5.54339 16.9519C6.25739 16.9519 6.83839 17.5319 6.83839 18.2459C6.83839 18.9599 6.25739 19.5409 5.54339 19.5409C4.82939 19.5409 4.24939 18.9599 4.24939 18.2459C4.24939 17.5319 4.82939 16.9519 5.54339 16.9519ZM16.8237 16.9519C17.5387 16.9519 18.1197 17.5319 18.1197 18.2459C18.1197 18.9599 17.5387 19.5409 16.8237 19.5409C16.1097 19.5409 15.5297 18.9599 15.5297 18.2459C15.5297 17.5319 16.1097 16.9519 16.8237 16.9519ZM1.26759 0.00948704L3.34759 0.369487C3.68259 0.428487 3.93759 0.706487 3.96659 1.04649L4.20159 3.84749L5.07544 3.84786C5.21804 3.84793 5.35912 3.84799 5.49871 3.84805L7.10302 3.84882C7.2309 3.84888 7.35735 3.84894 7.48238 3.84901L9.25378 3.84998C9.36506 3.85005 9.47501 3.85011 9.58364 3.85018L10.825 3.85097C10.9233 3.85103 11.0204 3.8511 11.1163 3.85117L12.2081 3.85197C12.2943 3.85204 12.3793 3.85211 12.4632 3.85217L13.4151 3.85299C13.49 3.85306 13.5638 3.85313 13.6365 3.8532L14.2621 3.85382C14.3285 3.85389 14.3939 3.85396 14.4582 3.85403L15.1828 3.85487C15.2393 3.85494 15.2949 3.85501 15.3495 3.85508L15.9613 3.85594C16.0087 3.85601 16.0552 3.85608 16.1009 3.85615L16.4898 3.8568C16.5305 3.85687 16.5704 3.85695 16.6096 3.85702L17.0427 3.8579C17.0758 3.85797 17.1082 3.85804 17.1399 3.85812L17.4065 3.85878C17.4341 3.85886 17.461 3.85893 17.4873 3.85901L17.773 3.85991C17.7945 3.85998 17.8153 3.86006 17.8356 3.86014L18.0034 3.86082C18.0204 3.8609 18.037 3.86097 18.053 3.86105L18.2227 3.86197C18.2351 3.86205 18.247 3.86213 18.2584 3.86221L18.3509 3.86291C18.3601 3.86299 18.3688 3.86307 18.3772 3.86315L18.4438 3.86386C18.4503 3.86393 18.4564 3.86401 18.4623 3.86409L18.5076 3.86481C18.5118 3.86489 18.5159 3.86497 18.5197 3.86505L18.5483 3.86578C18.5509 3.86586 18.5534 3.86594 18.5557 3.86602L18.5764 3.867L18.58 3.86725C18.5897 3.86815 18.5926 3.86849 18.5926 3.86849C19.1496 3.94949 19.6396 4.24049 19.9736 4.68849C20.3076 5.13549 20.4476 5.68649 20.3676 6.23849L19.4186 12.7965C19.2396 14.0445 18.1556 14.9855 16.8956 14.9855H5.97459C4.65759 14.9855 3.54259 13.9575 3.43559 12.6425L2.51959 1.74849L1.01259 1.48849C0.603593 1.41649 0.330593 1.02949 0.400593 0.620487C0.472593 0.211487 0.867593 -0.054513 1.26759 0.00948704ZM4.87483 5.34783L4.32759 5.34749L4.93059 12.5195C4.97459 13.0715 5.42559 13.4855 5.97659 13.4855H16.8936C17.4146 13.4855 17.8596 13.0975 17.9336 12.5825L18.8836 6.02349C18.9056 5.86749 18.8666 5.71149 18.7716 5.58549C18.6776 5.45849 18.5396 5.37649 18.3836 5.35449C18.3764 5.35476 18.3591 5.35502 18.3323 5.35525L18.2235 5.35587C18.2008 5.35596 18.1757 5.35605 18.1485 5.35613L17.582 5.35699C17.5342 5.35702 17.4845 5.35705 17.433 5.35708L16.101 5.35702C16.0267 5.357 15.9509 5.35697 15.8739 5.35693L14.3538 5.35601C14.2627 5.35594 14.1706 5.35587 14.0776 5.3558L13.2175 5.35511C13.1195 5.35503 13.0208 5.35495 12.9214 5.35486L12.0103 5.35406C11.9074 5.35397 11.8041 5.35388 11.7002 5.35378L11.0727 5.3532C10.9674 5.35311 10.8617 5.35301 10.7559 5.35291L9.79819 5.35201C9.69141 5.35191 9.58456 5.35181 9.4777 5.35172L8.83706 5.35112C8.73044 5.35102 8.62395 5.35092 8.51763 5.35083L7.88243 5.35025C7.77709 5.35015 7.67205 5.35006 7.56738 5.34997L6.63687 5.34917C6.53495 5.34908 6.43357 5.349 6.33281 5.34892L5.15688 5.34802C5.06199 5.34796 4.96795 5.34789 4.87483 5.34783Z" fill="#222F2B"/>
</svg>
