<svg width="20" height="20" viewBox="0 0 20 20" fill="none" xmlns="http://www.w3.org/2000/svg">
    <path d="M19.1746 4.89762C18.8754 4.20484 18.444 3.57706 17.9045 3.0494C17.3647 2.52017 16.7281 2.0996 16.0295 1.81056C15.3052 1.50965 14.5282 1.35563 13.7438 1.35744C12.6434 1.35744 11.5697 1.65878 10.6367 2.22797C10.4135 2.36413 10.2014 2.51369 10.0005 2.67663C9.79963 2.51369 9.58758 2.36413 9.36436 2.22797C8.43133 1.65878 7.35767 1.35744 6.25722 1.35744C5.46481 1.35744 4.69695 1.50922 3.97151 1.81056C3.27061 2.10074 2.63892 2.51815 2.09651 3.0494C1.55632 3.57646 1.1248 4.2044 0.826416 4.89762C0.516148 5.6186 0.357666 6.38422 0.357666 7.17217C0.357666 7.91547 0.509452 8.69003 0.810791 9.47797C1.06302 10.1365 1.42463 10.8195 1.88668 11.5092C2.61883 12.6007 3.62552 13.7391 4.87552 14.8932C6.94695 16.8061 8.99829 18.1275 9.08535 18.1811L9.61436 18.5204C9.84874 18.6699 10.1501 18.6699 10.3845 18.5204L10.9135 18.1811C11.0005 18.1253 13.0496 16.8061 15.1233 14.8932C16.3733 13.7391 17.38 12.6007 18.1121 11.5092C18.5742 10.8195 18.938 10.1365 19.188 9.47797C19.4894 8.69003 19.6412 7.91547 19.6412 7.17217C19.6434 6.38422 19.4849 5.6186 19.1746 4.89762ZM10.0005 16.7548C10.0005 16.7548 2.05409 11.6632 2.05409 7.17217C2.05409 4.89762 3.93579 3.05387 6.25722 3.05387C7.88892 3.05387 9.3041 3.96458 10.0005 5.29494C10.697 3.96458 12.1121 3.05387 13.7438 3.05387C16.0653 3.05387 17.947 4.89762 17.947 7.17217C17.947 11.6632 10.0005 16.7548 10.0005 16.7548Z"
          fill="#222F2B"/>
</svg>
