<svg width="19" height="18" viewBox="0 0 19 18" fill="none" xmlns="http://www.w3.org/2000/svg">
    <path d="M18.216 4.25168C17.9317 3.58352 17.5219 2.97804 17.0094 2.46914C16.4965 1.95872 15.8918 1.55309 15.2281 1.27432C14.54 0.984103 13.8019 0.835554 13.0567 0.837295C12.0113 0.837295 10.9913 1.12793 10.1049 1.6769C9.89286 1.80822 9.69141 1.95246 9.50056 2.10962C9.30971 1.95246 9.10826 1.80822 8.89621 1.6769C8.00982 1.12793 6.98984 0.837295 5.94442 0.837295C5.19163 0.837295 4.46217 0.983688 3.77299 1.27432C3.10714 1.55419 2.50703 1.95677 1.99174 2.46914C1.47856 2.97747 1.06863 3.58309 0.785156 4.25168C0.490402 4.94705 0.339844 5.68547 0.339844 6.44541C0.339844 7.16231 0.48404 7.90934 0.770313 8.66929C1.00993 9.30437 1.35346 9.96313 1.79241 10.6284C2.48795 11.6811 3.44431 12.779 4.63181 13.892C6.59967 15.737 8.54844 17.0115 8.63114 17.0632L9.13371 17.3904C9.35636 17.5346 9.64263 17.5346 9.86529 17.3904L10.3679 17.0632C10.4506 17.0093 12.3972 15.737 14.3672 13.892C15.5547 12.779 16.5111 11.6811 17.2066 10.6284C17.6455 9.96313 17.9912 9.30437 18.2287 8.66929C18.515 7.90934 18.6592 7.16231 18.6592 6.44541C18.6613 5.68547 18.5107 4.94705 18.216 4.25168ZM9.50056 15.6875C9.50056 15.6875 1.95145 10.7769 1.95145 6.44541C1.95145 4.25168 3.73906 2.47345 5.94442 2.47345C7.49453 2.47345 8.83895 3.3518 9.50056 4.63488C10.1622 3.3518 11.5066 2.47345 13.0567 2.47345C15.2621 2.47345 17.0497 4.25168 17.0497 6.44541C17.0497 10.7769 9.50056 15.6875 9.50056 15.6875Z"
          fill="#F3F6F5"/>
</svg>
