<svg width="16" height="17" viewBox="0 0 16 17" fill="none" xmlns="http://www.w3.org/2000/svg">
    <path d="M1.72388 0.573608H14.276C15.2267 0.573608 16 1.3587 16 2.32386V11.6588C16 12.6239 15.2267 13.409 14.276 13.409H10.298L8.98059 16.084C8.7511 16.5499 8.39368 16.8173 8 16.8173C7.60632 16.8173 7.2489 16.5499 7.01941 16.084L5.7019 13.409H1.72388C0.773315 13.409 0 12.6239 0 11.6588V2.32386C0 1.3587 0.773315 0.573608 1.72388 0.573608ZM0.9375 11.6588C0.9375 12.099 1.29028 12.4572 1.72388 12.4572H5.99158C6.16919 12.4572 6.33142 12.5591 6.41089 12.7203L7.85791 15.6583C7.91626 15.7768 7.97107 15.835 8 15.8573C8.02893 15.835 8.08374 15.7768 8.14209 15.6583L9.58911 12.7203C9.66846 12.5591 9.83081 12.4572 10.0083 12.4572H14.276C14.7097 12.4572 15.0625 12.099 15.0625 11.6588V2.32386C15.0625 1.88354 14.7097 1.52539 14.276 1.52539H1.72388C1.29028 1.52539 0.9375 1.88354 0.9375 2.32386V11.6588Z"
          fill="#F3F6F5"/>
</svg>
