<svg width="20" height="20" viewBox="0 0 20 20" fill="none" xmlns="http://www.w3.org/2000/svg">
<path d="M19.9812 6.72375L18.7312 1.72375C18.6625 1.445 18.4112 1.25 18.125 1.25H1.875C1.58875 1.25 1.3375 1.445 1.26875 1.72375L0.01875 6.72375C0.00625 6.7725 0 6.82375 0 6.875C0 7.9225 0.49625 8.84625 1.25 9.41375V18.125C1.25 18.47 1.53 18.75 1.875 18.75H8.125C8.47 18.75 8.75 18.47 8.75 18.125V13.75H11.25V18.125C11.25 18.47 11.53 18.75 11.875 18.75H18.125C18.47 18.75 18.75 18.47 18.75 18.125V9.41375C19.5037 8.84625 20 7.9225 20 6.875C20 6.82375 19.9937 6.7725 19.9812 6.72375ZM17.5 17.5H12.5V13.125C12.5 12.78 12.22 12.5 11.875 12.5H8.125C7.78 12.5 7.5 12.78 7.5 13.125V17.5H2.5V9.95C2.65375 9.97625 2.80875 10 2.96875 10C3.92125 10 4.76875 9.52625 5.3125 8.79125C5.85625 9.52625 6.70375 10 7.65625 10C8.60875 10 9.45625 9.52625 10 8.79125C10.5437 9.52625 11.3912 10 12.3438 10C13.2963 10 14.1438 9.52625 14.6875 8.79125C15.2312 9.52625 16.0788 10 17.0312 10C17.1912 10 17.3463 9.97625 17.5 9.95V17.5ZM17.0312 8.75C16.0837 8.75 15.3125 7.90875 15.3125 6.875C15.3125 6.53 15.0325 6.25 14.6875 6.25C14.3425 6.25 14.0625 6.53 14.0625 6.875C14.0625 7.90875 13.2913 8.75 12.3438 8.75C11.3962 8.75 10.625 7.90875 10.625 6.875C10.625 6.53 10.345 6.25 10 6.25C9.655 6.25 9.375 6.53 9.375 6.875C9.375 7.90875 8.60375 8.75 7.65625 8.75C6.70875 8.75 5.9375 7.90875 5.9375 6.875C5.9375 6.53 5.6575 6.25 5.3125 6.25C4.9675 6.25 4.6875 6.53 4.6875 6.875C4.6875 7.90875 3.91625 8.75 2.96875 8.75C2.04375 8.75 1.28625 7.9475 1.25125 6.9475L2.36375 2.5H17.6375L18.75 6.9475C18.7138 7.9475 17.9562 8.75 17.0312 8.75Z" fill="#222F2B"/>
</svg>
