<svg width="20" height="20" viewBox="0 0 20 20" fill="none" xmlns="http://www.w3.org/2000/svg">
<path d="M15.5104 12.9896C14.5846 12.0638 13.4827 11.3785 12.2804 10.9636C13.5681 10.0767 14.4141 8.59241 14.4141 6.91406C14.4141 4.20446 12.2096 2 9.5 2C6.79039 2 4.58594 4.20446 4.58594 6.91406C4.58594 8.59241 5.43192 10.0767 6.71964 10.9636C5.51735 11.3785 4.41541 12.0638 3.4896 12.9896C2.00253 14.4767 1.1343 16.4177 1.01435 18.5002C0.998475 18.7759 1.22386 19 1.5 19H1.82812C2.10427 19 2.32631 18.7754 2.34537 18.4999C2.60295 14.7777 5.7135 11.8281 9.5 11.8281C13.2865 11.8281 16.397 14.7777 16.6546 18.4999C16.6737 18.7754 16.8957 19 17.1719 19H17.5C17.7761 19 18.0015 18.7759 17.9856 18.5002C17.8657 16.4177 16.9975 14.4767 15.5104 12.9896ZM9.5 10.5C7.52272 10.5 5.91406 8.89138 5.91406 6.91406C5.91406 4.93675 7.52272 3.32812 9.5 3.32812C11.4773 3.32812 13.0859 4.93675 13.0859 6.91406C13.0859 8.89138 11.4773 10.5 9.5 10.5Z" fill="#222F2B"/>
</svg>
