<svg width="51" height="51" viewBox="0 0 51 51" fill="none" xmlns="http://www.w3.org/2000/svg">
<path d="M30.7247 40.9724C30.5943 40.9722 30.4667 40.9352 30.3566 40.8655C30.2465 40.7957 30.1585 40.6962 30.1026 40.5785C30.0468 40.4608 30.0255 40.3296 30.0411 40.2002C30.0568 40.0709 30.1089 39.9486 30.1912 39.8476L36.4422 32.1838C36.5577 32.0422 36.7248 31.9522 36.9066 31.9337C37.0885 31.9152 37.2702 31.9697 37.4119 32.0853C37.5535 32.2008 37.6435 32.3678 37.662 32.5497C37.6804 32.7315 37.6259 32.9133 37.5104 33.055L31.2595 40.7187C31.1948 40.7981 31.1132 40.862 31.0207 40.9059C30.9282 40.9498 30.827 40.9725 30.7247 40.9724Z" fill="#B8CCC6"/>
<path d="M20.2761 40.9724C20.1738 40.9724 20.0728 40.9496 19.9804 40.9057C19.8881 40.8619 19.8066 40.798 19.742 40.7187L13.491 33.055C13.4338 32.9848 13.391 32.9041 13.365 32.8174C13.339 32.7307 13.3303 32.6397 13.3395 32.5497C13.3486 32.4596 13.3754 32.3723 13.4183 32.2926C13.4612 32.2129 13.5194 32.1425 13.5896 32.0853C13.6597 32.0281 13.7404 31.9852 13.8271 31.9592C13.9138 31.9332 14.0048 31.9246 14.0948 31.9337C14.1849 31.9429 14.2722 31.9697 14.3519 32.0126C14.4316 32.0555 14.5021 32.1137 14.5593 32.1838L20.8102 39.8476C20.8926 39.9486 20.9446 40.0709 20.9603 40.2002C20.976 40.3296 20.9547 40.4608 20.8988 40.5785C20.843 40.6962 20.7549 40.7957 20.6448 40.8655C20.5347 40.9352 20.4071 40.9722 20.2768 40.9724H20.2761Z" fill="#B8CCC6"/>
<path d="M30.8483 49.6217H20.1521C20.0439 49.6217 19.9372 49.5962 19.8407 49.5473C19.7441 49.4984 19.6605 49.4275 19.5964 49.3402C19.5324 49.253 19.4898 49.1519 19.4722 49.0451C19.4545 48.9384 19.4622 48.8289 19.4946 48.7257L21.0315 43.8669C21.0566 43.7782 21.0993 43.6955 21.157 43.6236C21.2146 43.5516 21.2861 43.492 21.3672 43.4482C21.4484 43.4044 21.5374 43.3773 21.6292 43.3686C21.721 43.3598 21.8136 43.3696 21.9015 43.3973C21.9894 43.4249 22.0709 43.4699 22.1411 43.5297C22.2114 43.5894 22.2689 43.6626 22.3103 43.7449C22.3518 43.8273 22.3762 43.9171 22.3823 44.0091C22.3884 44.1011 22.376 44.1934 22.3458 44.2805L21.0929 48.2433H29.911L28.6636 44.2805C28.6334 44.1934 28.621 44.1011 28.6271 44.0091C28.6332 43.9171 28.6577 43.8273 28.6991 43.7449C28.7405 43.6626 28.798 43.5894 28.8683 43.5297C28.9385 43.4699 29.02 43.4249 29.1079 43.3973C29.1959 43.3696 29.2884 43.3598 29.3802 43.3686C29.472 43.3773 29.5611 43.4044 29.6422 43.4482C29.7233 43.492 29.7948 43.5516 29.8525 43.6236C29.9101 43.6955 29.9528 43.7782 29.9779 43.8669L31.5079 48.7257C31.5404 48.8291 31.5481 48.9387 31.5303 49.0456C31.5125 49.1526 31.4697 49.2538 31.4055 49.3411C31.3412 49.4283 31.2573 49.4992 31.1605 49.548C31.0637 49.5968 30.9567 49.622 30.8483 49.6217Z" fill="#B8CCC6"/>
<path d="M37.8722 33.5202C37.4488 33.5223 37.0312 33.4218 36.6551 33.2273C36.2326 33.0195 35.8725 32.7035 35.6116 32.3116C35.3506 31.9197 35.198 31.4657 35.1692 30.9957C34.6519 31.4469 33.9826 31.685 33.2965 31.6616C32.6104 31.6383 31.9588 31.3553 31.4734 30.8699C30.988 30.3845 30.705 29.7329 30.6817 29.0468C30.6583 28.3607 30.8964 27.6914 31.3477 27.1741C31.1412 27.1599 30.9372 27.1215 30.7398 27.0597C30.5795 27.0149 30.4409 26.9135 30.3496 26.7745C30.2582 26.6354 30.2202 26.468 30.2426 26.3031C30.265 26.1382 30.3464 25.987 30.4716 25.8774C30.5968 25.7678 30.7574 25.7072 30.9238 25.7068H30.9307C31.0025 25.7067 31.0739 25.7178 31.1423 25.7399C31.2686 25.7802 31.4004 25.8007 31.533 25.8005H33.0045C33.1406 25.8013 33.2735 25.8423 33.3864 25.9184C33.4993 25.9946 33.587 26.1025 33.6386 26.2285C33.6903 26.3545 33.7034 26.493 33.6764 26.6264C33.6494 26.7599 33.5834 26.8824 33.4869 26.9784L32.4435 28.0122C32.3201 28.1358 32.2222 28.2825 32.1555 28.444C32.0888 28.6054 32.0546 28.7784 32.0547 28.9531C32.0549 29.1278 32.0895 29.3007 32.1564 29.462C32.2234 29.6233 32.3216 29.7699 32.4452 29.8933C32.5688 30.0167 32.7155 30.1145 32.877 30.1812C33.0384 30.2479 33.2114 30.2822 33.3861 30.282C33.5608 30.2819 33.7337 30.2473 33.8951 30.1803C34.0564 30.1133 34.2029 30.0152 34.3263 29.8916L35.3601 28.8495C35.4561 28.753 35.5786 28.687 35.7121 28.66C35.8455 28.633 35.984 28.6462 36.11 28.6978C36.236 28.7494 36.3439 28.8372 36.42 28.95C36.4962 29.0629 36.5372 29.1958 36.5379 29.332V30.8034C36.5363 31.0506 36.6046 31.2933 36.7351 31.5033C36.8656 31.7134 37.0529 31.8821 37.2754 31.9902C37.4583 32.0856 37.6618 32.1348 37.8681 32.1335C38.2208 32.1331 38.559 31.9929 38.8085 31.7436C39.0579 31.4942 39.1983 31.1561 39.1989 30.8034V29.3395C39.1996 29.2034 39.2406 29.0705 39.3168 28.9576C39.393 28.8447 39.5008 28.757 39.6268 28.7054C39.7529 28.6537 39.8913 28.6406 40.0248 28.6676C40.1582 28.6946 40.2807 28.7606 40.3767 28.8571L41.4105 29.9005C41.6602 30.1498 41.9986 30.2896 42.3514 30.2893C42.7042 30.2889 43.0424 30.1485 43.2916 29.8988C43.5409 29.6491 43.6807 29.3107 43.6804 28.9579C43.6801 28.6051 43.5396 28.2669 43.2899 28.0177L42.2486 26.9839C42.152 26.8879 42.0861 26.7654 42.0591 26.6319C42.0321 26.4985 42.0452 26.36 42.0968 26.234C42.1484 26.108 42.2362 26.0001 42.3491 25.924C42.4619 25.8478 42.5948 25.8068 42.731 25.8061H44.2024C44.55 25.7982 44.8807 25.6545 45.1238 25.4059C45.3669 25.1572 45.503 24.8233 45.503 24.4756C45.503 24.1279 45.3669 23.794 45.1238 23.5453C44.8807 23.2967 44.55 23.153 44.2024 23.1451H42.7406C42.6045 23.1444 42.4716 23.1034 42.3587 23.0272C42.2458 22.951 42.1581 22.8432 42.1065 22.7171C42.0548 22.5911 42.0417 22.4527 42.0687 22.3192C42.0957 22.1858 42.1617 22.0633 42.2582 21.9673L43.3016 20.9335C43.425 20.8099 43.5229 20.6631 43.5896 20.5017C43.6563 20.3402 43.6905 20.1672 43.6904 19.9926C43.6902 19.8179 43.6557 19.6449 43.5887 19.4836C43.5217 19.3223 43.4235 19.1758 43.2999 19.0524C43.1763 18.9289 43.0296 18.8311 42.8681 18.7644C42.7067 18.6977 42.5337 18.6635 42.359 18.6636C42.1843 18.6638 42.0114 18.6983 41.85 18.7653C41.6887 18.8323 41.5422 18.9304 41.4188 19.0541L40.385 20.0954C40.289 20.192 40.1665 20.2579 40.033 20.2849C39.8996 20.3119 39.7611 20.2988 39.6351 20.2472C39.5091 20.1956 39.4012 20.1078 39.3251 19.9949C39.2489 19.8821 39.2079 19.7492 39.2072 19.613V18.1313C39.2072 17.7784 39.067 17.44 38.8175 17.1905C38.568 16.9409 38.2296 16.8008 37.8767 16.8008C37.5238 16.8008 37.1854 16.9409 36.9359 17.1905C36.6864 17.44 36.5462 17.7784 36.5462 18.1313V19.6027C36.5462 19.7391 36.5056 19.8725 36.4297 19.9859C36.3538 20.0993 36.246 20.1876 36.1198 20.2396C35.9937 20.2917 35.8549 20.3051 35.7212 20.2782C35.5874 20.2513 35.4646 20.1853 35.3684 20.0885L34.3346 19.0451C34.1347 18.8438 33.8754 18.712 33.595 18.6693C33.3145 18.6266 33.0277 18.6753 32.777 18.808C32.6949 18.8462 32.6061 18.8679 32.5157 18.8718C32.4252 18.8756 32.3349 18.8616 32.2498 18.8306C32.1648 18.7996 32.0867 18.7521 32.02 18.6909C31.9533 18.6296 31.8993 18.5559 31.8611 18.4738C31.8229 18.3917 31.8013 18.3029 31.7974 18.2124C31.7935 18.122 31.8075 18.0316 31.8385 17.9466C31.8696 17.8615 31.9171 17.7834 31.9783 17.7167C32.0395 17.65 32.1133 17.596 32.1954 17.5578C32.6747 17.319 33.2144 17.2284 33.7455 17.2978C34.2765 17.3671 34.7749 17.5933 35.1768 17.9472C35.2244 17.263 35.5299 16.6222 36.0315 16.1543C36.5331 15.6865 37.1935 15.4263 37.8794 15.4263C38.5654 15.4263 39.2258 15.6865 39.7274 16.1543C40.229 16.6222 40.5344 17.263 40.5821 17.9472C41.0994 17.496 41.7687 17.2579 42.4548 17.2813C43.1409 17.3046 43.7925 17.5876 44.2779 18.073C44.7633 18.5584 45.0463 19.21 45.0696 19.8961C45.093 20.5822 44.8549 21.2515 44.4037 21.7688C45.0889 21.8152 45.7309 22.1202 46.1998 22.622C46.6688 23.1238 46.9296 23.785 46.9296 24.4718C46.9296 25.1586 46.6688 25.8198 46.1998 26.3216C45.7309 26.8234 45.0889 27.1283 44.4037 27.1748C44.8549 27.6921 45.093 28.3614 45.0696 29.0475C45.0463 29.7336 44.7633 30.3852 44.2779 30.8706C43.7925 31.356 43.1409 31.639 42.4548 31.6623C41.7687 31.6857 41.0994 31.4476 40.5821 30.9963C40.5342 31.6821 40.2278 32.3241 39.7248 32.7926C39.2218 33.2611 38.5596 33.5211 37.8722 33.5202Z" fill="#B8CCC6"/>
<path d="M37.8722 28.0611C37.1622 28.0611 36.468 27.8505 35.8777 27.456C35.2873 27.0615 34.8271 26.5008 34.5554 25.8448C34.2837 25.1887 34.2127 24.4669 34.3513 23.7705C34.4898 23.0741 34.8318 22.4344 35.334 21.9323C35.8361 21.4303 36.4758 21.0884 37.1723 20.95C37.8687 20.8116 38.5905 20.8828 39.2465 21.1546C39.9025 21.4264 40.4631 21.8866 40.8575 22.4771C41.2519 23.0676 41.4623 23.7617 41.4622 24.4718C41.4611 25.4235 41.0825 26.3359 40.4095 27.0088C39.7364 27.6817 38.8239 28.0602 37.8722 28.0611ZM37.8722 22.2602C37.4348 22.2602 37.0072 22.3899 36.6435 22.6329C36.2798 22.8759 35.9963 23.2213 35.829 23.6254C35.6616 24.0296 35.6178 24.4742 35.7031 24.9032C35.7884 25.3323 35.9991 25.7263 36.3084 26.0356C36.6177 26.3449 37.0117 26.5556 37.4408 26.6409C37.8698 26.7262 38.3144 26.6824 38.7186 26.515C39.1227 26.3476 39.4681 26.0642 39.7111 25.7005C39.9541 25.3368 40.0838 24.9092 40.0838 24.4718C40.0831 23.8855 39.8498 23.3235 39.4352 22.909C39.0206 22.4945 38.4585 22.2614 37.8722 22.2609V22.2602Z" fill="#B8CCC6"/>
<path d="M25.4998 29.1733C24.8131 29.1723 24.1525 28.9107 23.6512 28.4416C23.1499 27.9724 22.8452 27.3304 22.7988 26.6454C22.2818 27.096 21.6129 27.3336 20.9274 27.3101C20.2419 27.2866 19.5909 27.0038 19.1059 26.5188C18.6209 26.0338 18.3381 25.3828 18.3146 24.6973C18.2911 24.0118 18.5287 23.343 18.9793 22.8259C18.2937 22.7807 17.6508 22.4765 17.1812 21.9748C16.7115 21.4732 16.4502 20.8118 16.4502 20.1246C16.4502 19.4374 16.7115 18.776 17.1812 18.2744C17.6508 17.7728 18.2937 17.4685 18.9793 17.4233C18.5269 16.9066 18.2878 16.2372 18.3106 15.5507C18.3334 14.8642 18.6163 14.2121 19.102 13.7265C19.5949 13.2544 20.2448 12.9808 20.927 12.9582C21.6091 12.9355 22.2757 13.1654 22.7988 13.6038C22.844 12.9182 23.1482 12.2753 23.6499 11.8057C24.1515 11.336 24.8129 11.0747 25.5001 11.0747C26.1873 11.0747 26.8487 11.336 27.3503 11.8057C27.8519 12.2753 28.1562 12.9182 28.2014 13.6038C28.7245 13.1653 29.391 12.9353 30.0733 12.9579C30.7555 12.9806 31.4053 13.2543 31.8982 13.7265C32.3839 14.2121 32.6668 14.8642 32.6896 15.5507C32.7124 16.2372 32.4733 16.9066 32.0209 17.4233C32.7065 17.4685 33.3494 17.7728 33.819 18.2744C34.2887 18.776 34.55 19.4374 34.55 20.1246C34.55 20.8118 34.2887 21.4732 33.819 21.9748C33.3494 22.4765 32.7065 22.7807 32.0209 22.8259C32.4715 23.343 32.7091 24.0118 32.6856 24.6973C32.6621 25.3828 32.3793 26.0338 31.8943 26.5188C31.4093 27.0038 30.7583 27.2866 30.0728 27.3101C29.3873 27.3336 28.7184 27.096 28.2014 26.6454C28.1549 27.3305 27.8502 27.9726 27.3488 28.4418C26.8473 28.911 26.1865 29.1724 25.4998 29.1733ZM23.4818 24.3063C23.6646 24.3063 23.8399 24.3789 23.9691 24.5081C24.0984 24.6374 24.171 24.8127 24.171 24.9955V26.4648C24.167 26.6418 24.1983 26.8178 24.2633 26.9825C24.3282 27.1472 24.4254 27.2973 24.5492 27.4239C24.673 27.5505 24.8208 27.6511 24.9839 27.7198C25.1471 27.7884 25.3224 27.8238 25.4994 27.8238C25.6764 27.8238 25.8517 27.7884 26.0149 27.7198C26.1781 27.6511 26.3259 27.5505 26.4496 27.4239C26.5734 27.2973 26.6706 27.1472 26.7355 26.9825C26.8005 26.8178 26.8319 26.6418 26.8278 26.4648V24.9955C26.8278 24.8592 26.8683 24.7259 26.944 24.6126C27.0197 24.4993 27.1274 24.411 27.2533 24.3589C27.3792 24.3067 27.5178 24.2931 27.6514 24.3196C27.7851 24.3462 27.9079 24.4118 28.0043 24.5082L29.0443 25.5482C29.1673 25.6733 29.3138 25.7728 29.4755 25.841C29.6372 25.9092 29.8108 25.9447 29.9863 25.9454C30.1617 25.9461 30.3356 25.9121 30.4979 25.8453C30.6601 25.7785 30.8075 25.6802 30.9316 25.5561C31.0556 25.432 31.1539 25.2845 31.2206 25.1223C31.2874 24.96 31.3214 24.7861 31.3206 24.6106C31.3198 24.4352 31.2842 24.2616 31.216 24.0999C31.1477 23.9383 31.0482 23.7917 30.923 23.6688L29.8837 22.6295C29.7873 22.5331 29.7217 22.4103 29.6951 22.2766C29.6686 22.143 29.6822 22.0044 29.7344 21.8785C29.7865 21.7526 29.8748 21.6449 29.9881 21.5692C30.1014 21.4935 30.2347 21.4531 30.3709 21.453H31.8403C32.1927 21.453 32.5307 21.313 32.7799 21.0638C33.0291 20.8146 33.1691 20.4767 33.1691 20.1243C33.1691 19.7719 33.0291 19.4339 32.7799 19.1847C32.5307 18.9355 32.1927 18.7955 31.8403 18.7955H30.3709C30.2347 18.7955 30.1014 18.755 29.9881 18.6793C29.8748 18.6036 29.7865 18.496 29.7344 18.37C29.6822 18.2441 29.6686 18.1056 29.6951 17.9719C29.7217 17.8382 29.7873 17.7154 29.8837 17.6191L30.923 16.5798C31.0465 16.4564 31.1445 16.3099 31.2113 16.1487C31.2782 15.9874 31.3126 15.8146 31.3126 15.6401C31.3126 15.4655 31.2782 15.2927 31.2113 15.1314C31.1445 14.9702 31.0465 14.8237 30.923 14.7003C30.6701 14.4585 30.3336 14.3235 29.9836 14.3235C29.6337 14.3235 29.2972 14.4585 29.0443 14.7003L28.0043 15.7396C27.9079 15.836 27.7851 15.9016 27.6514 15.9282C27.5178 15.9548 27.3792 15.9411 27.2533 15.889C27.1274 15.8368 27.0197 15.7485 26.944 15.6352C26.8683 15.5219 26.8278 15.3887 26.8278 15.2524V13.7837C26.8319 13.6067 26.8005 13.4307 26.7355 13.266C26.6706 13.1013 26.5734 12.9513 26.4496 12.8247C26.3259 12.698 26.1781 12.5974 26.0149 12.5288C25.8517 12.4601 25.6764 12.4247 25.4994 12.4247C25.3224 12.4247 25.1471 12.4601 24.9839 12.5288C24.8208 12.5974 24.673 12.698 24.5492 12.8247C24.4254 12.9513 24.3282 13.1013 24.2633 13.266C24.1983 13.4307 24.167 13.6067 24.171 13.7837V15.2538C24.171 15.3901 24.1305 15.5233 24.0548 15.6366C23.9791 15.7499 23.8714 15.8382 23.7455 15.8904C23.6196 15.9425 23.4811 15.9562 23.3474 15.9296C23.2137 15.903 23.0909 15.8374 22.9946 15.741L21.9546 14.7003C21.7015 14.4588 21.3651 14.324 21.0152 14.324C20.6653 14.324 20.3289 14.4588 20.0758 14.7003C19.9523 14.8237 19.8543 14.9702 19.7875 15.1314C19.7206 15.2927 19.6862 15.4655 19.6862 15.6401C19.6862 15.8146 19.7206 15.9874 19.7875 16.1487C19.8543 16.3099 19.9523 16.4564 20.0758 16.5798L21.1151 17.6191C21.2115 17.7154 21.2771 17.8382 21.3037 17.9719C21.3303 18.1056 21.3166 18.2441 21.2645 18.37C21.2123 18.496 21.124 18.6036 21.0107 18.6793C20.8974 18.755 20.7642 18.7955 20.6279 18.7955H19.1592C18.8068 18.7955 18.4688 18.9355 18.2196 19.1847C17.9704 19.4339 17.8305 19.7719 17.8305 20.1243C17.8305 20.4767 17.9704 20.8146 18.2196 21.0638C18.4688 21.313 18.8068 21.453 19.1592 21.453H20.6293C20.7655 21.4531 20.8988 21.4935 21.0121 21.5692C21.1254 21.6449 21.2137 21.7526 21.2658 21.8785C21.318 22.0044 21.3316 22.143 21.3051 22.2766C21.2785 22.4103 21.2129 22.5331 21.1165 22.6295L20.0758 23.6688C19.8302 23.9186 19.6932 24.2554 19.6946 24.6058C19.6961 24.9562 19.8359 25.2919 20.0836 25.5397C20.3314 25.7875 20.667 25.9274 21.0174 25.929C21.3678 25.9306 21.7046 25.7937 21.9546 25.5482L22.9946 24.5082C23.1238 24.3789 23.299 24.3063 23.4818 24.3063Z" fill="#B8CCC6"/>
<path d="M25.5001 23.7144C24.7901 23.7144 24.096 23.5039 23.5057 23.1094C22.9153 22.7149 22.4551 22.1542 22.1834 21.4982C21.9117 20.8423 21.8406 20.1204 21.9791 19.424C22.1177 18.7277 22.4596 18.088 22.9616 17.5859C23.4637 17.0838 24.1034 16.7419 24.7998 16.6034C25.4962 16.4649 26.218 16.536 26.874 16.8077C27.53 17.0794 28.0906 17.5396 28.4851 18.1299C28.8796 18.7203 29.0901 19.4144 29.0901 20.1244C29.089 21.0762 28.7105 21.9887 28.0374 22.6617C27.3644 23.3347 26.4519 23.7133 25.5001 23.7144ZM25.5001 17.9135C25.0627 17.9135 24.6351 18.0432 24.2714 18.2863C23.9077 18.5293 23.6242 18.8748 23.4568 19.2789C23.2894 19.6831 23.2457 20.1278 23.3311 20.5568C23.4165 20.9858 23.6272 21.3799 23.9365 21.6892C24.2459 21.9985 24.64 22.209 25.0691 22.2943C25.4982 22.3796 25.9429 22.3357 26.347 22.1682C26.7511 22.0007 27.0964 21.7171 27.3394 21.3533C27.5823 20.9895 27.7119 20.5619 27.7118 20.1244C27.7112 19.538 27.478 18.9758 27.0634 18.5612C26.6487 18.1465 26.0865 17.9134 25.5001 17.9128V17.9135Z" fill="#B8CCC6"/>
<path d="M24.0622 13.0491C23.8785 13.0482 23.7027 12.9743 23.5735 12.8438C23.4442 12.7133 23.3721 12.5367 23.3731 12.353C23.374 12.1693 23.4478 11.9935 23.5784 11.8643C23.7089 11.735 23.8854 11.6629 24.0691 11.6638C24.2519 11.6638 24.4272 11.7364 24.5565 11.8657C24.6857 11.9949 24.7583 12.1702 24.7583 12.353C24.7571 12.5372 24.6833 12.7136 24.553 12.8438C24.4228 12.9741 24.2465 13.0478 24.0622 13.0491Z" fill="#B8CCC6"/>
<path d="M11.7025 17.3827C11.585 17.3826 11.4695 17.3525 11.3669 17.2952C11.1375 17.1689 10.9269 17.0111 10.7411 16.8265C10.2564 16.3406 9.97395 15.6891 9.95067 15.0032C9.92739 14.3172 10.165 13.648 10.6157 13.1304C9.93141 13.0827 9.29068 12.7773 8.8228 12.2757C8.35492 11.7741 8.09473 11.1137 8.09473 10.4277C8.09473 9.7418 8.35492 9.0814 8.8228 8.5798C9.29068 8.0782 9.93141 7.77275 10.6157 7.72509C10.1654 7.20772 9.92824 6.5388 9.95196 5.85336C9.97567 5.16791 10.2585 4.51699 10.7435 4.03198C11.2284 3.54696 11.8793 3.26397 12.5647 3.24013C13.2501 3.21629 13.9191 3.45338 14.4366 3.90353C14.4842 3.21925 14.7897 2.57852 15.2913 2.11064C15.7929 1.64276 16.4533 1.38257 17.1392 1.38257C17.8252 1.38257 18.4856 1.64276 18.9872 2.11064C19.4888 2.57852 19.7942 3.21925 19.8419 3.90353C20.3589 3.45146 21.0284 3.21275 21.7148 3.23574C22.4013 3.25872 23.0533 3.54168 23.5389 4.02732C24.0246 4.51297 24.3076 5.16501 24.3305 5.85143C24.3535 6.53785 24.1148 7.20736 23.6627 7.7244C24.1797 7.76033 24.6755 7.94354 25.0917 8.25237C25.5078 8.56119 25.8268 8.98272 26.0109 9.4671C26.195 9.95149 26.2366 10.4785 26.1307 10.9857C26.0248 11.493 25.7758 11.9593 25.4133 12.3296L24.4243 11.3716L24.4312 11.3647C24.6144 11.177 24.7382 10.9396 24.7873 10.682C24.8363 10.4244 24.8084 10.158 24.7071 9.91617C24.6057 9.67431 24.4353 9.46767 24.2173 9.32204C23.9992 9.17641 23.743 9.09823 23.4808 9.09726H22.0094C21.8729 9.09724 21.7395 9.0567 21.6262 8.9808C21.5128 8.90489 21.4244 8.79704 21.3724 8.6709C21.3204 8.54475 21.307 8.406 21.3338 8.27223C21.3607 8.13845 21.4267 8.01567 21.5235 7.91944L22.5669 6.88566C22.8089 6.63458 22.9426 6.29854 22.9392 5.94988C22.9358 5.60122 22.7957 5.26782 22.549 5.02144C22.3023 4.77507 21.9686 4.63543 21.62 4.63259C21.2713 4.62975 20.9355 4.76392 20.6848 5.00624L19.651 6.04829C19.5546 6.14625 19.4312 6.21319 19.2966 6.24051C19.162 6.26784 19.0222 6.25429 18.8953 6.20163C18.7685 6.14896 18.6602 6.05957 18.5845 5.94494C18.5088 5.8303 18.469 5.69566 18.4704 5.55828V4.08755C18.4704 3.73468 18.3302 3.39627 18.0807 3.14676C17.8312 2.89724 17.4928 2.75707 17.1399 2.75707C16.787 2.75707 16.4486 2.89724 16.1991 3.14676C15.9496 3.39627 15.8094 3.73468 15.8094 4.08755V5.55828C15.8087 5.69444 15.7677 5.82734 15.6915 5.94021C15.6154 6.05307 15.5075 6.14085 15.3815 6.19246C15.2555 6.24407 15.117 6.2572 14.9835 6.23019C14.8501 6.20319 14.7276 6.13725 14.6316 6.04071L13.5978 4.99728C13.3477 4.74778 13.0087 4.60786 12.6554 4.60832C12.3021 4.60877 11.9634 4.74955 11.7139 4.99969C11.4644 5.24983 11.3245 5.58884 11.325 5.94214C11.3254 6.29544 11.4662 6.63409 11.7163 6.88359L12.7584 7.91737C12.8551 8.0136 12.9211 8.13638 12.948 8.27016C12.9749 8.40394 12.9615 8.54269 12.9095 8.66883C12.8574 8.79497 12.7691 8.90283 12.6557 8.97873C12.5423 9.05463 12.409 9.09517 12.2725 9.0952H10.8004C10.4475 9.0952 10.1091 9.23537 9.8596 9.48488C9.61009 9.7344 9.46992 10.0728 9.46992 10.4257C9.46992 10.7785 9.61009 11.117 9.8596 11.3665C10.1091 11.616 10.4475 11.7562 10.8004 11.7562H12.2718C12.408 11.7569 12.5409 11.7979 12.6537 11.8741C12.7666 11.9502 12.8544 12.0581 12.906 12.1841C12.9576 12.3101 12.9707 12.4486 12.9437 12.582C12.9167 12.7155 12.8508 12.838 12.7542 12.934L11.7163 13.9719C11.4677 14.2215 11.3281 14.5594 11.3281 14.9116C11.3281 15.2639 11.4677 15.6018 11.7163 15.8513C11.8126 15.9461 11.9217 16.0271 12.0402 16.0918C12.1735 16.1663 12.2783 16.2828 12.3381 16.4232C12.398 16.5636 12.4095 16.7199 12.371 16.8676C12.3324 17.0153 12.2459 17.146 12.1251 17.2392C12.0042 17.3324 11.8559 17.3829 11.7032 17.3827H11.7025Z" fill="#B8CCC6"/>
<path d="M17.723 19.3888C17.5872 19.3876 17.4549 19.3463 17.3425 19.2702C17.2302 19.194 17.1428 19.0863 17.0914 18.9607C17.04 18.8351 17.0268 18.697 17.0535 18.564C17.0803 18.4309 17.1457 18.3086 17.2417 18.2126C17.3376 18.1166 17.4598 18.051 17.5928 18.0241C17.7259 17.9973 17.8639 18.0103 17.9896 18.0616C18.1153 18.1129 18.223 18.2001 18.2993 18.3124C18.3756 18.4247 18.417 18.557 18.4184 18.6928C18.4173 18.8769 18.3437 19.0532 18.2136 19.1835C18.0834 19.3138 17.9071 19.3876 17.723 19.3888Z" fill="#B8CCC6"/>
<path d="M17.1405 14.0166C16.4304 14.0168 15.7363 13.8063 15.1458 13.412C14.5553 13.0176 14.0951 12.4569 13.8233 11.801C13.5515 11.145 13.4803 10.4231 13.6187 9.72671C13.7571 9.03027 14.099 8.39054 14.601 7.8884C15.1031 7.38626 15.7428 7.04428 16.4392 6.9057C17.1356 6.76713 17.8574 6.83818 18.5135 7.10988C19.1695 7.38157 19.7302 7.84171 20.1247 8.4321C20.5192 9.02248 20.7298 9.7166 20.7298 10.4267C20.7287 11.3783 20.3502 12.2907 19.6773 12.9637C19.0045 13.6367 18.0922 14.0154 17.1405 14.0166ZM17.1405 8.21574C16.703 8.2156 16.2753 8.34521 15.9115 8.58817C15.5477 8.83114 15.2641 9.17654 15.0967 9.58068C14.9292 9.98483 14.8853 10.4296 14.9706 10.8586C15.056 11.2877 15.2666 11.6818 15.576 11.9912C15.8853 12.3005 16.2794 12.5112 16.7085 12.5965C17.1376 12.6818 17.5823 12.638 17.9865 12.4705C18.3906 12.303 18.736 12.0194 18.979 11.6556C19.2219 11.2918 19.3515 10.8641 19.3514 10.4267C19.3507 9.84051 19.1175 9.27858 18.703 8.86411C18.2886 8.44964 17.7266 8.21647 17.1405 8.21574Z" fill="#B8CCC6"/>
<path d="M33.2774 19.3888C33.0933 19.3876 32.917 19.3138 32.7869 19.1835C32.6567 19.0532 32.5831 18.8769 32.582 18.6928C32.5834 18.557 32.6248 18.4247 32.7011 18.3124C32.7774 18.2001 32.8851 18.1129 33.0108 18.0616C33.1365 18.0103 33.2745 17.9973 33.4076 18.0241C33.5406 18.051 33.6628 18.1166 33.7588 18.2126C33.8547 18.3086 33.9201 18.4309 33.9469 18.564C33.9736 18.697 33.9604 18.8351 33.909 18.9607C33.8576 19.0863 33.7703 19.194 33.6579 19.2702C33.5455 19.3463 33.4132 19.3876 33.2774 19.3888Z" fill="#B8CCC6"/>
<path d="M39.2983 17.3827C39.1457 17.3829 38.9973 17.3324 38.8764 17.2392C38.7556 17.146 38.6691 17.0153 38.6306 16.8676C38.592 16.7199 38.6036 16.5636 38.6634 16.4232C38.7233 16.2828 38.828 16.1663 38.9613 16.0918C39.0796 16.027 39.1884 15.9461 39.2845 15.8513C39.5335 15.6017 39.6734 15.2635 39.6734 14.9109C39.6734 14.5583 39.5335 14.2201 39.2845 13.9705L38.2431 12.9367C38.1466 12.8407 38.0807 12.7182 38.0537 12.5848C38.0266 12.4513 38.0398 12.3129 38.0914 12.1869C38.143 12.0609 38.2308 11.953 38.3436 11.8768C38.4565 11.8006 38.5894 11.7596 38.7256 11.7589H40.197C40.5499 11.7589 40.8883 11.6187 41.1378 11.3692C41.3873 11.1197 41.5275 10.7813 41.5275 10.4284C41.5275 10.0756 41.3873 9.73715 41.1378 9.48764C40.8883 9.23813 40.5499 9.09795 40.197 9.09795H38.729C38.5926 9.09792 38.4592 9.05739 38.3458 8.98149C38.2324 8.90558 38.1441 8.79773 38.092 8.67158C38.04 8.54544 38.0266 8.40669 38.0535 8.27292C38.0804 8.13914 38.1464 8.01636 38.2431 7.92013L39.2845 6.88152C39.5264 6.63045 39.6601 6.29441 39.6568 5.94575C39.6534 5.59708 39.5133 5.26368 39.2666 5.01731C39.0198 4.77094 38.6862 4.6313 38.3376 4.62846C37.9889 4.62561 37.653 4.75979 37.4023 5.0021L36.3692 6.04416C36.2732 6.1407 36.1507 6.20663 36.0173 6.23364C35.8838 6.26065 35.7454 6.24752 35.6194 6.19591C35.4934 6.1443 35.3855 6.05652 35.3093 5.94365C35.2331 5.83078 35.1921 5.69788 35.1914 5.56172V4.08755C35.1914 3.73468 35.0512 3.39627 34.8017 3.14676C34.5522 2.89724 34.2138 2.75707 33.8609 2.75707C33.5081 2.75707 33.1696 2.89724 32.9201 3.14676C32.6706 3.39627 32.5304 3.73468 32.5304 4.08755V5.55828C32.5304 5.69473 32.4899 5.82811 32.414 5.9415C32.3381 6.05489 32.2302 6.14321 32.1041 6.19524C31.9779 6.24728 31.8392 6.2607 31.7054 6.2338C31.5716 6.20691 31.4488 6.1409 31.3526 6.04416L30.3188 5.00072C30.0678 4.75878 29.7317 4.62509 29.3831 4.62845C29.0344 4.6318 28.701 4.77193 28.4546 5.01866C28.2083 5.2654 28.0686 5.59901 28.0658 5.94767C28.0629 6.29634 28.1971 6.63218 28.4394 6.8829L29.4815 7.91668C29.5782 8.01291 29.6442 8.13569 29.6711 8.26947C29.698 8.40325 29.6846 8.542 29.6326 8.66814C29.5805 8.79428 29.4922 8.90214 29.3788 8.97804C29.2654 9.05394 29.132 9.09448 28.9956 9.09451H27.5207C27.1676 9.09487 26.8291 9.23539 26.5796 9.48519C26.3301 9.73498 26.1899 10.0736 26.1899 10.4267C26.1901 10.7809 26.3297 11.1209 26.5786 11.373C26.7052 11.5041 26.7751 11.6797 26.7732 11.862C26.7713 12.0443 26.6976 12.2184 26.5683 12.3468C26.4394 12.4731 26.2662 12.5438 26.0858 12.5438C25.9054 12.5438 25.7322 12.4731 25.6034 12.3468C25.0983 11.8351 24.814 11.1457 24.8115 10.4267C24.8123 9.74034 25.0734 9.07981 25.542 8.57831C26.0106 8.07682 26.652 7.77167 27.3367 7.7244C26.8846 7.20736 26.6459 6.53785 26.6689 5.85143C26.6919 5.16501 26.9749 4.51297 27.4605 4.02732C27.9461 3.54168 28.5982 3.25872 29.2846 3.23574C29.971 3.21275 30.6405 3.45146 31.1576 3.90353C31.2052 3.21925 31.5107 2.57852 32.0123 2.11064C32.5139 1.64276 33.1743 1.38257 33.8602 1.38257C34.5462 1.38257 35.2066 1.64276 35.7082 2.11064C36.2098 2.57852 36.5152 3.21925 36.5629 3.90353C37.0796 3.44864 37.75 3.20754 38.4381 3.22924C39.1261 3.25093 39.7801 3.53379 40.2671 4.02033C40.754 4.50687 41.0375 5.16058 41.0598 5.8486C41.0821 6.53662 40.8416 7.20733 40.3872 7.7244C41.0715 7.77206 41.7122 8.07751 42.1801 8.57911C42.648 9.08071 42.9082 9.74111 42.9082 10.4271C42.9082 11.113 42.648 11.7734 42.1801 12.275C41.7122 12.7766 41.0715 13.0821 40.3872 13.1297C40.8379 13.6473 41.0755 14.3166 41.0522 15.0025C41.029 15.6884 40.7465 16.34 40.2618 16.8258C40.076 17.0104 39.8654 17.1682 39.636 17.2945C39.5329 17.3524 39.4166 17.3828 39.2983 17.3827Z" fill="#B8CCC6"/>
<path d="M26.9373 13.0492C26.7531 13.048 26.5768 12.9742 26.4465 12.844C26.3162 12.7137 26.2425 12.5374 26.2412 12.3532C26.2426 12.2174 26.284 12.0852 26.3602 11.9729C26.4365 11.8606 26.5442 11.7733 26.6698 11.722C26.7955 11.6707 26.9335 11.6577 27.0665 11.6845C27.1996 11.7113 27.3217 11.7768 27.4177 11.8728C27.5137 11.9687 27.5792 12.0909 27.606 12.2239C27.6328 12.357 27.6197 12.495 27.5684 12.6206C27.5171 12.7463 27.4298 12.854 27.3176 12.9302C27.2053 13.0065 27.073 13.0479 26.9373 13.0492Z" fill="#B8CCC6"/>
<path d="M32.4242 18.8837C32.3345 18.8839 32.2457 18.8662 32.1629 18.8318C32.0801 18.7974 32.0049 18.7468 31.9417 18.6832L31.9348 18.6763C31.8244 18.563 31.7565 18.415 31.7428 18.2574C31.7291 18.0998 31.7703 17.9423 31.8595 17.8117C31.9488 17.681 32.0804 17.5853 32.2322 17.5407C32.384 17.4961 32.5465 17.5054 32.6922 17.5671C32.8379 17.6287 32.9578 17.7389 33.0315 17.8789C33.1052 18.0189 33.1281 18.1801 33.0965 18.3351C33.0648 18.4901 32.9805 18.6293 32.8578 18.7292C32.7351 18.8291 32.5817 18.8835 32.4235 18.883L32.4242 18.8837Z" fill="#B8CCC6"/>
<path d="M33.8595 14.0166C33.1495 14.0166 32.4554 13.8061 31.865 13.4116C31.2747 13.0171 30.8145 12.4565 30.5428 11.8005C30.2711 11.1445 30.2 10.4227 30.3385 9.72629C30.477 9.0299 30.8189 8.39022 31.321 7.88815C31.8231 7.38609 32.4628 7.04417 33.1591 6.90565C33.8555 6.76713 34.5774 6.83823 35.2333 7.10994C35.8893 7.38166 36.45 7.8418 36.8445 8.43217C37.239 9.02254 37.4495 9.71663 37.4495 10.4267C37.4484 11.3784 37.0698 12.2909 36.3968 12.964C35.7238 13.637 34.8113 14.0156 33.8595 14.0166ZM33.8595 8.21574C33.4221 8.21574 32.9945 8.34547 32.6307 8.58851C32.267 8.83156 31.9836 9.177 31.8162 9.58116C31.6488 9.98532 31.6051 10.43 31.6905 10.8591C31.7758 11.2881 31.9866 11.6822 32.2959 11.9914C32.6053 12.3007 32.9994 12.5113 33.4285 12.5965C33.8575 12.6818 34.3022 12.6379 34.7063 12.4704C35.1104 12.3029 35.4558 12.0193 35.6987 11.6556C35.9417 11.2918 36.0713 10.8641 36.0711 10.4267C36.0704 9.84039 35.8371 9.27835 35.4225 8.86387C35.0079 8.44938 34.4458 8.21629 33.8595 8.21574Z" fill="#B8CCC6"/>
<path d="M13.1277 33.5201C12.4414 33.5193 11.7808 33.2584 11.2792 32.7899C10.7777 32.3215 10.4723 31.6803 10.4247 30.9956C9.9074 31.4469 9.23806 31.6849 8.55199 31.6616C7.86592 31.6382 7.21431 31.3552 6.7289 30.8698C6.2435 30.3844 5.96052 29.7328 5.93717 29.0468C5.91382 28.3607 6.15185 27.6913 6.60313 27.1741C5.91789 27.1276 5.27587 26.8226 4.80694 26.3208C4.338 25.819 4.07715 25.1579 4.07715 24.4711C4.07715 23.7843 4.338 23.1231 4.80694 22.6213C5.27587 22.1195 5.91789 21.8145 6.60313 21.7681C6.15185 21.2508 5.91382 20.5814 5.93717 19.8954C5.96052 19.2093 6.2435 18.5577 6.7289 18.0723C7.21431 17.5869 7.86592 17.3039 8.55199 17.2805C9.23806 17.2572 9.9074 17.4952 10.4247 17.9465C10.4723 17.2622 10.7778 16.6215 11.2794 16.1536C11.781 15.6857 12.4414 15.4255 13.1273 15.4255C13.8133 15.4255 14.4737 15.6857 14.9753 16.1536C15.4769 16.6215 15.7823 17.2622 15.83 17.9465C16.237 17.588 16.7428 17.3607 17.2811 17.2943C17.8195 17.2279 18.3653 17.3255 18.8473 17.5743C18.9869 17.6419 19.0996 17.7546 19.1672 17.8941C19.2349 18.0337 19.2534 18.192 19.22 18.3435C19.1865 18.4949 19.1029 18.6306 18.9828 18.7287C18.8626 18.8267 18.7129 18.8814 18.5578 18.8838H18.5509C18.439 18.8838 18.3288 18.8566 18.2298 18.8045C17.9786 18.6721 17.6916 18.6237 17.4109 18.6667C17.1303 18.7096 16.8708 18.8415 16.6708 19.043L15.637 20.0851C15.5408 20.1818 15.418 20.2478 15.2842 20.2747C15.1505 20.3016 15.0117 20.2882 14.8856 20.2361C14.7594 20.1841 14.6516 20.0958 14.5757 19.9824C14.4998 19.869 14.4592 19.7356 14.4592 19.5992V18.1312C14.4592 17.7783 14.319 17.4399 14.0695 17.1904C13.82 16.9409 13.4816 16.8007 13.1287 16.8007C12.7759 16.8007 12.4374 16.9409 12.1879 17.1904C11.9384 17.4399 11.7982 17.7783 11.7982 18.1312V19.6026C11.7975 19.7388 11.7565 19.8717 11.6803 19.9846C11.6042 20.0974 11.4963 20.1852 11.3703 20.2368C11.2443 20.2884 11.1058 20.3015 10.9724 20.2745C10.8389 20.2475 10.7164 20.1816 10.6204 20.0851L9.58663 19.0416C9.33695 18.7924 8.99848 18.6526 8.6457 18.6529C8.29292 18.6532 7.95471 18.7937 7.70549 19.0433C7.45626 19.293 7.31643 19.6315 7.31675 19.9843C7.31707 20.3371 7.45753 20.6753 7.70721 20.9245L8.74858 21.9583C8.84512 22.0543 8.91105 22.1768 8.93806 22.3102C8.96507 22.4437 8.95194 22.5821 8.90033 22.7081C8.84872 22.8341 8.76094 22.942 8.64807 23.0182C8.5352 23.0944 8.4023 23.1354 8.26614 23.1361H6.78783C6.61056 23.1321 6.43427 23.1635 6.26932 23.2285C6.10437 23.2936 5.95408 23.391 5.82728 23.5149C5.70048 23.6388 5.59973 23.7869 5.53094 23.9503C5.46216 24.1137 5.42672 24.2893 5.42672 24.4666C5.42672 24.6439 5.46216 24.8194 5.53094 24.9829C5.59973 25.1463 5.70048 25.2943 5.82728 25.4183C5.95408 25.5422 6.10437 25.6396 6.26932 25.7046C6.43427 25.7697 6.61056 25.8011 6.78783 25.7971H8.25925C8.39541 25.7978 8.52831 25.8388 8.64118 25.915C8.75405 25.9911 8.84182 26.099 8.89343 26.225C8.94504 26.351 8.95817 26.4895 8.93117 26.6229C8.90416 26.7564 8.83822 26.8789 8.74168 26.9749L7.69825 28.0087C7.44902 28.2584 7.30919 28.5968 7.30952 28.9496C7.30984 29.3024 7.45029 29.6406 7.69997 29.8898C7.94966 30.139 8.28812 30.2789 8.6409 30.2785C8.99368 30.2782 9.33189 30.1378 9.58112 29.8881L10.6149 28.846C10.7109 28.7495 10.8334 28.6836 10.9668 28.6566C11.1003 28.6295 11.2388 28.6427 11.3648 28.6943C11.4908 28.7459 11.5987 28.8337 11.6748 28.9465C11.751 29.0594 11.792 29.1923 11.7927 29.3285V30.7999C11.7927 31.1528 11.9329 31.4912 12.1824 31.7407C12.4319 31.9902 12.7703 32.1304 13.1232 32.1304C13.4761 32.1304 13.8145 31.9902 14.064 31.7407C14.3135 31.4912 14.4537 31.1528 14.4537 30.7999V29.3395C14.4544 29.2033 14.4954 29.0704 14.5716 28.9576C14.6477 28.8447 14.7556 28.7569 14.8816 28.7053C15.0076 28.6537 15.1461 28.6406 15.2796 28.6676C15.413 28.6946 15.5355 28.7605 15.6315 28.8571L16.6653 29.9005C16.7889 30.0239 16.9356 30.1217 17.0971 30.1884C17.2585 30.2551 17.4315 30.2894 17.6062 30.2892C17.7809 30.2891 17.9538 30.2545 18.1152 30.1875C18.2765 30.1205 18.423 30.0224 18.5464 29.8988C18.6698 29.7751 18.7677 29.6284 18.8344 29.467C18.9011 29.3055 18.9353 29.1325 18.9352 28.9578C18.935 28.7832 18.9004 28.6102 18.8335 28.4489C18.7665 28.2876 18.6683 28.141 18.5447 28.0176L17.5027 26.9838C17.4061 26.8878 17.3402 26.7654 17.3132 26.6319C17.2862 26.4984 17.2993 26.36 17.3509 26.234C17.4025 26.108 17.4903 26.0001 17.6032 25.9239C17.716 25.8478 17.8489 25.8067 17.9851 25.806H19.4565C19.5891 25.8062 19.721 25.7857 19.8473 25.7454C19.9508 25.7148 20.06 25.7085 20.1663 25.7268C20.2727 25.7451 20.3734 25.7876 20.4608 25.851C20.5482 25.9144 20.6198 25.997 20.6702 26.0924C20.7206 26.1878 20.7484 26.2936 20.7515 26.4015C20.7518 26.5575 20.6991 26.709 20.602 26.8312C20.505 26.9534 20.3694 27.039 20.2174 27.0741C20.0298 27.13 19.8365 27.1649 19.6412 27.1782C20.0925 27.6955 20.3305 28.3648 20.3072 29.0509C20.2838 29.737 20.0008 30.3886 19.5154 30.874C19.03 31.3594 18.3784 31.6424 17.6923 31.6657C17.0063 31.6891 16.3369 31.451 15.8197 30.9998C15.7712 31.6818 15.4669 32.3204 14.9678 32.7877C14.4687 33.255 13.8114 33.5166 13.1277 33.5201Z" fill="#B8CCC6"/>
<path d="M13.1278 28.0611C12.4177 28.0612 11.7235 27.8508 11.133 27.4563C10.5426 27.0619 10.0823 26.5013 9.81051 25.8452C9.53871 25.1892 9.46756 24.4673 9.60606 23.7709C9.74456 23.0744 10.0865 22.4347 10.5886 21.9326C11.0907 21.4305 11.7304 21.0886 12.4269 20.9501C13.1233 20.8116 13.8452 20.8827 14.5012 21.1545C15.1573 21.4263 15.7179 21.8866 16.1123 22.477C16.5068 23.0675 16.7172 23.7617 16.7171 24.4718C16.7158 25.4233 16.3372 26.3355 15.6644 27.0084C14.9915 27.6812 14.0793 28.0598 13.1278 28.0611ZM13.1278 22.2602C12.6903 22.26 12.2627 22.3896 11.8989 22.6326C11.5351 22.8755 11.2515 23.2209 11.084 23.625C10.9165 24.0291 10.8726 24.4738 10.9579 24.9028C11.0432 25.3319 11.2537 25.726 11.563 26.0354C11.8723 26.3448 12.2664 26.5555 12.6954 26.6408C13.1244 26.7262 13.5691 26.6825 13.9733 26.5151C14.3774 26.3477 14.7229 26.0643 14.9659 25.7006C15.209 25.3368 15.3387 24.9092 15.3387 24.4718C15.3378 23.8857 15.1046 23.3239 14.6901 22.9094C14.2757 22.495 13.7139 22.2618 13.1278 22.2609V22.2602Z" fill="#B8CCC6"/>
<path d="M29.6354 44.7972H21.3652C20.634 44.7972 19.9328 44.5068 19.4158 43.9898C18.8988 43.4728 18.6084 42.7716 18.6084 42.0405C18.6084 41.3093 18.8988 40.6081 19.4158 40.0911C19.9328 39.5741 20.634 39.2837 21.3652 39.2837H29.6354C30.3666 39.2837 31.0678 39.5741 31.5847 40.0911C32.1017 40.6081 32.3922 41.3093 32.3922 42.0405C32.3922 42.7716 32.1017 43.4728 31.5847 43.9898C31.0678 44.5068 30.3666 44.7972 29.6354 44.7972ZM21.3652 40.6621C20.9996 40.6621 20.649 40.8073 20.3905 41.0658C20.132 41.3243 19.9868 41.6749 19.9868 42.0405C19.9868 42.406 20.132 42.7566 20.3905 43.0151C20.649 43.2736 20.9996 43.4188 21.3652 43.4188H29.6354C30.001 43.4188 30.3516 43.2736 30.6101 43.0151C30.8686 42.7566 31.0138 42.406 31.0138 42.0405C31.0138 41.6749 30.8686 41.3243 30.6101 41.0658C30.3516 40.8073 30.001 40.6621 29.6354 40.6621H21.3652Z" fill="#B8CCC6"/>
</svg>
