<svg width="45" height="45" viewBox="0 0 45 45" fill="none" xmlns="http://www.w3.org/2000/svg">
    <g clip-path="url(#clip0)">
        <path d="M42.1875 22.5H2.8125C1.26187 22.5 0 21.2381 0 19.6875V12.1875C0 10.6369 1.26187 9.375 2.8125 9.375H42.1875C43.7381 9.375 45 10.6369 45 12.1875V19.6875C45 21.2381 43.7381 22.5 42.1875 22.5ZM2.8125 11.25C2.29688 11.25 1.875 11.67 1.875 12.1875V19.6875C1.875 20.205 2.29688 20.625 2.8125 20.625H42.1875C42.7031 20.625 43.125 20.205 43.125 19.6875V12.1875C43.125 11.67 42.7031 11.25 42.1875 11.25H2.8125Z"
              fill="#B8CCC6"/>
        <path d="M36.5625 45H8.4375C5.85188 45 3.75 42.8962 3.75 40.3125V21.5625C3.75 21.045 4.17 20.625 4.6875 20.625C5.205 20.625 5.625 21.045 5.625 21.5625V40.3125C5.625 41.8631 6.88687 43.125 8.4375 43.125H36.5625C38.1131 43.125 39.375 41.8631 39.375 40.3125V21.5625C39.375 21.045 39.795 20.625 40.3125 20.625C40.83 20.625 41.25 21.045 41.25 21.5625V40.3125C41.25 42.8962 39.1481 45 36.5625 45Z"
              fill="#B8CCC6"/>
        <path d="M22.5 45C21.9825 45 21.5625 44.58 21.5625 44.0625V21.5625C21.5625 21.045 21.9825 20.625 22.5 20.625C23.0175 20.625 23.4375 21.045 23.4375 21.5625V44.0625C23.4375 44.58 23.0175 45 22.5 45Z"
              fill="#B8CCC6"/>
        <path d="M22.5 11.2498C22.4325 11.2498 22.365 11.2423 22.2975 11.2273C21.1163 10.9648 15.1406 9.57919 13.5619 8.00044C12.675 7.11731 12.1875 5.93981 12.1875 4.68731C12.1875 3.43481 12.675 2.25731 13.56 1.37231C15.3881 -0.45581 18.3619 -0.45581 20.1881 1.37231C21.7669 2.94919 23.1525 8.92669 23.415 10.1098C23.4844 10.4229 23.3888 10.7492 23.1619 10.9742C22.9856 11.1523 22.7456 11.2498 22.5 11.2498ZM16.875 1.87669C16.155 1.87669 15.4331 2.15044 14.8856 2.69794C14.355 3.23044 14.0625 3.93544 14.0625 4.68731C14.0625 5.43919 14.355 6.14419 14.8856 6.67669C15.615 7.40606 18.6638 8.39044 21.2325 9.04669C20.5744 6.47794 19.5919 3.42919 18.8625 2.69981C18.3169 2.15044 17.595 1.87669 16.875 1.87669Z"
              fill="#B8CCC6"/>
        <path d="M22.4996 11.2499C22.254 11.2499 22.014 11.1524 21.8359 10.9761C21.609 10.7493 21.5134 10.423 21.5827 10.1118C21.8452 8.92864 23.2309 2.95302 24.8096 1.37427C26.6377 -0.455732 29.6115 -0.451982 31.4377 1.37427C32.3246 2.25739 32.8121 3.43489 32.8121 4.68739C32.8121 5.93989 32.3246 7.11739 31.4396 8.00239C29.8609 9.58114 23.8852 10.9668 22.704 11.2293C22.6346 11.2424 22.5671 11.2499 22.4996 11.2499ZM28.1246 1.87677C27.4046 1.87677 26.6827 2.15052 26.1352 2.69802C25.4059 3.42739 24.4234 6.47614 23.7652 9.04489C26.334 8.38864 29.3827 7.40427 30.1121 6.67489C30.6446 6.14427 30.9371 5.43927 30.9371 4.68739C30.9371 3.93552 30.6446 3.23052 30.114 2.69802C29.5665 2.15052 28.8446 1.87677 28.1246 1.87677ZM25.4734 2.03614H25.4921H25.4734Z"
              fill="#B8CCC6"/>
    </g>
    <defs>
        <clipPath id="clip0">
            <rect width="45" height="45" fill="white"/>
        </clipPath>
    </defs>
</svg>
