<svg width="45" height="45" viewBox="0 0 45 45" fill="none" xmlns="http://www.w3.org/2000/svg">
<g clip-path="url(#clip0)">
<path d="M39.5333 8.43841C38.9292 7.33081 38.0592 6.38994 37.018 5.69675C37.2756 5.57502 37.5359 5.44354 37.7987 5.3001C38.0034 5.18848 38.1338 4.9771 38.1419 4.74402C38.1499 4.51102 38.0343 4.29103 37.8379 4.16561C37.7745 4.12518 36.2625 3.17042 34.2707 2.82967C31.844 2.41474 29.7624 3.0828 28.2003 4.76388C27.0073 3.09791 25.4288 1.80144 23.5757 0.981155C21.0692 -0.128377 18.1332 -0.300554 15.0847 0.483342C11.5044 1.40408 8.83822 3.94131 7.76955 7.44446C7.33924 8.8551 7.02582 10.9548 7.51608 13.6731C7.20055 13.6024 6.88643 13.5965 6.6072 13.6379C6.24703 13.6913 5.99829 14.0265 6.05164 14.3867C6.10499 14.7468 6.44038 14.9957 6.80038 14.9422C7.05544 14.9046 7.6778 14.899 7.98893 15.6414C8.73161 18.1285 10.1367 21.0304 12.5952 24.3073C11.789 24.0909 10.9787 24.0407 10.2462 24.188C8.96109 24.4463 7.99877 25.2986 7.53664 26.5879C7.25161 27.383 7.24529 28.1297 7.32834 28.85C6.05454 29.0496 4.89843 29.858 4.31264 31.1115C2.80391 34.3401 4.29779 39.1229 4.36212 39.3249C4.41793 39.5002 4.5445 39.6442 4.71114 39.7221C4.79947 39.7633 4.89474 39.7841 4.99019 39.7841C5.07492 39.7841 5.15964 39.7677 5.23971 39.735C5.43588 39.6548 10.0631 37.7322 11.5717 34.5034C12.5069 32.5021 11.6395 30.113 9.63811 29.1779C9.31907 29.0288 8.99 28.926 8.65866 28.8659C8.57191 28.2323 8.55969 27.6406 8.77757 27.0329C9.08642 26.1714 9.6679 25.6492 10.5059 25.4808C11.9153 25.1975 13.8143 25.9493 15.0233 27.2686C18.5243 31.206 20.3269 35.6395 21.2227 38.6658C22.1983 41.9619 22.3409 44.3535 22.3423 44.3768C22.3614 44.7281 22.6523 45.0002 22.9999 45.0001C23.012 45.0001 23.0242 44.9999 23.0364 44.9992C23.3999 44.9793 23.6786 44.6686 23.6588 44.305C23.6532 44.203 23.5109 41.7663 22.4987 38.3315C21.8192 36.0256 20.6347 32.9375 18.6226 29.8334C18.6165 29.8186 18.6106 29.8037 18.6034 29.7891C18.4811 29.5415 18.1348 28.6942 18.8124 28.1916C19.1048 27.9746 19.166 27.5617 18.9492 27.2693C18.7322 26.9769 18.3193 26.9157 18.0269 27.1326C17.713 27.3655 17.4754 27.6543 17.3175 27.9799C16.9075 27.444 16.4709 26.9123 16.0052 26.3887C12.7649 22.7459 10.5502 19.183 9.42269 15.7993C8.73354 13.7311 8.46995 11.7344 8.63246 9.91612C9.0285 9.24287 9.60111 8.9277 10.2951 9.00583C10.6801 9.04899 11.1098 9.21897 11.5324 9.51771C11.2992 9.7587 11.1008 10.0359 10.945 10.3436C10.5383 11.1472 10.4688 12.061 10.7494 12.9168C11.6643 15.7071 15.241 17.7272 15.3928 17.8118C15.492 17.8671 15.6025 17.8952 15.7138 17.8952C15.7829 17.8952 15.8522 17.8843 15.9191 17.8623C16.0939 17.805 16.2369 17.6773 16.3133 17.5099C16.3856 17.3518 18.0717 13.606 17.157 10.8158C16.5778 9.04925 14.6692 8.08333 12.9026 8.66236C12.8286 8.68661 12.7564 8.71412 12.6848 8.74304C12.01 8.15769 11.2407 7.78512 10.4418 7.69556C9.93316 7.63843 9.45204 7.70417 9.0154 7.8811C9.0205 7.86396 9.02463 7.84629 9.02991 7.82924C9.96119 4.77601 12.2875 2.56398 15.4123 1.76039C15.7779 1.66635 16.1396 1.58742 16.4973 1.52291C16.4977 1.52282 16.4981 1.52291 16.4986 1.52282C16.7079 1.49865 16.8952 1.54822 17.0256 1.66275C17.2038 1.81946 17.244 2.0717 17.2464 2.25566C17.251 2.6168 17.5452 2.90649 17.9055 2.90649C17.9084 2.90649 17.9112 2.90649 17.9141 2.90649C18.2781 2.90183 18.5696 2.60291 18.5649 2.23887C18.5606 1.90453 18.4928 1.59305 18.369 1.31839C20.0365 1.25959 21.6002 1.5491 23.0412 2.18701C24.2708 2.73141 25.3651 3.51399 26.2814 4.49555C24.0469 5.63154 23.2892 7.52356 23.057 8.9778C22.7874 10.6662 23.1624 12.099 23.1785 12.1592C23.2307 12.3545 23.3696 12.515 23.5555 12.5948C23.6386 12.6304 23.7271 12.6481 23.8153 12.6481C23.9242 12.6481 24.0328 12.6211 24.1309 12.5676C24.3365 12.4555 24.5574 12.3485 24.7912 12.2351C24.8556 12.2039 24.9201 12.1726 24.9848 12.141C24.9828 13.4283 25.3015 14.7038 25.9303 15.8566C27.7872 19.2615 33.3619 22.8176 33.5983 22.9673C33.7077 23.0365 33.8297 23.0697 33.9503 23.0697C34.1687 23.0697 34.3824 22.9612 34.508 22.7631C34.5333 22.7231 34.5535 22.6814 34.5693 22.6388H34.5694C34.6981 22.2906 34.818 21.9455 34.9336 21.6023C36.8688 22.546 38.0321 22.9918 38.086 23.0123C38.1618 23.0412 38.2413 23.0555 38.3205 23.0555C38.4296 23.0555 38.5382 23.0284 38.6361 22.975C38.8052 22.8828 38.9256 22.7212 38.9655 22.5326C38.9774 22.4762 39.2326 21.2573 39.4872 19.1201C39.8379 19.2086 40.1937 19.2936 40.5559 19.374V19.3738C40.6003 19.3837 40.6464 19.3892 40.6937 19.3896C40.6955 19.3896 40.6972 19.3896 40.6988 19.3896C41.0605 19.3896 41.3551 19.0979 41.358 18.7355C41.3607 18.4556 41.3902 11.8434 39.5333 8.43841ZM8.90062 30.297C8.961 30.3201 9.02103 30.3446 9.08044 30.3724C9.73083 30.6761 10.2239 31.2153 10.469 31.8901C10.7141 32.565 10.6815 33.2948 10.3776 33.9452C9.40168 36.0338 6.69861 37.5684 5.42331 38.1987C5.08863 36.8159 4.53149 33.7581 5.50743 31.6695C5.90161 30.8257 6.68112 30.2826 7.53911 30.151C7.73536 31.2652 7.86316 32.3368 7.14676 33.5706C6.96395 33.8855 7.071 34.289 7.38582 34.4718C7.49006 34.5323 7.60379 34.5611 7.7162 34.5611C7.9434 34.5611 8.16462 34.4435 8.28697 34.2328C9.14267 32.7593 9.08334 31.4614 8.90062 30.297ZM12.1222 10.939C12.216 10.7534 12.3354 10.5863 12.4756 10.4405C12.8953 10.9898 13.2589 11.697 13.4973 12.5667C13.5776 12.8596 13.8431 13.052 14.1327 13.052C14.1904 13.052 14.2491 13.0443 14.3074 13.0283C14.6585 12.9321 14.8652 12.5694 14.769 12.2182C14.5232 11.3218 14.1403 10.5132 13.6627 9.83455C13.7595 9.82067 13.8562 9.81284 13.9524 9.81284C14.8159 9.81284 15.6216 10.3624 15.9049 11.2266C16.4504 12.8902 15.8002 15.133 15.3937 16.2575C14.4002 15.5918 12.5484 14.1696 12.003 12.506C11.8321 11.9847 11.8745 11.4283 12.1222 10.939ZM34.0112 4.12307C34.7712 4.24919 35.4604 4.48412 35.9962 4.70939C33.0981 5.93871 30.6325 5.7254 29.3561 5.46472C30.5808 4.26422 32.1422 3.8129 34.0112 4.12307ZM25.2209 10.2513C25.1954 10.3523 25.173 10.4537 25.1516 10.5551C24.9075 10.7094 24.61 10.8574 24.3132 11.0017C24.1641 9.61518 24.2683 6.84197 27.1398 5.54804C27.3148 5.79352 27.4804 6.04822 27.6364 6.31137C26.4551 7.34066 25.6107 8.70832 25.2209 10.2513ZM37.8201 21.4772C37.2639 21.2395 36.4123 20.8596 35.3363 20.331C35.5703 19.5372 35.7677 18.7604 35.9262 18.0049C36.6482 18.2812 37.4075 18.5364 38.2014 18.7694C38.0631 19.9598 37.9214 20.8811 37.8201 21.4772ZM34.8743 16.1309C34.5445 15.9771 34.1521 16.1201 33.9984 16.45C33.8446 16.78 33.9875 17.1722 34.3175 17.3259C34.4386 17.3823 34.5613 17.438 34.685 17.493C34.4373 18.7344 34.0784 20.0411 33.6135 21.3929C32.0798 20.342 28.4204 17.6675 27.0884 15.2251C26.3109 13.7994 26.1016 12.1477 26.4991 10.5742C26.626 10.0721 26.8114 9.59277 27.0483 9.14347C27.1517 11.4289 28.7497 13.8126 31.4345 15.6852C31.5494 15.7653 31.6809 15.8037 31.8111 15.8037C32.0193 15.8037 32.2242 15.7053 32.3524 15.5216C32.5607 15.223 32.4875 14.8121 32.1888 14.6038C29.8394 12.9651 28.4457 10.9501 28.3648 9.07535C28.3238 8.12613 28.6343 7.31833 29.2387 6.79336C29.8094 6.90419 30.5458 6.99736 31.4116 6.99736C32.5628 6.99736 33.9415 6.83203 35.4578 6.32499C36.7054 6.9063 37.711 7.85042 38.3757 9.06947C39.7064 11.5096 39.9737 16.0373 40.027 17.896C38.1116 17.4254 36.3814 16.8328 34.8743 16.1309Z" fill="#B8CCC6"/>
<path d="M32.0363 30.8584C31.9933 30.6772 30.9523 26.3875 28.3962 23.9269C27.0201 22.6022 25.2444 22.1946 24.0145 22.8225C23.0778 22.0533 22.3381 21.6084 22.2817 21.5748C21.9687 21.3885 21.5643 21.4913 21.378 21.8042C21.1918 22.117 21.2944 22.5216 21.6073 22.7078C21.6193 22.715 22.2371 23.0867 23.0443 23.7353C22.7115 24.3003 22.6108 25.005 22.7634 25.7734C22.9416 26.6707 23.4526 27.5623 24.202 28.2838C26.7582 30.7445 31.0843 31.6214 31.2672 31.6575C31.3098 31.6659 31.3525 31.67 31.3949 31.67C31.5723 31.67 31.7444 31.5983 31.8699 31.4679C32.0254 31.3063 32.088 31.0766 32.0363 30.8584ZM25.1165 27.334C24.5672 26.8053 24.181 26.143 24.0566 25.5166C24.014 25.3019 23.9784 24.9621 24.0776 24.6413C24.575 25.1187 25.0798 25.6712 25.52 26.2844C25.6488 26.4638 25.851 26.5591 26.0562 26.5591C26.1893 26.5591 26.3236 26.5189 26.4401 26.4354C26.7358 26.223 26.8034 25.8111 26.5911 25.5154C26.1505 24.9016 25.6568 24.3467 25.1651 23.8592C25.2013 23.857 25.2376 23.8551 25.2747 23.8551C25.9577 23.8551 26.797 24.2176 27.4818 24.8768C29.0293 26.3665 29.9813 28.7212 30.4345 30.0864C29.053 29.6852 26.6639 28.8235 25.1165 27.334Z" fill="#B8CCC6"/>
</g>
<defs>
<clipPath id="clip0">
<rect width="45" height="45" fill="white"/>
</clipPath>
</defs>
</svg>
