<svg width="45" height="45" viewBox="0 0 45 45" fill="none" xmlns="http://www.w3.org/2000/svg">
<path d="M4.4276 12.1563C4.34904 12.2339 4.28989 12.329 4.25492 12.4338C4.21995 12.5385 4.21016 12.6501 4.22633 12.7593C4.24259 12.8685 4.63669 15.4704 5.88166 18.777C7.84522 23.9918 10.4529 27.0167 12.4218 28.6898C11.551 31.4292 11.8944 34.1853 13.452 36.9114C13.5385 37.0627 13.678 37.1765 13.8435 37.2307C14.0091 37.285 14.1889 37.2759 14.3481 37.2051L15.2903 36.7863C14.476 38.5349 14.0625 40.5777 14.0625 42.8907C14.0625 43.0772 14.1366 43.256 14.2685 43.3879C14.4003 43.5197 14.5792 43.5938 14.7656 43.5938H30.2344C30.4209 43.5938 30.5997 43.5197 30.7316 43.3879C30.8634 43.256 30.9375 43.0772 30.9375 42.8907C30.9375 40.5777 30.5244 38.5349 29.7098 36.7863L30.652 37.2051C30.8112 37.276 30.9911 37.2852 31.1568 37.2309C31.3224 37.1766 31.462 37.0628 31.5485 36.9114C33.1063 34.1851 33.4495 31.4289 32.5786 28.6894C35.9749 25.8089 38.0043 21.7373 39.1188 18.7771C40.3638 15.4704 40.7579 12.8685 40.7742 12.7593C40.7903 12.6501 40.7805 12.5385 40.7456 12.4337C40.7106 12.329 40.6514 12.2339 40.5729 12.1563C40.4943 12.0786 40.3986 12.0206 40.2934 11.9868C40.1882 11.9531 40.0766 11.9446 39.9675 11.9621C39.6385 12.0148 39.3094 12.0658 38.9802 12.115C39.2439 9.5579 38.2186 6.80974 37.9654 6.18C37.9272 4.90109 37.3923 3.68737 36.4741 2.79626C35.556 1.90515 34.3268 1.40674 33.0473 1.40674C31.7679 1.40674 30.5387 1.90515 29.6205 2.79626C28.7024 3.68737 28.1675 4.90109 28.1292 6.18C28.0571 6.35939 27.923 6.70866 27.7739 7.17545C27.6245 6.70875 27.4907 6.35939 27.4186 6.18C27.3803 4.90109 26.8454 3.68737 25.9273 2.79626C25.0091 1.90515 23.7799 1.40674 22.5005 1.40674C21.221 1.40674 19.9918 1.90515 19.0737 2.79626C18.1555 3.68737 17.6206 4.90109 17.5824 6.18C17.5102 6.35939 17.3761 6.70866 17.227 7.17545C17.0776 6.70866 16.9438 6.35939 16.8717 6.18C16.8335 4.90109 16.2985 3.68737 15.3804 2.79626C14.4622 1.90515 13.2331 1.40674 11.9536 1.40674C10.6741 1.40674 9.44494 1.90515 8.52679 2.79626C7.60864 3.68737 7.07372 4.90109 7.03549 6.18C6.78236 6.80974 5.7565 9.55746 6.02061 12.115C5.69138 12.0654 5.36231 12.0144 5.03343 11.9621C4.92428 11.9445 4.81255 11.953 4.70729 11.9867C4.60202 12.0205 4.5062 12.0786 4.4276 12.1563ZM14.3727 35.6553C13.0148 32.9596 13.0148 30.3217 14.3727 27.6261L19.6875 29.9883V30.783L17.0129 30.2481C16.9224 30.23 16.8292 30.2299 16.7386 30.2479C16.648 30.2658 16.5618 30.3014 16.485 30.3526C16.4081 30.4038 16.3422 30.4697 16.2908 30.5464C16.2394 30.6231 16.2036 30.7092 16.1855 30.7997C16.1674 30.8903 16.1673 30.9835 16.1852 31.0741C16.2032 31.1647 16.2387 31.2509 16.29 31.3277C16.3412 31.4045 16.407 31.4705 16.4838 31.5219C16.5605 31.5733 16.6466 31.609 16.7371 31.6271L19.6875 32.2172V33.293L14.3727 35.6553ZM15.4828 42.1875C15.586 39.6416 16.2591 37.501 17.4843 35.8112L20.5401 34.4532H24.46L27.5154 35.8112C28.7408 37.501 29.4139 39.6415 29.517 42.1875H15.4828ZM21.0938 33.0469V30.2344H23.9063V33.0469H21.0938ZM30.6274 35.6553L25.3125 33.293V32.2172L28.2629 31.6271C28.3535 31.6089 28.4396 31.5732 28.5163 31.5218C28.593 31.4704 28.6589 31.4044 28.7101 31.3276C28.7613 31.2508 28.7969 31.1646 28.8148 31.074C28.8327 30.9834 28.8326 30.8902 28.8145 30.7997C28.7964 30.7091 28.7607 30.623 28.7093 30.5463C28.6579 30.4696 28.5919 30.4037 28.5151 30.3525C28.4382 30.3013 28.3521 30.2657 28.2615 30.2478C28.1709 30.2298 28.0777 30.2299 27.9871 30.2481L25.3125 30.783V29.9883L30.6274 27.6262C31.9853 30.3218 31.9853 32.9597 30.6274 35.6553ZM37.5344 12.3223C36.5911 12.4519 35.6469 12.5694 34.702 12.6746C34.5731 12.1404 34.3933 11.6199 34.165 11.1201C34.8199 10.966 35.4364 10.6798 35.9766 10.279C36.5169 9.87816 36.9696 9.37117 37.3069 8.78912C37.5549 9.85154 37.7305 11.15 37.5344 12.3223ZM29.602 5.62506C29.7651 6.41856 30.1968 7.13157 30.8243 7.64389C31.4519 8.15621 32.2368 8.43652 33.0469 8.43756C33.6063 8.43756 34.1429 8.21532 34.5385 7.81974C34.934 7.42415 35.1563 6.88763 35.1563 6.32818C35.1563 5.76874 34.934 5.23222 34.5385 4.83663C34.1429 4.44105 33.6063 4.21881 33.0469 4.21881C32.8604 4.21881 32.6816 4.29289 32.5497 4.42475C32.4179 4.55661 32.3438 4.73545 32.3438 4.92193C32.3438 5.10842 32.4179 5.28726 32.5497 5.41912C32.6816 5.55098 32.8604 5.62506 33.0469 5.62506C33.2334 5.62506 33.4122 5.69914 33.5441 5.831C33.676 5.96286 33.75 6.1417 33.75 6.32818C33.75 6.51466 33.676 6.69351 33.5441 6.82537C33.4122 6.95723 33.2334 7.03131 33.0469 7.03131C32.4875 7.03131 31.9509 6.80907 31.5554 6.41349C31.1598 6.0179 30.9375 5.48138 30.9375 4.92193C30.9375 4.36249 31.1598 3.82597 31.5554 3.43038C31.9509 3.0348 32.4875 2.81256 33.0469 2.81256C33.772 2.81287 34.4792 3.03746 35.0716 3.45553C35.664 3.8736 36.1126 4.46468 36.3559 5.14773C36.5991 5.83078 36.6251 6.57236 36.4303 7.27077C36.2356 7.96919 35.8295 8.59026 35.2678 9.04881C34.7062 9.50737 34.0164 9.78096 33.2931 9.83208C32.5699 9.88319 31.8485 9.70933 31.2279 9.33433C30.6074 8.95933 30.118 8.40155 29.8269 7.73747C29.5358 7.0734 29.4573 6.33553 29.602 5.62506ZM28.7019 9.1841C28.729 9.04975 28.7576 8.91832 28.7876 8.78982C29.1839 9.47474 29.7394 10.0541 30.4069 10.479C31.0745 10.9039 31.8346 11.1617 32.6229 11.2306C32.754 11.4231 33.0383 11.9122 33.2874 12.8232C31.7877 12.9706 30.2866 13.087 28.7841 13.1725C28.3142 11.91 28.4692 10.3352 28.7019 9.1841ZM39.2011 13.5042C38.6629 16.0285 36.8055 22.9931 32.0313 27.3006C31.8856 26.99 31.7245 26.6798 31.5479 26.37C31.4615 26.2186 31.3219 26.1047 31.1563 26.0504C30.9906 25.9962 30.8107 26.0054 30.6514 26.0762L24.46 28.8282H23.1845C23.008 25.4764 22.2712 22.3054 20.9894 19.3958C20.2572 17.725 19.3385 16.1423 18.2508 14.6778C25.2556 14.9442 32.2699 14.5513 39.2011 13.5042ZM26.8474 9.19597C27.0854 10.3788 27.2406 11.9982 26.7269 13.2711C25.9241 13.3019 25.1212 13.3237 24.318 13.3366C24.1863 12.5712 23.9637 11.8244 23.6546 11.1119C24.302 10.9543 24.9109 10.6673 25.4444 10.2682C25.978 9.86917 26.4253 9.36624 26.7594 8.78974C26.7901 8.92175 26.8194 9.05716 26.8474 9.19597ZM19.0552 5.62506C19.2183 6.41856 19.6499 7.13157 20.2775 7.64389C20.905 8.15621 21.6899 8.43652 22.5 8.43756C23.0595 8.43756 23.596 8.21532 23.9916 7.81974C24.3872 7.42415 24.6094 6.88763 24.6094 6.32818C24.6094 5.76874 24.3872 5.23222 23.9916 4.83663C23.596 4.44105 23.0595 4.21881 22.5 4.21881C22.3135 4.21881 22.1347 4.29289 22.0028 4.42475C21.871 4.55661 21.7969 4.73545 21.7969 4.92193C21.7969 5.10842 21.871 5.28726 22.0028 5.41912C22.1347 5.55098 22.3135 5.62506 22.5 5.62506C22.6865 5.62506 22.8653 5.69914 22.9972 5.831C23.1291 5.96286 23.2031 6.1417 23.2031 6.32818C23.2031 6.51466 23.1291 6.69351 22.9972 6.82537C22.8653 6.95723 22.6865 7.03131 22.5 7.03131C21.9406 7.03131 21.4041 6.80907 21.0085 6.41349C20.6129 6.0179 20.3906 5.48138 20.3906 4.92193C20.3906 4.36249 20.6129 3.82597 21.0085 3.43038C21.4041 3.0348 21.9406 2.81256 22.5 2.81256C23.2251 2.81287 23.9323 3.03746 24.5247 3.45553C25.1171 3.8736 25.5657 4.46468 25.809 5.14773C26.0522 5.83078 26.0783 6.57236 25.8835 7.27077C25.6887 7.96919 25.2826 8.59026 24.721 9.04881C24.1593 9.50737 23.4695 9.78096 22.7463 9.83208C22.023 9.88319 21.3016 9.70933 20.6811 9.33433C20.0605 8.95933 19.5711 8.40155 19.28 7.73747C18.9889 7.0734 18.9104 6.33553 19.0552 5.62506ZM18.155 9.1841C18.1822 9.04975 18.2108 8.91832 18.2408 8.78982C18.642 9.4833 19.2063 10.0685 19.8848 10.4945C20.5632 10.9206 21.3354 11.1748 22.1343 11.235C22.3189 11.5326 22.6441 12.1842 22.8874 13.3509C21.3496 13.3563 19.8119 13.3297 18.2745 13.2711C17.7582 11.993 17.9163 10.3653 18.155 9.1841ZM16.293 9.15861C16.5296 10.3176 16.6885 11.9031 16.2159 13.1725C15.3718 13.1243 14.5281 13.0667 13.6847 12.9995C13.5497 12.3526 13.344 11.7224 13.0715 11.1203C13.7262 10.9663 14.3425 10.6801 14.8826 10.2794C15.4227 9.87863 15.8753 9.37174 16.2125 8.78982C16.2404 8.91 16.2672 9.03281 16.293 9.15826V9.15861ZM8.50827 5.62506C8.67137 6.41856 9.10307 7.13157 9.73058 7.64389C10.3581 8.15621 11.1431 8.43652 11.9531 8.43756C12.5126 8.43756 13.0491 8.21532 13.4447 7.81974C13.8403 7.42415 14.0625 6.88763 14.0625 6.32818C14.0625 5.76874 13.8403 5.23222 13.4447 4.83663C13.0491 4.44105 12.5126 4.21881 11.9531 4.21881C11.7667 4.21881 11.5878 4.29289 11.456 4.42475C11.3241 4.55661 11.25 4.73545 11.25 4.92193C11.25 5.10842 11.3241 5.28726 11.456 5.41912C11.5878 5.55098 11.7667 5.62506 11.9531 5.62506C12.1396 5.62506 12.3185 5.69914 12.4503 5.831C12.5822 5.96286 12.6563 6.1417 12.6563 6.32818C12.6563 6.51466 12.5822 6.69351 12.4503 6.82537C12.3185 6.95723 12.1396 7.03131 11.9531 7.03131C11.3937 7.03131 10.8572 6.80907 10.4616 6.41349C10.066 6.0179 9.84377 5.48138 9.84377 4.92193C9.84377 4.36249 10.066 3.82597 10.4616 3.43038C10.8572 3.0348 11.3937 2.81256 11.9531 2.81256C12.6782 2.81287 13.3854 3.03746 13.9779 3.45553C14.5703 3.8736 15.0189 4.46468 15.2621 5.14773C15.5054 5.83078 15.5314 6.57236 15.3366 7.27077C15.1418 7.96919 14.7357 8.59026 14.1741 9.04881C13.6124 9.50737 12.9227 9.78096 12.1994 9.83208C11.4761 9.88319 10.7547 9.70933 10.1342 9.33433C9.51361 8.95933 9.02423 8.40155 8.73314 7.73747C8.44205 7.0734 8.3635 6.33553 8.50827 5.62506ZM7.6944 8.79088C8.09061 9.47525 8.64573 10.0542 9.31284 10.4788C9.97996 10.9034 10.7395 11.1612 11.5272 11.2305C11.666 11.4332 11.9556 11.9341 12.2062 12.8699C10.6242 12.7216 9.04402 12.5392 7.4658 12.3228C7.2706 11.1534 7.44638 9.85471 7.6944 8.79088ZM16.3922 14.5911C18.3331 16.9183 21.3774 21.6618 21.7759 28.8282H20.5401L14.3483 26.0762C14.189 26.0055 14.0092 25.9964 13.8437 26.0506C13.6781 26.1049 13.5386 26.2187 13.4522 26.37C13.2752 26.6798 13.1141 26.9899 12.9688 27.3006C8.1945 22.9931 6.33693 16.0283 5.79895 13.5042C9.3188 14.0354 12.8499 14.3977 16.3922 14.5911Z" fill="#B8CCC6"/>
</svg>
