<svg width="46" height="45" viewBox="0 0 46 45" fill="none" xmlns="http://www.w3.org/2000/svg">
<path d="M40.4641 20.9512C41.9977 19.7439 43.6174 17.468 42.5331 13.5085C42.1897 12.2539 41.3033 11.1792 40.1013 10.5599C37.456 9.19739 35.0172 9.18939 33.7755 9.31132C33.4208 7.1928 31.7406 5.47685 29.5213 5.08412C26.6228 4.57219 24.8155 6.49033 23.9008 8.30602C22.9883 7.04649 21.1914 5.50123 17.8669 5.50123C16.4263 5.50123 15.2693 5.98204 14.4288 6.9302C13.6744 7.78099 13.2974 8.89257 13.1194 9.94318C7.58923 10.048 3.44448 13.366 3.26818 13.5094C3.09821 13.6477 3 13.8526 3 14.0687C3 19.6262 5.85063 22.7252 7.22078 23.8927C5.48983 25.9945 3.90033 28.6176 3.85299 31.2017C3.81758 33.1324 4.63106 34.8072 6.27088 36.1797C8.50334 38.0482 11.4019 39 14.7868 39C16.0284 39 17.3363 38.8717 18.6993 38.6136C21.9261 38.0029 24.4757 36.8655 25.2176 36.5128C25.7542 36.8513 26.2827 37.1102 26.7324 37.2839C26.7695 37.2982 26.8077 37.3095 26.8465 37.3179C28.4427 37.6602 29.9742 37.8027 31.4206 37.8027C38.4497 37.8022 43.4346 34.4341 43.6845 34.262C43.8824 34.1255 44 33.9038 44 33.6672V28.1146C44 25.3435 42.6845 22.6916 40.4641 20.9512ZM39.4056 11.8479C40.2412 12.2783 40.8562 13.0206 41.0927 13.8847C41.6309 15.8499 41.6887 18.5195 38.9872 20.1956C38.7978 20.1237 38.3895 19.955 37.8684 19.6651C38.814 19.1195 39.7425 18.0897 40.1057 16.2803C40.1849 15.8858 39.9216 15.5033 39.5176 15.4259C39.1143 15.3493 38.7216 15.6059 38.6426 16.0003C38.4104 17.1575 37.896 17.9681 37.114 18.4094C36.8561 18.555 36.6071 18.6369 36.4081 18.6833C35.7543 18.1592 35.0754 17.4838 34.4878 16.6288C34.525 16.4712 34.558 16.3113 34.5858 16.1486C35.0068 13.6823 34.9677 11.8659 34.4716 10.7295C35.6164 10.6922 37.4538 10.8426 39.4056 11.8479ZM24.3039 29.9156C25.286 28.7794 25.677 27.0613 25.4655 24.7975C27.1644 24.201 31.9732 22.2108 33.8916 18.2811C34.3258 18.796 34.782 19.2402 35.2334 19.6213C35.786 22.9788 33.1335 26.3997 30.4263 28.1621C28.6136 29.3423 25.9528 29.7645 24.3039 29.9156ZM13.0562 24.928C12.363 23.6441 12.3214 22.1527 12.9297 20.4819C13.5132 21.2311 14.4098 22.2301 15.6059 23.1267C17.537 24.5744 19.6502 25.3055 21.8482 25.3055C22.555 25.3055 23.2711 25.227 23.9923 25.0752C24.1371 26.8673 23.8451 28.2216 23.1348 29.0142C22.6417 29.5643 22.0573 29.7256 21.7514 29.7731C19.4398 29.2857 14.6843 27.9432 13.0562 24.928ZM14.3285 13.6068C14.3509 13.5851 14.3675 13.5595 14.3867 13.5356C14.7141 13.2664 15.9661 12.3756 17.9625 12.5714C17.5146 13.2579 17.2097 14.0461 17.0592 14.9291C16.7645 16.6552 17.378 17.6638 18.0618 18.24C18.1479 19.4011 18.8333 20.3834 20.0136 21.0251C20.9258 21.521 22.0491 21.7711 23.127 21.7711C24.1259 21.7711 25.0862 21.5562 25.8021 21.1228C28.8596 19.2724 30.5976 17.3555 30.9679 15.4255C31.2094 14.1675 30.8835 12.9483 29.9992 11.8015C29.7662 11.4995 29.5021 11.2233 29.2142 10.973C31.224 10.2329 32.4609 10.776 32.5136 10.8002C32.5949 10.8398 32.6825 10.8646 32.7727 10.8733C32.8608 10.921 33.8539 11.5812 33.1154 15.9089C32.4098 20.0424 27.6767 22.3605 25.5167 23.2141C25.3827 23.1864 25.2398 23.1929 25.1021 23.2435C22.0448 24.3629 19.1682 23.9446 16.5515 21.9998C14.7805 20.6837 13.7133 19.0715 13.4765 18.6929C13.4582 18.6487 13.4368 18.6056 13.4096 18.565C13.3417 18.4642 11.7781 16.0678 14.3285 13.6068ZM24.3413 10.8702C26.1116 10.7079 27.8239 11.4011 28.8079 12.6774C29.4298 13.4837 29.6635 14.3182 29.5025 15.1573C29.2124 16.6683 27.7032 18.2591 25.0165 19.8851C23.9994 20.5006 22.0002 20.4388 20.7387 19.7528C20.3792 19.5574 20.1001 19.3284 19.9023 19.0678C22.1553 19.5064 25.0236 18.5834 26.2024 17.2451C26.924 16.4257 27.0116 15.478 26.4428 14.6446C25.7765 13.6686 24.934 13.1249 23.9392 13.0288C22.0295 12.8439 20.3485 14.4647 20.2779 14.5338C19.9867 14.8181 19.9867 15.279 20.2779 15.5633C20.569 15.8476 21.0412 15.8476 21.3319 15.5633C21.3442 15.5513 22.5972 14.3616 23.7921 14.4776C24.3285 14.5294 24.7897 14.8483 25.202 15.4523C25.3408 15.6558 25.4213 15.8989 25.0717 16.2958C24.1063 17.3921 21.1137 18.1632 19.4893 17.4209C18.6501 17.0374 18.3361 16.3005 18.5296 15.1682C18.7133 14.0919 19.1727 13.2757 19.7911 12.6582C19.8248 12.6317 19.8554 12.6013 19.8843 12.5691C21.0822 11.4389 22.8282 11.0082 24.3413 10.8702ZM29.2556 6.5169C30.7297 6.77769 31.8703 7.85469 32.2318 9.22069C31.2926 9.05526 29.7116 9.04016 27.7362 10.0227C26.9106 9.64053 25.9912 9.42088 25.041 9.39449C25.5561 8.15406 26.7989 6.08195 29.2556 6.5169ZM15.558 7.88108C16.1104 7.25941 16.8655 6.95731 17.8669 6.95731C21.0419 6.95731 22.4397 8.6103 22.9885 9.58776C21.3977 9.88349 20.0911 10.4586 19.1056 11.2862C17.0476 10.8113 15.4652 11.2659 14.4678 11.7621C14.4627 10.6136 14.6338 8.92096 15.558 7.88108ZM4.49502 14.4232C5.44883 13.7338 8.80339 11.537 12.9806 11.4009C12.9638 12.0016 12.9953 12.5085 13.0251 12.829C11.4738 14.4679 11.2861 16.1047 11.4138 17.2123C11.5042 17.9987 11.758 18.6189 11.9481 18.992C11.8657 19.1636 11.7901 19.3339 11.7183 19.5032C11.69 19.5197 11.6613 19.535 11.6348 19.5557C11.4924 19.6666 9.89623 20.9216 8.18615 22.7838C7.01895 21.7889 4.61019 19.1668 4.49502 14.4232ZM7.2411 35.0745C5.93729 33.9832 5.31651 32.7256 5.34353 31.2299C5.40615 27.753 8.94391 23.9629 11.0433 22.0149C10.9175 23.2375 11.1221 24.3822 11.6546 25.441C11.6003 25.4636 11.5476 25.4905 11.4984 25.5266C11.343 25.6403 7.69415 28.3554 7.96978 32.1656C7.99755 32.5493 8.32481 32.8423 8.71263 32.8423C8.73034 32.8423 8.74804 32.8417 8.76593 32.8405C9.17649 32.8121 9.48586 32.4641 9.45697 32.063C9.23892 29.0515 12.3616 26.7142 12.3931 26.6909C12.4094 26.6791 12.422 26.6644 12.4369 26.6514C14.6273 29.3607 18.7985 30.6211 21.1448 31.1387C21.2544 31.2049 21.3815 31.2466 21.5196 31.2493C21.5224 31.2493 21.5278 31.2495 21.5356 31.2495C21.5571 31.2495 21.5977 31.2488 21.6534 31.2457C21.8101 31.277 21.9549 31.3043 22.085 31.3278C21.9283 33.0541 22.7886 34.4623 23.8978 35.4998C21.2073 36.6427 12.7251 39.665 7.2411 35.0745ZM42.5091 33.2727C41.0681 34.1475 34.8624 37.5195 27.2311 35.9102C26.9942 35.811 25.9689 35.3557 25.0594 34.5673C23.9597 33.6139 23.4623 32.5611 23.5737 31.4317C24.3518 31.3907 25.6373 31.2796 27.0369 30.9827C27.2874 31.374 27.9807 32.2925 29.3121 32.9436C30.3607 33.4565 31.4922 33.6554 32.617 33.6554C34.405 33.6554 36.176 33.1526 37.5676 32.609C37.9501 32.4597 38.1359 32.0361 37.983 31.6628C37.83 31.2892 37.3962 31.1083 37.0141 31.2572C31.7152 33.3269 29.3622 31.5009 28.5763 30.584C29.5178 30.2905 30.4474 29.8985 31.2534 29.3738C32.9024 28.3004 34.3612 26.8172 35.3609 25.1979C36.2692 23.7264 36.754 22.2077 36.7951 20.737C37.8054 21.3427 38.5684 21.5984 38.6323 21.6191C38.7104 21.6446 38.79 21.6566 38.8683 21.6566C38.8921 21.6566 38.9156 21.6533 38.9393 21.6511L39.29 21.9052C41.3057 23.3638 42.5091 25.6853 42.5091 28.115V33.2727Z" fill="#B8CCC6"/>
</svg>
