<svg width="25" height="24" viewBox="0 0 25 24" fill="none" xmlns="http://www.w3.org/2000/svg">
    <g clip-path="url(#clip0)">
        <path d="M24.5996 12C24.5996 5.37188 19.2277 0 12.5996 0C5.97148 0 0.599609 5.37188 0.599609 12C0.599609 18.6281 5.97148 24 12.5996 24C12.6699 24 12.7402 24 12.8105 23.9953V14.6578H10.2324V11.6531H12.8105V9.44062C12.8105 6.87656 14.3762 5.47969 16.6637 5.47969C17.7605 5.47969 18.7027 5.55938 18.9746 5.59688V8.27813H17.3996C16.1574 8.27813 15.9137 8.86875 15.9137 9.73594V11.6484H18.8902L18.5012 14.6531H15.9137V23.5359C20.9293 22.0969 24.5996 17.4797 24.5996 12Z"
              fill="#999999"/>
    </g>
    <defs>
        <clipPath id="clip0">
            <rect width="24" height="24" fill="white" transform="translate(0.599609)"/>
        </clipPath>
    </defs>
</svg>
