<svg width="14" height="14" viewBox="0 0 14 14" fill="none" xmlns="http://www.w3.org/2000/svg">
    <path d="M13.4224 3.42845C13.2129 2.94351 12.9109 2.50406 12.5333 2.1347C12.1554 1.76424 11.7098 1.46985 11.2208 1.26752C10.7137 1.05688 10.1699 0.949065 9.6208 0.950328C8.85049 0.950328 8.09893 1.16127 7.4458 1.5597C7.28955 1.65502 7.14111 1.7597 7.00049 1.87377C6.85986 1.7597 6.71143 1.65502 6.55518 1.5597C5.90205 1.16127 5.15049 0.950328 4.38018 0.950328C3.82549 0.950328 3.28799 1.05658 2.78018 1.26752C2.28955 1.47064 1.84736 1.76283 1.46768 2.1347C1.08955 2.50364 0.787485 2.9432 0.578613 3.42845C0.361426 3.93314 0.250488 4.46908 0.250488 5.02064C0.250488 5.54095 0.356738 6.08314 0.567676 6.6347C0.744238 7.09564 0.997363 7.57377 1.3208 8.05658C1.8333 8.82064 2.53799 9.61752 3.41299 10.4253C4.86299 11.7644 6.29893 12.6894 6.35986 12.7269L6.73018 12.9644C6.89424 13.0691 7.10518 13.0691 7.26924 12.9644L7.63955 12.7269C7.70049 12.6878 9.13486 11.7644 10.5864 10.4253C11.4614 9.61752 12.1661 8.82064 12.6786 8.05658C13.0021 7.57377 13.2567 7.09564 13.4317 6.6347C13.6427 6.08314 13.7489 5.54095 13.7489 5.02064C13.7505 4.46908 13.6396 3.93314 13.4224 3.42845ZM7.00049 11.7285C7.00049 11.7285 1.43799 8.16439 1.43799 5.02064C1.43799 3.42845 2.75518 2.13783 4.38018 2.13783C5.52236 2.13783 6.51299 2.77533 7.00049 3.70658C7.48799 2.77533 8.47861 2.13783 9.6208 2.13783C11.2458 2.13783 12.563 3.42845 12.563 5.02064C12.563 8.16439 7.00049 11.7285 7.00049 11.7285Z"
          fill="#222F2B"/>
</svg>
