<svg width="25" height="24" viewBox="0 0 25 24" fill="none" xmlns="http://www.w3.org/2000/svg">
<g clip-path="url(#clip0)">
<path d="M14.6968 12C14.6968 13.2686 13.6685 14.2969 12.3999 14.2969C11.1313 14.2969 10.103 13.2686 10.103 12C10.103 10.7314 11.1313 9.70312 12.3999 9.70312C13.6685 9.70312 14.6968 10.7314 14.6968 12Z" fill="#999999"/>
<path d="M17.7717 7.93622C17.6613 7.63702 17.4852 7.36621 17.2563 7.14392C17.034 6.91504 16.7634 6.73889 16.464 6.62848C16.2212 6.53418 15.8564 6.42194 15.1846 6.39136C14.4579 6.35822 14.24 6.35107 12.4001 6.35107C10.5601 6.35107 10.3422 6.35803 9.61566 6.39117C8.94385 6.42194 8.57892 6.53418 8.3363 6.62848C8.03693 6.73889 7.76611 6.91504 7.54401 7.14392C7.31512 7.36621 7.13898 7.63684 7.02838 7.93622C6.93408 8.17902 6.82184 8.54395 6.79126 9.21576C6.75812 9.94232 6.75098 10.1602 6.75098 12.0002C6.75098 13.8401 6.75812 14.058 6.79126 14.7847C6.82184 15.4565 6.93408 15.8213 7.02838 16.0641C7.13898 16.3635 7.31494 16.6341 7.54382 16.8564C7.76611 17.0853 8.03674 17.2614 8.33612 17.3718C8.57892 17.4663 8.94385 17.5786 9.61566 17.6091C10.3422 17.6423 10.5599 17.6492 12.4 17.6492C14.2402 17.6492 14.4581 17.6423 15.1844 17.6091C15.8563 17.5786 16.2212 17.4663 16.464 17.3718C17.0649 17.14 17.5399 16.665 17.7717 16.0641C17.866 15.8213 17.9783 15.4565 18.009 14.7847C18.0422 14.058 18.0491 13.8401 18.0491 12.0002C18.0491 10.1602 18.0422 9.94232 18.009 9.21576C17.9785 8.54395 17.8662 8.17902 17.7717 7.93622ZM12.4001 15.5384C10.4459 15.5384 8.86163 13.9543 8.86163 12.0001C8.86163 10.0458 10.4459 8.46173 12.4001 8.46173C14.3542 8.46173 15.9385 10.0458 15.9385 12.0001C15.9385 13.9543 14.3542 15.5384 12.4001 15.5384ZM16.0784 9.14874C15.6217 9.14874 15.2515 8.7785 15.2515 8.32184C15.2515 7.86517 15.6217 7.49493 16.0784 7.49493C16.535 7.49493 16.9053 7.86517 16.9053 8.32184C16.9051 8.7785 16.535 9.14874 16.0784 9.14874Z" fill="#999999"/>
<path d="M12.3999 0C5.7735 0 0.399902 5.3736 0.399902 12C0.399902 18.6264 5.7735 24 12.3999 24C19.0263 24 24.3999 18.6264 24.3999 12C24.3999 5.3736 19.0263 0 12.3999 0ZM19.249 14.8409C19.2156 15.5744 19.099 16.0752 18.9287 16.5135C18.5707 17.4391 17.8391 18.1708 16.9135 18.5288C16.4753 18.6991 15.9743 18.8156 15.241 18.8491C14.5062 18.8826 14.2714 18.8906 12.4001 18.8906C10.5286 18.8906 10.294 18.8826 9.55902 18.8491C8.82568 18.8156 8.32471 18.6991 7.88654 18.5288C7.42657 18.3558 7.01019 18.0846 6.66595 17.7339C6.31549 17.3899 6.04431 16.9733 5.87128 16.5135C5.70099 16.0754 5.58435 15.5744 5.55103 14.8411C5.51715 14.1061 5.50928 13.8713 5.50928 12C5.50928 10.1287 5.51715 9.89392 5.55084 9.15912C5.58417 8.4256 5.70062 7.9248 5.87091 7.48645C6.04395 7.02667 6.31531 6.61011 6.66595 6.26605C7.01001 5.91541 7.42657 5.64423 7.88635 5.47119C8.32471 5.3009 8.8255 5.18445 9.55902 5.15094C10.2938 5.11743 10.5286 5.10938 12.3999 5.10938C14.2712 5.10938 14.506 5.11743 15.2408 5.15112C15.9743 5.18445 16.4751 5.3009 16.9135 5.47101C17.3732 5.64404 17.7898 5.91541 18.134 6.26605C18.4845 6.61029 18.7559 7.02667 18.9287 7.48645C19.0992 7.9248 19.2156 8.4256 19.2491 9.15912C19.2827 9.89392 19.2905 10.1287 19.2905 12C19.2905 13.8713 19.2827 14.1061 19.249 14.8409Z" fill="#999999"/>
</g>
<defs>
<clipPath id="clip0">
<rect width="24" height="24" fill="white" transform="translate(0.399902)"/>
</clipPath>
</defs>
</svg>
