<svg width="24" height="24" viewBox="0 0 24 24" fill="none" xmlns="http://www.w3.org/2000/svg">
    <path d="M13.3334 11.1449L11.6833 10.7787C11.0556 10.6357 10.3331 10.4467 10.3331 9.85492C10.3331 9.26184 10.8399 8.84747 11.7549 8.84747C13.5989 8.84747 13.4305 10.1147 14.346 10.1147C14.8278 10.1147 15.2494 9.83148 15.2494 9.34442C15.2494 8.20789 13.4305 7.35498 11.8874 7.35498C10.2124 7.35498 8.42859 8.06635 8.42859 9.96094C8.42859 10.8734 8.75452 11.844 10.55 12.2943L12.7795 12.8509C13.4543 13.0172 13.6231 13.3967 13.6231 13.7391C13.6231 14.3086 13.0575 14.8649 12.0328 14.8649C10.0313 14.8649 10.3091 13.3246 9.23645 13.3246C8.75452 13.3246 8.40479 13.6566 8.40479 14.1302C8.40479 15.0538 9.52612 16.2863 12.0328 16.2863C14.4178 16.2863 15.5995 15.1368 15.5995 13.5972C15.5995 12.6031 15.1412 11.5477 13.3334 11.1449Z"
          fill="#999999"/>
    <path d="M12 0C5.3736 0 0 5.3736 0 12C0 18.6264 5.3736 24 12 24C18.6264 24 24 18.6264 24 12C24 5.3736 18.6264 0 12 0ZM18.2477 18.23C17.4587 19.0193 16.4103 19.4531 15.2948 19.4531C14.5723 19.4531 13.8647 19.2653 13.2398 18.9117C12.8342 18.9836 12.4188 19.0215 12.0042 19.0215C11.0517 19.0215 10.1274 18.8348 9.25781 18.4662C8.41699 18.1117 7.66278 17.6025 7.0144 16.9545C6.36676 16.3066 5.85809 15.5524 5.50305 14.712C5.13464 13.8419 4.94824 12.9181 4.94824 11.9654C4.94824 11.5574 4.98486 11.1489 5.05444 10.7492C4.71149 10.1323 4.52893 9.43433 4.52893 8.72406C4.52893 7.6084 4.96362 6.55939 5.75226 5.77057C6.54126 4.98138 7.59027 4.54688 8.70593 4.54688C9.38928 4.54688 10.0646 4.71735 10.6648 5.0365C10.6659 5.03632 10.6672 5.03632 10.6681 5.03595C11.1057 4.95209 11.5552 4.90979 12.0042 4.90979C12.9565 4.90979 13.8807 5.09637 14.7502 5.46423C15.5901 5.81964 16.3453 6.32831 16.9927 6.97614C17.6411 7.62415 18.1496 8.37872 18.505 9.21899C18.8734 10.0889 19.0598 11.0129 19.0598 11.9654C19.0598 12.3948 19.0193 12.8245 18.9423 13.2444C19.2876 13.8636 19.4713 14.564 19.4713 15.2767C19.4711 16.3923 19.0369 17.4415 18.2477 18.23Z"
          fill="#999999"/>
</svg>
