<svg width="11" height="14" viewBox="0 0 11 14" fill="none" xmlns="http://www.w3.org/2000/svg">
    <path fill-rule="evenodd" clip-rule="evenodd"
          d="M3.66683 12.3334H1.66683L1.66683 1.66671L3.66683 1.66671L3.66683 12.3334ZM1.66683 13.6667C0.93045 13.6667 0.333496 13.0698 0.333496 12.3334L0.333497 1.66671C0.333497 0.930327 0.930451 0.333374 1.66683 0.333374L3.66683 0.333374C4.40321 0.333374 5.00016 0.930329 5.00016 1.66671L5.00016 12.3334C5.00016 13.0698 4.40321 13.6667 3.66683 13.6667H1.66683Z"
          fill="#222F2B"/>
    <path d="M2.3335 8.33337H3.66683V7.66671H2.3335V8.33337Z" fill="#222F2B"/>
    <path d="M3.00016 7.00004H3.66683V6.33337H3.00016V7.00004Z" fill="#222F2B"/>
    <path d="M3.00016 12.3334H3.66683V11.6667H3.00016V12.3334Z" fill="#222F2B"/>
    <path d="M2.3335 5.66671H3.66683V5.00004H2.3335L2.3335 5.66671Z" fill="#222F2B"/>
    <path d="M2.3335 11H3.66683V10.3334H2.3335L2.3335 11Z" fill="#222F2B"/>
    <path d="M2.3335 3.00004L3.66683 3.00004V2.33337L2.3335 2.33337V3.00004Z" fill="#222F2B"/>
    <path d="M3.00016 4.33337H3.66683V3.66671H3.00016V4.33337Z" fill="#222F2B"/>
    <path d="M3.00016 9.66671H3.66683V9.00004H3.00016V9.66671Z" fill="#222F2B"/>
    <path d="M6.3335 0.333374H10.3335V1.66671H9.00016V12.3334H10.3335V13.6667H6.3335V12.3334H7.66683V1.66671H6.3335V0.333374Z"
          fill="#222F2B"/>
</svg>
