<svg width="25" height="24" viewBox="0 0 25 24" fill="none" xmlns="http://www.w3.org/2000/svg">
    <path fill-rule="evenodd" clip-rule="evenodd"
          d="M24.7998 12C24.7998 18.6274 19.4272 24 12.7998 24C6.17239 24 0.799805 18.6274 0.799805 12C0.799805 5.37258 6.17239 0 12.7998 0C19.4272 0 24.7998 5.37258 24.7998 12ZM12.2529 15.4366C12.7035 15.7491 13.0881 16.0159 13.7693 16.0686C17.1166 16.327 18.9861 12.7277 18.5299 9.40414C18.1243 6.45944 15.186 4.95949 12.0554 5.30988C9.58003 5.58711 7.11214 7.59039 7.00925 10.4515C6.9455 12.1993 7.44135 13.5104 9.10365 13.8785C9.57663 13.0437 9.32928 12.636 9.06112 12.1939C8.92044 11.9621 8.77404 11.7207 8.72289 11.4034C8.1126 7.63039 13.0756 5.05468 15.6729 7.69028C17.4706 9.5158 16.2872 15.1282 13.3885 14.5455C11.9417 14.2547 12.3718 12.9022 12.802 11.5493C13.1974 10.3059 13.5928 9.06223 12.5312 8.6424C10.73 7.92944 9.77341 10.8228 10.6273 12.2603C10.4954 12.9114 10.3234 13.5526 10.1495 14.2006C9.66329 16.0129 9.16282 17.8782 9.48505 20.1624C10.9005 19.135 11.3784 17.1683 11.7694 15.1166C11.9467 15.2242 12.1034 15.333 12.2529 15.4366Z"
          fill="#999999"/>
</svg>
