<svg width="40" height="40" viewBox="0 0 40 40" fill="none" xmlns="http://www.w3.org/2000/svg">
    <circle cx="20" cy="20" r="20" fill="#DBDBDB"/>
    <path d="M15.6687 22.9229C16.0593 22.5324 16.6924 22.5324 17.0829 22.9229C17.4735 23.3134 17.4735 23.9466 17.0829 24.3371L14.415 27.0042H16C16.5128 27.0042 16.9355 27.3903 16.9933 27.8876L17 28.0042C17 28.5565 16.5523 29.0042 16 29.0042H12C11.4477 29.0042 11 28.5565 11 28.0042V24.0042C11 23.4519 11.4477 23.0042 12 23.0042C12.5523 23.0042 13 23.4519 13 24.0042V25.5912L15.6687 22.9229ZM24.005 29.0042C23.4527 29.0042 23.005 28.5565 23.005 28.0042C23.005 27.4519 23.4527 27.0042 24.005 27.0042H25.588L22.9226 24.3368C22.5623 23.9762 22.5348 23.409 22.8399 23.0168L22.9232 22.9226C23.3138 22.5322 23.947 22.5325 24.3374 22.9232L27.005 25.5932V24.0042C27.005 23.4914 27.3911 23.0687 27.8884 23.0109L28.005 23.0042C28.5573 23.0042 29.005 23.4519 29.005 24.0042V28.0042C29.005 28.5565 28.5573 29.0042 28.005 29.0042H24.005ZM16 11C16.5523 11 17 11.4477 17 12C17 12.5523 16.5523 13 16 13H14.417L17.0824 15.6682C17.4427 16.0288 17.4702 16.596 17.1651 16.9882L17.0818 17.0824C16.6912 17.4728 16.058 17.4725 15.6676 17.0818L13 14.412V16C13 16.5128 12.614 16.9355 12.1166 16.9933L12 17C11.4477 17 11 16.5523 11 16V12C11 11.4477 11.4477 11 12 11H16ZM28.005 11C28.5573 11 29.005 11.4477 29.005 12V16C29.005 16.5523 28.5573 17 28.005 17C27.4527 17 27.005 16.5523 27.005 16V14.412L24.3372 17.082C23.9768 17.4425 23.4096 17.4704 23.0173 17.1654L22.923 17.0822C22.5324 16.6918 22.5323 16.0586 22.9228 15.668L25.589 13H24.005C23.4922 13 23.0695 12.614 23.0117 12.1166L23.005 12C23.005 11.4477 23.4527 11 24.005 11H28.005Z"
          fill="#212121"/>
</svg>
