<svg width="40" height="40" viewBox="0 0 40 40" fill="none" xmlns="http://www.w3.org/2000/svg">
    <path d="M31.7232 13.0208C31.8743 13.0824 32.0343 13.1132 32.1944 13.1132C32.3545 13.1132 32.5146 13.0824 32.6656 13.0208C32.9633 12.8995 39.9572 9.99124 39.9572 4.86777C39.9572 2.18364 37.743 0 35.0212 0C33.9977 0 33.0148 0.31089 32.1944 0.876782C31.3741 0.31089 30.3912 0 29.3676 0C26.6459 0 24.4316 2.18364 24.4316 4.86777C24.4316 9.99124 31.4254 12.8995 31.7232 13.0208ZM29.3676 2.49773C30.0949 2.49773 30.7792 2.81042 31.2448 3.35555C31.482 3.63334 31.8291 3.79335 32.1944 3.79335C32.5598 3.79335 32.9068 3.63334 33.1441 3.35555C33.6097 2.81042 34.2939 2.49773 35.0212 2.49773C36.3657 2.49773 37.4595 3.56091 37.4595 4.86777C37.4595 7.47407 34.0198 9.63672 32.2029 10.495C30.8384 9.83466 26.9293 7.69489 26.9293 4.86777C26.9294 3.56091 28.0231 2.49773 29.3676 2.49773Z"
          fill="#B8CCC6"/>
    <path d="M27.1909 13.7414C25.1437 10.9259 22.3451 8.96116 19.0612 8.04434C16.2593 7.26832 13.3537 7.29595 10.6588 8.12419C8.13637 8.89942 5.83932 10.3518 4.01613 12.3242C2.1988 14.2903 0.932446 16.685 0.353987 19.2494C-0.260689 21.9746 -0.0722664 24.8278 0.899039 27.5013C2.664 32.4697 6.97477 36.1825 12.1502 37.1909C12.1541 37.1917 12.158 37.1924 12.1619 37.1931C13.1204 37.3704 13.9882 37.4512 14.3888 37.4512C15.0785 37.4512 15.6377 36.892 15.6377 36.2024C15.6377 35.5127 15.0785 34.9535 14.3888 34.9535C14.2004 34.9535 13.4944 34.8992 12.6217 34.7381C8.31043 33.8957 4.72018 30.8012 3.2512 26.661C3.25011 26.6579 3.24901 26.6549 3.24792 26.6518C1.64375 22.2403 2.61662 17.518 5.85032 14.0196C9.0955 10.5087 13.7848 9.17487 18.3921 10.4507C20.6349 11.0769 22.6101 12.2958 24.1937 14.0162C18.2506 15.2617 13.7738 20.5429 13.7738 26.8507C13.7738 34.0813 19.6562 39.9638 26.8868 39.9638C34.1175 39.9638 39.9999 34.0813 39.9999 26.8507C40 19.7217 34.2816 13.9035 27.1909 13.7414ZM26.8869 37.466C24.9228 37.466 23.0821 36.9292 21.5025 35.9955C27.0386 33.3361 30.5077 27.4466 29.9555 21.2089C29.9053 20.5962 29.7846 19.6436 29.4945 18.5762L29.4888 18.5553C29.3313 17.9085 28.6904 17.4951 28.0313 17.6268C27.3549 17.7618 26.916 18.4194 27.0508 19.0958C27.0539 19.1112 27.0641 19.1574 27.0842 19.2312C27.325 20.1175 27.4249 20.9087 27.4663 21.4165C27.4666 21.4195 27.4669 21.4224 27.4671 21.4254C27.9659 27.0433 24.5441 32.3235 19.2629 34.2289C17.4124 32.3174 16.2716 29.7148 16.2716 26.8505C16.2716 20.9971 21.0336 16.2351 26.8869 16.2351C32.7402 16.2351 37.5023 20.9971 37.5023 26.8505C37.5023 32.7038 32.7402 37.466 26.8869 37.466ZM29.4907 18.5639C29.4956 18.5842 29.4985 18.5988 29.5003 18.6074C29.4973 18.5927 29.4942 18.5783 29.4907 18.5639Z"
          fill="#B8CCC6"/>
</svg>
