<svg width="40" height="31" viewBox="0 0 40 31" fill="none" xmlns="http://www.w3.org/2000/svg">
    <path d="M18.8102 3.46897C18.8023 3.12069 18.565 2.81967 18.2282 2.73084L10.7789 0.76631C10.7783 0.766076 10.7777 0.765997 10.7772 0.765841L7.97161 0.0259175C7.63934 -0.0618951 7.28793 0.0784175 7.10731 0.371309C5.98363 2.19397 5.09996 4.22171 4.55183 6.23546C3.63683 9.59625 3.79214 12.4795 5.00097 14.5734C5.70035 15.7849 6.72668 16.6739 7.99481 17.1804L5.12254 27.7313L0.980654 26.6389C0.563778 26.5289 0.136043 26.7778 0.026043 27.1951C-0.0840353 27.6123 0.16495 28.0397 0.582216 28.1498C0.582607 28.1499 5.46707 29.4382 5.46746 29.4383C5.46785 29.4384 10.3644 30.7298 10.3649 30.7299C10.4316 30.7475 10.4986 30.7559 10.5647 30.7559C10.9108 30.7559 11.2272 30.5241 11.3195 30.1737C11.4296 29.7565 11.1806 29.3291 10.7633 29.219L6.63348 28.1298L9.5052 17.5811C9.78669 17.6201 10.0684 17.6402 10.3482 17.6402C13.8319 17.6402 16.709 14.7117 18.0444 9.80656C18.5926 7.79242 18.8574 5.60085 18.8102 3.46897ZM16.5365 9.39617C15.3976 13.5798 13.0842 16.0777 10.348 16.0777C9.9495 16.0777 9.54372 16.0239 9.14176 15.9179C7.9377 15.6003 6.97371 14.8652 6.35426 13.7921C5.61934 12.5191 5.37191 10.8396 5.61496 8.86148C6.65809 9.03117 7.64309 9.09695 8.57661 9.09695C10.1129 9.09695 11.5125 8.92367 12.8138 8.76257C14.2817 8.58085 15.5844 8.42031 16.7422 8.56515C16.6792 8.84515 16.611 9.12257 16.5365 9.39617ZM17.0276 7.02773C15.6426 6.83921 14.168 7.02054 12.622 7.21195C10.6447 7.45671 8.42747 7.73101 5.88941 7.32421C5.9409 7.10093 5.99715 6.87507 6.05957 6.64593C6.51988 4.95483 7.23582 3.25155 8.14153 1.6867L9.38286 2.01412C9.15786 2.44772 8.95036 2.89319 8.78872 3.25592C8.61309 3.64999 8.7902 4.11186 9.18426 4.28757C9.28762 4.33366 9.39559 4.35546 9.50184 4.35546C9.80083 4.35546 10.0863 4.1828 10.2159 3.8921C10.4686 3.32506 10.7156 2.82202 10.9358 2.42366L17.2527 4.0896C17.2462 5.06983 17.1699 6.05788 17.0276 7.02773Z"
          fill="#B8CCC6"/>
    <path d="M34.5323 29.4384C34.532 29.4386 34.5316 29.4386 34.5313 29.4386L29.6738 30.7197C30.1311 30.599 34.5327 29.4383 34.5323 29.4384Z"
          fill="#B8CCC6"/>
    <path d="M29.6742 30.7197C29.6488 30.7264 29.6348 30.7301 29.6348 30.7301L29.6742 30.7197Z" fill="#B8CCC6"/>
    <path d="M39.974 27.1952C39.864 26.778 39.4362 26.5293 39.0193 26.639L34.8774 27.7314L32.0051 17.1804C33.2732 16.6739 34.2996 15.7848 34.9989 14.5733C36.2077 12.4794 36.363 9.5962 35.4481 6.23549C34.8999 4.22174 34.0162 2.194 32.8925 0.371339C32.7118 0.0784474 32.3607 -0.0619433 32.0282 0.0259475L21.7718 2.73095C21.435 2.81978 21.1977 3.1208 21.1899 3.46908C21.1474 5.38744 21.3584 7.35346 21.8004 9.19557C21.8053 9.22143 21.8114 9.24706 21.8188 9.27214C21.8627 9.45144 21.9077 9.63003 21.9559 9.80675C23.291 14.7115 26.168 17.64 29.6518 17.6404C29.652 17.6404 29.6521 17.6404 29.6524 17.6404C29.932 17.6404 30.2136 17.6203 30.4949 17.5813L33.3667 28.13L29.2368 29.2192C28.8196 29.3292 28.5706 29.7566 28.6806 30.1739C28.7731 30.5244 29.0894 30.7561 29.4355 30.7561C29.5014 30.7561 29.5685 30.7476 29.6353 30.7301L34.5314 29.4387C34.5314 29.4387 34.5315 29.4387 34.5316 29.4387L39.4179 28.15C39.835 28.0399 40.084 27.6124 39.974 27.1952ZM22.7474 4.08947L31.8584 1.68665C32.7642 3.2515 33.4801 4.95479 33.9404 6.64596C34.0739 7.13643 34.1819 7.61338 34.2654 8.0762C33.7902 8.02909 33.3059 8.02182 32.8125 8.04151C32.7287 7.46956 32.6052 6.87338 32.5 6.41096C32.4045 5.99026 31.9857 5.72658 31.5651 5.82229C31.1443 5.91791 30.8807 6.33651 30.9764 6.75729C31.095 7.27862 31.1882 7.75901 31.2517 8.17057C30.8979 8.21089 30.5403 8.25635 30.1786 8.30245C28.1504 8.56128 25.867 8.85229 23.2162 8.37948C22.9166 6.98823 22.7566 5.53057 22.7474 4.08947ZM29.6524 16.0777C29.6522 16.0777 29.6521 16.0777 29.652 16.0777C27.0567 16.0775 24.8426 13.8293 23.6495 10.0282C24.5206 10.1477 25.3492 10.1964 26.1391 10.1964C27.68 10.1964 29.0777 10.018 30.3765 9.85229C31.9083 9.6569 33.2581 9.48495 34.4582 9.67362C34.5492 11.3014 34.2778 12.6971 33.6457 13.7921C33.0261 14.8652 32.0622 15.6004 30.8582 15.9179C30.4562 16.024 30.0506 16.0777 29.6524 16.0777Z"
          fill="#B8CCC6"/>
</svg>
