<svg width="40" height="40" viewBox="0 0 40 40" fill="none" xmlns="http://www.w3.org/2000/svg">
    <g clip-path="url(#clip0)">
        <path d="M37.5 19.9999H2.5C1.12167 19.9999 0 18.8782 0 17.4999V10.8333C0 9.45492 1.12167 8.33325 2.5 8.33325H37.5C38.8783 8.33325 40 9.45492 40 10.8333V17.4999C40 18.8782 38.8783 19.9999 37.5 19.9999ZM2.5 9.99992C2.04167 9.99992 1.66667 10.3733 1.66667 10.8333V17.4999C1.66667 17.9599 2.04167 18.3333 2.5 18.3333H37.5C37.9583 18.3333 38.3333 17.9599 38.3333 17.4999V10.8333C38.3333 10.3733 37.9583 9.99992 37.5 9.99992H2.5Z"
              fill="#B8CCC6"/>
        <path d="M32.4997 39.9999H7.49967C5.20134 39.9999 3.33301 38.1299 3.33301 35.8332V19.1666C3.33301 18.7066 3.70634 18.3333 4.16634 18.3333C4.62634 18.3333 4.99967 18.7066 4.99967 19.1666V35.8332C4.99967 37.2116 6.12134 38.3332 7.49967 38.3332H32.4997C33.878 38.3332 34.9997 37.2116 34.9997 35.8332V19.1666C34.9997 18.7066 35.373 18.3333 35.833 18.3333C36.293 18.3333 36.6663 18.7066 36.6663 19.1666V35.8332C36.6663 38.1299 34.798 39.9999 32.4997 39.9999Z"
              fill="#B8CCC6"/>
        <path d="M20.0003 39.9999C19.5403 39.9999 19.167 39.6266 19.167 39.1666V19.1666C19.167 18.7066 19.5403 18.3333 20.0003 18.3333C20.4603 18.3333 20.8337 18.7066 20.8337 19.1666V39.1666C20.8337 39.6266 20.4603 39.9999 20.0003 39.9999Z"
              fill="#B8CCC6"/>
        <path d="M19.9997 9.99997C19.9397 9.99997 19.8797 9.9933 19.8197 9.97997C18.7697 9.74664 13.458 8.51497 12.0547 7.11164C11.2663 6.32664 10.833 5.27997 10.833 4.16664C10.833 3.0533 11.2663 2.00664 12.053 1.21997C13.678 -0.405029 16.3213 -0.405029 17.9447 1.21997C19.348 2.62164 20.5797 7.93497 20.813 8.98664C20.8747 9.26497 20.7897 9.55497 20.588 9.75497C20.4313 9.9133 20.218 9.99997 19.9997 9.99997ZM14.9997 1.6683C14.3597 1.6683 13.718 1.91164 13.2313 2.3983C12.7597 2.87164 12.4997 3.4983 12.4997 4.16664C12.4997 4.83497 12.7597 5.46164 13.2313 5.93497C13.8797 6.5833 16.5897 7.4583 18.873 8.04164C18.288 5.7583 17.4147 3.0483 16.7663 2.39997C16.2813 1.91164 15.6397 1.6683 14.9997 1.6683Z"
              fill="#B8CCC6"/>
        <path d="M19.9998 9.99995C19.7814 9.99995 19.5681 9.91328 19.4098 9.75662C19.2081 9.55495 19.1231 9.26495 19.1848 8.98828C19.4181 7.93662 20.6498 2.62495 22.0531 1.22162C23.6781 -0.405048 26.3214 -0.401714 27.9448 1.22162C28.7331 2.00662 29.1664 3.05329 29.1664 4.16662C29.1664 5.27995 28.7331 6.32662 27.9464 7.11328C26.5431 8.51662 21.2314 9.74828 20.1814 9.98162C20.1198 9.99328 20.0598 9.99995 19.9998 9.99995ZM24.9998 1.66829C24.3598 1.66829 23.7181 1.91162 23.2314 2.39829C22.5831 3.04662 21.7098 5.75662 21.1248 8.03995C23.4081 7.45662 26.1181 6.58162 26.7664 5.93328C27.2398 5.46162 27.4998 4.83495 27.4998 4.16662C27.4998 3.49829 27.2398 2.87162 26.7681 2.39829C26.2814 1.91162 25.6398 1.66829 24.9998 1.66829ZM22.6431 1.80995H22.6598H22.6431Z"
              fill="#B8CCC6"/>
    </g>
    <defs>
        <clipPath id="clip0">
            <rect width="40" height="40" fill="white"/>
        </clipPath>
    </defs>
</svg>
